<?xml version="1.0" encoding="utf-8"?>
<!-- Generator: Adobe Illustrator 27.2.0, SVG Export Plug-In . SVG Version: 6.00 Build 0)  -->
<svg version="1.1" id="Calque_3" xmlns="http://www.w3.org/2000/svg" xmlns:xlink="http://www.w3.org/1999/xlink" x="0px" y="0px"
	 viewBox="0 0 256 256" style="enable-background:new 0 0 256 256;" xml:space="preserve">
<g>
	<circle cx="24.9" cy="230.9" r="17.3"/>
	<path d="M57.7,198.3C57.8,198.3,57.8,198.3,57.7,198.3c4.9,4.8,10.9,8.4,17.7,10.2c2.8,0.8,5.6,1,8.5,1.2c3.5,0.3,7.3,0.6,10.6,2
		c2.8,1.2,5.2,3,7.2,5.2c1.6,1.7,2.9,3.7,3.8,5.8c1.2,2.8,1.9,5.8,1.9,8.8c0,6-2.4,11.4-6.3,15.3c-1.8,1.8-3.8,3.2-6.1,4.3l0,0
		c-2.8,1.3-5.8,2-9.1,2c-3,0-6-0.6-8.8-1.9c-2.1-0.9-4.1-2.2-5.8-3.8c-2.2-2-4-4.5-5.2-7.2c-1.4-3.3-1.7-7.1-2-10.6
		c-0.2-2.9-0.4-5.7-1.2-8.5c-1.8-6.8-5.4-12.8-10.2-17.6c0,0,0,0-0.1-0.1l0,0c0,0,0,0-0.1-0.1c-4.8-4.8-10.8-8.3-17.6-10.2
		c-2.8-0.8-5.6-1-8.5-1.2c-3.5-0.3-7.3-0.6-10.6-2c-2.8-1.2-5.2-3-7.2-5.2c-1.6-1.7-2.9-3.7-3.8-5.8c-1.2-2.8-1.9-5.8-1.9-8.8
		c0-6,2.4-11.4,6.3-15.3c1.8-1.8,3.8-3.2,6.1-4.3l0,0c2.8-1.3,5.8-2,9.1-2c3,0,6,0.6,8.8,1.9c2.1,0.9,4.1,2.2,5.8,3.8
		c2.2,2,4,4.5,5.2,7.2c1.4,3.3,1.7,7.1,2,10.6c0.2,2.9,0.4,5.7,1.2,8.5c1.8,6.8,5.4,12.8,10.2,17.6
		C57.7,198.2,57.7,198.2,57.7,198.3L57.7,198.3L57.7,198.3z"/>
</g>
<g>
	<path d="M147.1,17.1c7,0,13.6,2.7,18.6,7.7l65.6,65.6c5,5,7.7,11.6,7.7,18.6c0,7-2.7,13.6-7.7,18.6l-65.6,65.6
		c-5,5-11.6,7.7-18.6,7.7s-13.6-2.7-18.6-7.7l-65.6-65.6c-5-5-7.7-11.6-7.7-18.6c0-7,2.7-13.6,7.7-18.6l65.6-65.6
		C133.5,19.8,140,17.1,147.1,17.1 M147.1,3c-10.3,0-20.6,3.9-28.5,11.8L52.9,80.4c-15.8,15.8-15.8,41.3,0,57.1l65.6,65.6
		c7.9,7.9,18.2,11.8,28.5,11.8s20.6-3.9,28.5-11.8l65.6-65.6c15.8-15.8,15.8-41.3,0-57.1l-65.6-65.6C167.7,6.9,157.4,3,147.1,3
		L147.1,3z"/>
	<path d="M183.1,95.4h-24.3v64.3h-23.6V95.4H111V73.7h72.2V95.4z"/>
</g>
</svg>
