<?xml version="1.0" encoding="utf-8"?>
<!-- Generator: Adobe Illustrator 27.2.0, SVG Export Plug-In . SVG Version: 6.00 Build 0)  -->
<svg version="1.1" id="Calque_1" xmlns="http://www.w3.org/2000/svg" xmlns:xlink="http://www.w3.org/1999/xlink" x="0px" y="0px"
	 viewBox="0 0 256 256" style="enable-background:new 0 0 256 256;" xml:space="preserve">
<circle cx="25" cy="230.5" r="18"/>
<path d="M59.6,196.1C59.6,196.1,59.6,196.2,59.6,196.1c5.1,5,11.4,8.8,18.4,10.7c2.9,0.8,5.8,1,8.8,1.2c3.7,0.3,7.6,0.6,11,2
	c2.9,1.2,5.4,3.1,7.5,5.4c1.6,1.8,3,3.8,4,6.1c1.3,2.9,1.9,6,1.9,9.2c0,6.2-2.5,11.8-6.6,15.9c-1.8,1.8-4,3.3-6.3,4.5l0,0
	c-2.9,1.3-6.1,2.1-9.5,2.1c-3.1,0-6.3-0.7-9.2-1.9c-2.2-1-4.3-2.3-6.1-4c-2.3-2.1-4.2-4.7-5.4-7.5c-1.4-3.4-1.7-7.4-2-11
	c-0.2-3-0.4-5.9-1.2-8.8c-1.9-7-5.6-13.3-10.6-18.3c0,0-0.1-0.1-0.1-0.1l0,0c0,0-0.1-0.1-0.1-0.1c-5-5-11.3-8.7-18.3-10.6
	c-2.9-0.8-5.8-1-8.8-1.2c-3.7-0.3-7.6-0.6-11-2c-2.9-1.2-5.4-3.1-7.5-5.4c-1.6-1.8-3-3.8-4-6.1c-1.3-2.9-1.9-6-1.9-9.1
	c0-6.2,2.5-11.8,6.6-15.9c1.8-1.8,4-3.3,6.3-4.5l0,0c2.9-1.3,6.1-2.1,9.5-2.1c3.1,0,6.3,0.7,9.2,1.9c2.2,1,4.3,2.3,6.1,4
	c2.3,2.1,4.2,4.7,5.4,7.5c1.4,3.4,1.7,7.4,2,11c0.2,3,0.4,5.9,1.2,8.8C50.8,184.7,54.5,191,59.6,196.1
	C59.5,196,59.5,196.1,59.6,196.1L59.6,196.1L59.6,196.1z"/>
<g>
	<path d="M148.3,82.5c-12.1,0-20.1,9.3-20.1,20.5c0,11,8,20.3,20.1,20.3c12.1,0,20.1-9.3,20.1-20.3
		C168.4,91.8,160.4,82.5,148.3,82.5z"/>
	<path d="M152.1,3.1L152.1,3.1C96.6,3.1,51.6,48,51.6,103.5l0,0c0,55.4,45,100.4,100.5,100.4l0,0c55.5,0,100.5-44.9,100.5-100.4l0,0
		C252.6,48,207.6,3.1,152.1,3.1L152.1,3.1z M206.9,155.8h-35.9V148c-6.8,7-16.3,11-28.5,11c-30.9,0-51.8-25.4-51.8-56.2
		c0-30.6,25.2-56,58.1-56c33.8,0,58.2,23.7,58.2,56L206.9,155.8L206.9,155.8z"/>
</g>
</svg>
