<?xml version="1.0" encoding="utf-8"?>
<!-- Generator: Adobe Illustrator 28.1.0, SVG Export Plug-In . SVG Version: 6.00 Build 0)  -->
<svg version="1.1" id="Capa_1" xmlns="http://www.w3.org/2000/svg" xmlns:xlink="http://www.w3.org/1999/xlink" x="0px" y="0px"
	 viewBox="0 0 512 512" style="enable-background:new 0 0 512 512;" xml:space="preserve">
<path d="M464.9,433.8c-13.6,0-19.5-2.9-27.6-7c-2.7-1.3-5.4-2.7-8.4-4l42.8-112.7c3.7-9.8,3.1-20.8-1.7-30.1
	c-4.8-9.3-13.4-16.2-23.6-18.9l-27.9-7.3v-88.3c0-20.8-16.9-37.6-37.6-37.6h-56.5V97.5c0-28.4-23.1-51.6-51.6-51.6h-33.5
	c-28.4,0-51.6,23.1-51.6,51.6V128h-56.5c-20.8,0-37.6,16.9-37.6,37.6v88.3l-27.9,7.3c-10.2,2.7-18.8,9.5-23.6,18.9
	c-4.8,9.3-5.4,20.3-1.7,30.1l42.8,112.7c-3.1,1.3-5.9,2.7-8.4,4c-8.1,4.1-14,7-27.6,7c-8.9,0-16.1,7.2-16.1,16.1S38.2,466,47.1,466
	c21.2,0,32.2-5.5,42-10.4c8.1-4.1,14-7,27.6-7c13.6,0,19.5,2.9,27.6,7c9.8,4.9,20.8,10.4,42,10.4c21.2,0,32.2-5.5,42-10.4
	c8.1-4.1,14-7,27.6-7c13.6,0,19.5,2.9,27.6,7c9.7,4.9,20.8,10.4,42,10.4c21.2,0,32.2-5.5,42-10.4c8.1-4.1,14-7,27.6-7
	c13.6,0,19.5,2.9,27.6,7c9.7,4.9,20.8,10.4,42,10.4c8.9,0,16.1-7.2,16.1-16.1C481,441,473.8,433.8,464.9,433.8z M239.3,78.2h33.5
	c10.7,0,19.3,8.7,19.3,19.3V128h-72.1V97.5C219.9,86.9,228.6,78.2,239.3,78.2z M386.2,245.4l-126.2-33c-2.7-0.7-5.5-0.7-8.2,0
	l-126.2,33l0-79.8c0-3,2.4-5.4,5.4-5.4h249.7c3,0,5.4,2.4,5.4,5.4V245.4z M354.6,429.6L354.6,429.6l-1.4-2.8c-8.1,4.1-14,7-27.6,7
	c-13.6,0-19.5-2.9-27.6-7c-9.7-4.9-20.8-10.4-42-10.4c-21.2,0-32.2,5.5-42,10.4c-8.1,4.1-14,7-27.6,7c-13.6,0-19.5-2.9-27.6-7
	c-9.8-4.9-20.8-10.4-42-10.4c-0.5,0-1,0-1.5,0L70.5,298.7c-0.6-1.7-0.2-3,0.2-3.9c0.4-0.9,1.3-2,3.1-2.4L256,244.7l182.2,47.6
	c1.7,0.4,2.6,1.6,3,2.4c0.4,0.9,0.8,2.2,0.2,3.9l-44.8,117.7c-0.5,0-1,0-1.5,0c0,0,0,0,0,0c-21.2,0-32.2,5.5-42,10.4L354.6,429.6
	L354.6,429.6L354.6,429.6z"/>
</svg>
