<?xml version="1.0" encoding="UTF-8"?>
<svg id="gabarit_circle_icons_black" xmlns="http://www.w3.org/2000/svg" viewBox="0 0 192 192">
  <g id="image-3">
    <path id="Tracé_124" data-name="Tracé 124" d="m167.162,173.929H24.839c-9.166-.033-16.588-7.455-16.619-16.621V61.803c.033-9.165,7.454-16.587,16.619-16.619h25.983l7.139-21.535c2.699-8.114,10.293-13.586,18.844-13.577h38.332c8.551-.009,16.146,5.463,18.844,13.577l7.198,21.535h25.983c9.165.033,16.587,7.454,16.619,16.619v95.505c-.032,9.165-7.454,16.587-16.619,16.619v.002ZM24.839,56.887c-2.715,0-4.916,2.201-4.916,4.916v95.505c0,2.715,2.201,4.916,4.916,4.916h142.323c2.715,0,4.916-2.201,4.916-4.916V61.803c0-2.715-2.201-4.916-4.916-4.916h-27.271c-4.272-.005-8.064-2.737-9.421-6.788h0l-7.549-22.472c-1.005-3.439-4.142-5.816-7.725-5.853h-38.391c-3.583.037-6.72,2.414-7.725,5.853l-7.549,22.472c-1.357,4.051-5.149,6.783-9.421,6.788h-27.271Z"/>
    <path id="Tracé_125" data-name="Tracé 125" d="m96,143.733c-19.392,0-35.112-15.72-35.112-35.112s15.72-35.112,35.112-35.112,35.112,15.72,35.112,35.112-15.72,35.112-35.112,35.112Zm0-58.521c-12.928,0-23.409,10.481-23.409,23.409s10.481,23.409,23.409,23.409,23.409-10.481,23.409-23.409-10.481-23.409-23.409-23.409h0Z"/>
    <path d="m150.894,67.655c3.232,0,5.853,2.62,5.853,5.853s-2.62,5.853-5.853,5.853-5.853-2.62-5.853-5.853,2.62-5.853,5.853-5.853Z"/>
  </g>
</svg>