<?xml version="1.0" encoding="UTF-8"?>
<svg id="gabarit_circle_icons_black" xmlns="http://www.w3.org/2000/svg" viewBox="0 0 192 192">
  <g id="circle_icons">
    <g>
      <path d="m98,6C49.399,6,10,45.399,10,94c0,18.547,5.751,35.744,15.549,49.933l-13.433,28.216c-1.635,3.435-.176,7.546,3.259,9.181h0c1.629.775,3.404.835,5,.339l44.453-6.157c10.24,4.172,21.433,6.489,33.172,6.489,48.601,0,88-39.399,88-88S146.601,6,98,6Zm0,163.395c-9.944,0-19.43-1.944-28.123-5.442-.705-.284-1.406-.575-2.1-.879-.814-.189-1.671-.254-2.548-.132l-21.287,2.949-15.491,2.146,5.203-11.211,4.821-10.388c.94-1.974.928-4.269-.032-6.234l-.002-.003c-2.271-2.923-4.331-6.015-6.158-9.259-6.152-10.92-9.677-23.516-9.677-36.942,0-41.639,33.755-75.395,75.395-75.395,43.679,0,75.395,33.755,75.395,75.395s-33.755,75.395-75.395,75.395Z"/>
      <path id="Tracé_160" data-name="Tracé 160" d="m68.52,83.55h58.74c3.3,0,5.94-2.42,5.94-5.72s-2.42-5.94-5.72-5.94h-58.96c-3.3,0-5.72,2.64-5.72,5.94,0,3.3,2.42,5.72,5.72,5.72Z"/>
      <path id="Tracé_159" data-name="Tracé 159" d="m68.52,116.11h58.74c3.3,0,5.72-2.64,5.72-5.94,0-3.08-2.64-5.72-5.72-5.72h-58.74c-3.3,0-5.72,2.64-5.72,5.94,0,3.08,2.42,5.72,5.72,5.72Z"/>
    </g>
  </g>
</svg>