<?xml version="1.0" encoding="UTF-8"?>
<svg id="gabarit_circle_icons_black" xmlns="http://www.w3.org/2000/svg" viewBox="0 0 192 192">
  <g id="cloud_icons">
    <g id="cloud-disconnect">
      <path id="Tracé_161" data-name="Tracé 161" d="m156.695,152.659l-44.8-44.8h0L43.595,39.459c-2.3-2.3-5.9-2.3-8.2,0h0c-2.3,2.3-2.3,5.9,0,8.2l11.8,11.8c-2.3,4.5-3.9,9.3-4.8,14.3-20.3,1.4-35.5,19-34.1,39.3,1.4,19.3,17.5,34.3,36.8,34.2h89.7l13.7,13.7c2.2,2.2,5.7,2.3,8,.2h0c2.4-2.2,2.5-5.8.4-8.2l-.2-.2v-.1Zm-111.6-17.1c-13.9,0-25.3-11.2-25.4-25.2-.1-13.7,10.9-25,24.6-25.2h3.1c3,0,5.5-2.3,5.8-5.3.4-4,1.3-8,2.7-11.7l27.8,27.9c.2.2.4.5.6.7l38.8,38.8H45.095Z"/>
      <path id="Tracé_162" data-name="Tracé 162" d="m183.795,110.459c0-19.4-15-35.4-34.4-36.7-5.6-29.6-34.1-49-63.7-43.5-6.4,1.2-12.5,3.6-18.1,6.9-2.7,1.7-3.6,5.2-1.9,8,.2.4.5.8.9,1.1h0c1.9,1.9,4.8,2.2,7.1.9,20.3-12.3,46.6-5.8,58.9,14.5,3.4,5.6,5.4,11.8,6,18.3.2,3,2.8,5.4,5.8,5.4h2.5c13.9,0,25.3,11.2,25.4,25.2,0,8.4-4,16.2-11,20.9-2.6,1.7-3.4,5.3-1.6,7.9.2.3.4.6.7.9h0c1.9,2,4.9,2.3,7.2.8,10.1-6.8,16.2-18.3,16.2-30.5v-.1Z"/>
    </g>
  </g>
</svg>