<?xml version="1.0" encoding="UTF-8"?>
<svg id="gabarit_circle_icons_black" xmlns="http://www.w3.org/2000/svg" viewBox="0 0 192 192">
  <path d="m136.715,101.428c-16.154,0-29.524,11.771-32.091,27.197h-17.245c-2.567-15.425-15.938-27.197-32.091-27.197-17.989,0-32.572,14.583-32.572,32.572s14.583,32.572,32.572,32.572c16.117,0,29.464-11.717,32.075-27.09h17.278c2.611,15.373,15.959,27.09,32.075,27.09,17.989,0,32.572-14.583,32.572-32.572s-14.583-32.572-32.572-32.572Zm-59.715,32.576c-.001,11.993-9.724,21.714-21.717,21.713-11.993-.001-21.714-9.724-21.713-21.717.001-11.993,9.724-21.714,21.717-21.713v-.002c11.992.001,21.713,9.723,21.713,21.715v.004Zm81.428,0c-.001,11.993-9.724,21.714-21.717,21.713-11.993-.001-21.714-9.724-21.713-21.717s9.724-21.714,21.717-21.713v-.002c11.992.001,21.713,9.723,21.713,21.715v.004Z"/>
  <path d="m170.1,79.769h-15.363l-8.467-42.125c-1.42-7.092-7.642-12.201-14.875-12.215H60.552c-7.131.141-13.204,5.222-14.603,12.215l-8.641,42.125h-15.408c-1.049,0-1.9.851-1.9,1.9v7.057c0,1.049.851,1.9,1.9,1.9h148.2c1.049,0,1.9-.851,1.9-1.9v-7.057c0-1.049-.851-1.9-1.9-1.9ZM56.317,39.76c.411-2.015,2.179-3.465,4.235-3.475h70.841c2.056.01,3.824,1.46,4.235,3.475l8.035,39.953H48.337l7.98-39.953Z"/>
</svg>