<?xml version="1.0" encoding="utf-8"?>
<!-- Generator: Adobe Illustrator 27.6.1, SVG Export Plug-In . SVG Version: 6.00 Build 0)  -->
<svg version="1.1" id="gabarit_x5F_circle_x5F_icons_x5F_black"
	 xmlns="http://www.w3.org/2000/svg" xmlns:xlink="http://www.w3.org/1999/xlink" x="0px" y="0px" viewBox="0 0 192 192"
	 style="enable-background:new 0 0 192 192;" xml:space="preserve">
<g>
	<path d="M121.6,37.1H38.8c-8.3,0-15,6.8-15,15V171c0,8.3,6.8,15,15,15h82.8c8.3,0,15-6.8,15-15V52.2
		C136.6,43.9,129.8,37.2,121.6,37.1z M124.8,52.2v118.7c0,1.8-1.5,3.3-3.3,3.3H38.8c-1.8,0-3.3-1.5-3.3-3.3V52.2
		c0-1.8,1.5-3.3,3.3-3.3h82.8C123.3,48.9,124.8,50.4,124.8,52.2z"/>
	<path d="M153.2,6H70.4c-8.3,0-15,6.8-15,15c0,1.6,0.6,3.1,1.7,4.2c1.1,1.1,2.6,1.7,4.2,1.7c0,0,0,0,0,0c1.6,0,3-0.6,4.2-1.7
		c1.1-1.1,1.7-2.6,1.7-4.2c0-1.8,1.5-3.3,3.3-3.3h82.8c1.8,0,3.3,1.5,3.3,3.3v118.8c0,1.8-1.5,3.3-3.3,3.3c-3.2,0-5.9,2.6-5.9,5.9
		s2.6,5.9,5.9,5.9c8.3,0,15-6.8,15-15V21C168.3,12.8,161.5,6,153.2,6z"/>
</g>
</svg>
