
<svg viewBox="0 0 192 192">
<g>
	<path  d="M108,32L108,32c6.6,0,12,5.4,12,12v80
		c0,6.6-5.4,12-12,12l0,0c-6.6,0-12-5.4-12-12V44C96,37.4,101.4,32,108,32z"/>
	<path  d="M68,72L68,72c6.6,0,12,5.4,12,12v40
		c0,6.6-5.4,12-12,12l0,0c-6.6,0-12-5.4-12-12V84C56,77.4,61.4,72,68,72z"/>
	<path d="M40,152h120c4.4,0,8,3.6,8,8s-3.6,8-8,8H32
		c-4.4,0-8-3.6-8-8V32c0-4.4,3.6-8,8-8s8,3.6,8,8V152z"/>
	<path d="M148,88L148,88c6.6,0,12,5.4,12,12v24
		c0,6.6-5.4,12-12,12l0,0c-6.6,0-12-5.4-12-12v-24C136,93.4,141.4,88,148,88z"/>
</g>
</svg>
