<?xml version="1.0" encoding="utf-8"?>
<!-- Generator: Adobe Illustrator 27.2.0, SVG Export Plug-In . SVG Version: 6.00 Build 0)  -->
<svg version="1.1" id="Calque_1" xmlns="http://www.w3.org/2000/svg" xmlns:xlink="http://www.w3.org/1999/xlink" x="0px" y="0px"
	 viewBox="0 0 192 192" style="enable-background:new 0 0 192 192;" xml:space="preserve">
<g>
	<path d="M91.9,25.6c1.4,0,2.7-0.1,4.1-0.1c3.2,0,6.3,0.1,9.3,0.2c13.5,0.6,25.2,2.3,34.4,4.6c9.2,2.3,15.9,5.2,19.6,8l4.1,3.1
		l-4.1,3.1c-7.3,5.6-26.9,11.5-54,12.6c-3,0.1-6.1,0.2-9.3,0.2c-1.4,0-2.7-0.1-4.1-0.1c-2.9,0-5.8-0.2-8.5-0.3l19.4,15.7
		c18.7-0.2,37-3.7,54.8-10.3l4.6-1.7V97l-2,1c-3.6,2-9.5,4.5-18.1,6.7l14.1,11.4c0.5-0.2,1-0.3,1.5-0.5l4.5-1.6v6.9l13.8,11.3V41.5
		c0-21.6-40.2-31.2-80-31.2c-1.3,0-2.7,0-4.1,0.1c-19.2,0.3-38.2,2.9-52.4,8c-0.9,0.3-1.8,0.7-2.6,1l14,11.4
		C61.5,28,75.5,25.9,91.9,25.6z"/>
	<path d="M185.4,159L16,21.4c-3.2-2.6-7.9-2.1-10.6,1.1C2.9,25.7,3.4,30.4,6.6,33l9.4,7.7c0,0.3,0,0.6,0,0.9v105.6
		c0.2,6.6,3.4,12.8,8.6,16.4c21.7,11.9,46.1,18.2,70.8,18.1l0.6,0c0.2,0,0.4,0,0.6,0c24.7,0.1,49.1-6.2,70.8-18.1l8.6,7
		c1.4,1.1,3.1,1.7,4.7,1.7c2.2,0,4.3-0.9,5.8-2.8C189.1,166.3,188.6,161.6,185.4,159z M101.1,109.8c-1.2,0-2.3,0-3.5,0.1
		c-0.5,0-1,0-1.5,0c-36.9,0-56.1-7.4-64.2-11.8l-2-1V60.8l4.6,1.7c4.6,1.7,9.3,3.2,14.1,4.5L101.1,109.8z M105.3,166.4L105.3,166.4
		c-1,0-2.1,0-3.1,0.1c-2,0-3.9,0.1-5.9,0c-0.1,0-0.2,0-0.3,0c-0.1,0-0.2,0-0.3,0c-22.1,0.7-44.1-4.5-63.8-15l-2-1v-36.2l4.5,1.6
		c18.7,6.5,38,9.5,57.6,9.3v0c1.3,0,2.6,0.1,3.8,0h0.4c3,0.1,6.1,0,9.1-0.1v0c4.5-0.1,9-0.4,13.5-0.8l36.5,29.7
		C139.6,161.5,122.6,165.7,105.3,166.4z"/>
</g>
</svg>
