<?xml version="1.0" encoding="utf-8"?>
<!-- Generator: Adobe Illustrator 27.2.0, SVG Export Plug-In . SVG Version: 6.00 Build 0)  -->
<svg version="1.1" id="Calque_1" xmlns="http://www.w3.org/2000/svg" xmlns:xlink="http://www.w3.org/1999/xlink" x="0px" y="0px"
	 viewBox="0 0 192 192" style="enable-background:new 0 0 192 192;" xml:space="preserve">
<path d="M96,10.3c-1.4,0-2.7,0-4.1,0.1l0,0C53.5,11,16,20.7,16,41.5v105.6c0.2,6.6,3.4,12.8,8.6,16.4c21.7,11.9,46.1,18.2,70.8,18.1
	c0.2,0,0.4,0,0.6,0c0.2,0,0.4,0,0.6,0c24.7,0.1,49.1-6.2,70.8-18.1c5.2-3.6,8.4-9.8,8.6-16.4V41.5C176,20,135.8,10.3,96,10.3z
	 M162.2,150.4l-2,1c-17.1,9.1-35.8,14.2-54.9,15v0c-1,0-2.1,0.1-3.1,0.1c-2,0-3.9,0.1-5.9,0c-0.1,0-0.2,0-0.3,0c-0.1,0-0.2,0-0.3,0
	c-22.1,0.7-44.1-4.5-63.9-15l-2-1v-36.2l4.5,1.6c18.7,6.4,38,9.5,57.6,9.3v0c1.3,0,2.6,0.1,3.8,0c0.1,0,0.1,0,0.2,0
	c0.1,0,0.1,0,0.2,0c3.1,0.1,6.1,0,9.1-0.1v0c17.8-0.4,35.3-3.4,52.3-9.3l4.5-1.6V150.4z M95.9,72.8C95.9,72.8,96,72.8,95.9,72.8
	c0.1,0,0.1,0,0.2,0c21,0.6,41.6-2.8,61.5-10.2l4.6-1.7V97l-1.9,1.1c-7.5,4-24.5,10.6-56.1,11.6c-2.1,0.1-4.3,0.1-6.5,0.1
	c-0.5,0-1,0-1.5,0c-36.9,0-56.1-7.4-64.2-11.8L29.9,97V60.9l4.6,1.7C54.3,69.9,74.9,73.4,95.9,72.8z M159.3,44.7
	c-7.3,5.6-26.9,11.5-54,12.6l0,0c-3,0.1-6.1,0.2-9.3,0.2c-1.4,0-2.7-0.1-4.1-0.1l0,0c-29.8-0.5-51.5-6.8-59.2-12.7l-4.1-3.1l4.1-3.1
	c7.7-5.9,29.4-12.2,59.2-12.7l0,0c1.4,0,2.7-0.1,4.1-0.1c3.2,0,6.3,0.1,9.3,0.2l0,0c27.1,1.1,46.7,7,54,12.6l4.1,3.1L159.3,44.7z"/>
</svg>
