<?xml version="1.0" encoding="utf-8"?>
<!-- Generator: $$$/GeneralStr/196=Adobe Illustrator 27.6.0, SVG Export Plug-In . SVG Version: 6.00 Build 0)  -->
<svg version="1.1" id="gabarit_circle_icons_black" xmlns="http://www.w3.org/2000/svg"
	 x="0px" y="0px" viewBox="0 0 192 192" style="enable-background:new 0 0 192 192;" xml:space="preserve">
<path d="M104.6,96l20-20c2.4-2.4,2.4-6.2,0-8.6s-6.2-2.4-8.6,0l-20,20l-20-20c-2.4-2.4-6.2-2.4-8.5,0c-2.4,2.4-2.4,6.2,0,8.6l20,20
	l-20,20c-2.4,2.4-2.4,6.2,0,8.6s6.2,2.4,8.6,0l20-20l20,20c2.4,2.4,6.2,2.4,8.6,0s2.4-6.2,0-8.6L104.6,96L104.6,96z"/>
<path d="M96,8.3C47.6,8.3,8.3,47.6,8.3,96s39.3,87.7,87.7,87.7s87.7-39.3,87.7-87.7S144.4,8.3,96,8.3z M96,170.8
	c-41.3,0-74.8-33.5-74.8-74.8S54.7,21.1,96,21.1s74.8,33.5,74.8,74.8S137.3,170.8,96,170.8L96,170.8z"/>
</svg>
