<?xml version="1.0" encoding="utf-8"?>
<!-- Generator: Adobe Illustrator 27.6.1, SVG Export Plug-In . SVG Version: 6.00 Build 0)  -->
<svg version="1.1" id="gabarit_circle_icons_black" xmlns="http://www.w3.org/2000/svg"
	 x="0px" y="0px" viewBox="0 0 192 192" style="enable-background:new 0 0 192 192;" xml:space="preserve">
<path d="M112,96l37.6-37.6c4.5-4.5,4.5-11.7,0-16.2c-4.5-4.5-11.7-4.5-16.2,0L95.9,79.8L58.2,42.2c-4.5-4.5-11.7-4.5-16,0
	c-4.5,4.5-4.5,11.7,0,16.2L79.9,96l-37.6,37.6c-4.5,4.5-4.5,11.7,0,16.2c4.5,4.5,11.7,4.5,16.2,0L96,112.2l37.6,37.6
	c4.5,4.5,11.7,4.5,16.2,0c4.5-4.5,4.5-11.7,0-16.2L112,96L112,96z"/>
</svg>
