<?xml version="1.0" encoding="utf-8"?>
<!-- Generator: Adobe Illustrator 27.2.0, SVG Export Plug-In . SVG Version: 6.00 Build 0)  -->
<svg version="1.1" id="Calque_1" xmlns="http://www.w3.org/2000/svg" xmlns:xlink="http://www.w3.org/1999/xlink" x="0px" y="0px"
	 viewBox="0 0 192 192" style="enable-background:new 0 0 192 192;" xml:space="preserve">
<style type="text/css">
	.st0{fill-rule:evenodd;clip-rule:evenodd;}
</style>
<g>
	<g>
		<path class="st0" d="M91.8,42.7c-4.2,0-7.6,3.4-7.6,7.6s3.4,7.6,7.6,7.6h75.8c4.2,0,7.6-3.4,7.6-7.6s-3.4-7.6-7.6-7.6H91.8z
			 M122.1,88.3c-4.2,0-7.6,3.4-7.6,7.6c0,4.2,3.4,7.6,7.6,7.6h45.5c4.2,0,7.6-3.4,7.6-7.6c0-4.2-3.4-7.6-7.6-7.6H122.1z
			 M152.5,133.8c-4.2,0-7.6,3.4-7.6,7.6s3.4,7.6,7.6,7.6h15.2c4.2,0,7.6-3.4,7.6-7.6s-3.4-7.6-7.6-7.6H152.5z"/>
	</g>
	<path d="M56.1,146.8c0.4-0.4,0.8-0.9,1.1-1.3l25.3-25.3c2.9-3,2.9-7.6,0-10.6c-3-2.9-7.6-2.9-10.6,0l-13.5,13.6V51.8
		c-0.1-4.1-3.4-7.2-7.5-7.3c0,0-0.1,0-0.1,0c0,0-0.1,0-0.1,0c0,0-0.1,0-0.1,0c0,0-0.1,0-0.1,0c-4,0.1-7.4,3.2-7.5,7.3v71.4
		l-13.5-13.6c-3-2.9-7.6-2.9-10.6,0c-2.9,3-2.9,7.6,0,10.6l25.3,25.3c0.3,0.5,0.6,0.9,1.1,1.3c1.5,1.5,3.5,2.2,5.4,2.2
		C52.7,149,54.6,148.3,56.1,146.8z"/>
</g>
</svg>
