<?xml version="1.0" encoding="UTF-8"?>
<svg id="gabarit_circle_icons_black" xmlns="http://www.w3.org/2000/svg" viewBox="0 0 192 192">
  <g id="files_icons">
    <g>
      <path id="Tracé_85" data-name="Tracé 85" d="m127.5,121.252h-59c-3.371,0-6.103,2.733-6.103,6.103s2.733,6.103,6.103,6.103h59c3.371,0,6.103-2.733,6.103-6.103s-2.733-6.103-6.103-6.103Z"/>
      <path id="Tracé_86" data-name="Tracé 86" d="m103.086,96.838h-34.586c-3.371,0-6.103,2.733-6.103,6.103s2.733,6.103,6.103,6.103h34.586c3.371,0,6.103-2.733,6.103-6.103s-2.733-6.103-6.103-6.103Z"/>
      <path id="Tracé_87" data-name="Tracé 87" d="m127.5,145.666h-59c-3.371,0-6.103,2.733-6.103,6.103s2.733,6.103,6.103,6.103h59c3.371,0,6.103-2.733,6.103-6.103s-2.733-6.103-6.103-6.103Z"/>
    </g>
    <path d="m163.15,55.1L110.95,8.2c-3-2.7-6.9-4.2-10.9-4.2h-44.8c-8.7,0-15.8,7.1-15.8,15.8v144.4c0,8.7,7.1,15.8,15.8,15.8h97.5c8.7,0,15.8-7.1,15.8-15.8v-97.2c0-4.5-2-8.9-5.4-11.9Zm-53.3-32.3l37.4,33.7h-36.3c-.6,0-1.1-.5-1.1-1.1V22.8Zm42.9,145.5H55.25c-2.2,0-4-1.8-4-4V19.5c0-2.2,1.8-4,4-4h42.9v39.8c0,7.1,5.8,12.8,12.8,12.8h45.8v96c0,2.2-1.603,4.2-3.803,4.2h-.197Z"/>
  </g>
</svg>