<?xml version="1.0" encoding="utf-8"?>
<!-- Generator: $$$/GeneralStr/196=Adobe Illustrator 27.6.0, SVG Export Plug-In . SVG Version: 6.00 Build 0)  -->
<svg version="1.1" id="gabarit_circle_icons_black" xmlns="http://www.w3.org/2000/svg"
	 x="0px" y="0px" viewBox="0 0 192 192" style="enable-background:new 0 0 192 192;" xml:space="preserve">
<path d="M90.1,63.5V116l-14.8-14.8c-2.3-2.3-6-2.3-8.3,0s-2.3,6,0,8.3l24.8,24.8c1.7,1.7,5.5,2.7,8.3,0l25-24.8
	c2.2-2.3,2.1-6-0.2-8.3c-2.2-2.1-5.8-2.2-8,0l-14.8,14.6V63.4c0-4.1-2.7-7.5-6-7.5s-6,3.4-6,7.5L90.1,63.5z"/>
<path d="M96,8.3C47.6,8.3,8.3,47.6,8.3,96s39.3,87.7,87.7,87.7s87.7-39.3,87.7-87.7S144.4,8.3,96,8.3z M96,170.8
	c-41.3,0-74.8-33.5-74.8-74.8S54.7,21.1,96,21.1s74.8,33.5,74.8,74.8S137.3,170.8,96,170.8L96,170.8z"/>
</svg>
