<?xml version="1.0" encoding="utf-8"?>
<!-- Generator: Adobe Illustrator 27.2.0, SVG Export Plug-In . SVG Version: 6.00 Build 0)  -->
<svg version="1.1" id="Outline" xmlns="http://www.w3.org/2000/svg" xmlns:xlink="http://www.w3.org/1999/xlink" x="0px" y="0px"
	 viewBox="0 0 192 192" style="enable-background:new 0 0 192 192;" xml:space="preserve">
<g>
	<path d="M96,75.2c-20.3,0-36.8,16.5-36.8,36.8s16.5,36.8,36.8,36.8s36.8-16.5,36.8-36.8C132.8,91.7,116.3,75.2,96,75.2z M96,134.1
		c-12.2,0-22.1-9.9-22.1-22.1S83.8,89.9,96,89.9s22.1,9.9,22.1,22.1S108.2,134.1,96,134.1z"/>
	<path d="M96,57.9c34.1,0,55.4,21.1,66.6,37c2.2,3.2,6.6,4.1,9.9,2l0,0c3.6-2.2,4.6-7,2.2-10.5C161.6,68,136.6,43.2,96,43.2
		S30.4,68,17.3,86.5c-2.4,3.5-1.4,8.3,2.2,10.5l0,0c3.3,2,7.6,1.1,9.9-2C40.6,79,61.9,57.9,96,57.9"/>
</g>
</svg>
