<?xml version="1.0" encoding="UTF-8"?>
<svg id="gabarit_circle_icons_black" xmlns="http://www.w3.org/2000/svg" viewBox="0 0 192 192">
  <g id="files_icons">
    <path d="m163.15,132.9l-52.2,46.9c-3,2.7-6.9,4.2-10.9,4.2h-44.8c-8.7,0-15.8-7.1-15.8-15.8V23.8c0-8.7,7.1-15.8,15.8-15.8h97.5c8.7,0,15.8,7.1,15.8,15.8v97.2c0,4.5-2,8.9-5.4,11.9h0Zm-53.3,32.3l37.4-33.7h-36.3c-.6,0-1.1.5-1.1,1.1v32.6ZM152.85,19.7H55.25c-2.2,0-4,1.8-4,4v144.7c0,2.2,1.8,4,4,4h42.9v-39.8c0-7.1,5.8-12.8,12.8-12.8h45.8V23.8c0-2.2-1.8-4-4-4l.1-.1Z"/>
  </g>
</svg>