<?xml version="1.0" encoding="UTF-8"?>
<svg id="gabarit_circle_icons_black" xmlns="http://www.w3.org/2000/svg" viewBox="0 0 192 192">
  <g id="files_icons">
    <g>
      <path d="m94.351,176.176c0-3.335-2.701-5.341-6.036-5.321-19.403.119-50.657,0-50.657,0l-1.686-.198c-2.181,0-3.965-1.784-3.965-3.965v-95.156h45.397c6.938,0,12.687-5.65,12.687-12.687V19.399h42.523c2.181,0,3.965,1.784,3.965,3.965v96.08c0,2.815,2.295,5.368,5.105,5.535,3.593.214,6.591-2.117,6.591-4.798V23.661c0-8.614-7.047-15.661-15.661-15.661h-44.406c-3.965,0-7.831,1.487-10.804,4.163L25.664,58.651c-3.37,2.974-5.353,7.335-5.353,11.795v96.345c0,8.614,7.047,15.396,15.661,15.396,0,0,32.738.045,52.395,0,3.314-.008,5.984-2.697,5.984-6.011h0Zm-15.856-149.541v32.313c0,.595-.496,1.09-1.09,1.09h-35.981l37.071-33.404Z"/>
      <path d="m116.781,164.253h48.671s-13.682,13.682-13.682,13.682c-2.12,2.124-2.118,5.564.006,7.684,2.124,2.12,5.564,2.118,7.684-.006l22.973-22.973c1.572-1.572,2.544-5.142.014-7.672l-22.987-23.166c-2.17-2.07-5.607-1.988-7.677.182-1.99,2.087-2.002,5.365-.027,7.466l13.585,13.693h-48.56c-3.845,0-6.962,2.487-6.962,5.555s3.117,5.553,6.962,5.553Z"/>
    </g>
  </g>
</svg>