<?xml version="1.0" encoding="UTF-8"?>
<svg id="gabarit_circle_icons_black" xmlns="http://www.w3.org/2000/svg" viewBox="0 0 192 192">
  <g id="files_icons">
    <g>
      <path d="m94.351,176.176c0-3.335-2.701-5.341-6.036-5.321-19.403.119-50.657,0-50.657,0l-1.686-.198c-2.181,0-3.965-1.784-3.965-3.965v-95.156h45.397c6.938,0,12.687-5.65,12.687-12.687V19.399h42.523c2.181,0,3.965,1.784,3.965,3.965v96.08c0,2.815,2.295,5.368,5.105,5.535,3.593.214,6.591-2.117,6.591-4.798V23.661c0-8.614-7.047-15.661-15.661-15.661h-44.406c-3.965,0-7.831,1.487-10.804,4.163L25.664,58.651c-3.37,2.974-5.353,7.335-5.353,11.795v96.345c0,8.614,7.047,15.396,15.661,15.396,0,0,32.738.045,52.395,0,3.314-.008,5.984-2.697,5.984-6.011h0Zm-15.856-149.541v32.313c0,.595-.496,1.09-1.09,1.09h-35.981l37.071-33.404Z"/>
      <path d="m155.603,179.573c-.018-.018-.036-.036-.054-.054l-13.089-12.957c3.073-4.414,4.886-9.77,4.886-15.556-.016-15.058-12.219-27.261-27.277-27.277-15.065,0-27.278,12.213-27.278,27.277s12.213,27.278,27.278,27.278c5.8,0,11.168-1.824,15.588-4.911l13.119,12.987c1.874,1.885,4.922,1.894,6.807.02,1.885-1.874,1.894-4.922.02-6.807Zm-53.185-28.567c0-9.748,7.903-17.651,17.651-17.651s17.651,7.902,17.651,17.651c-.011,9.744-7.907,17.639-17.651,17.651-9.748,0-17.651-7.903-17.651-17.651Z"/>
    </g>
  </g>
</svg>