<?xml version="1.0" encoding="UTF-8"?>
<svg id="gabarit_circle_icons_black" xmlns="http://www.w3.org/2000/svg" viewBox="0 0 192 192">
  <path id="Tracé_118" data-name="Tracé 118" d="m161.05,45.451h-61.4l-5.5-10.9c-3.9-7.7-11.8-12.6-20.5-12.5H31.25c-12.5,0-22.8,10.1-22.9,22.6v106.6c0,12.5,10.2,22.7,22.7,22.7h129.9c12.5,0,22.7-10.2,22.7-22.7v-83.1c0-12.5-10.2-22.7-22.7-22.7h.1Zm-141-.8c0-6.1,5.1-11,11.2-10.9h42.4c4.2,0,8,2.2,10.1,5.8l2.8,5.8H20.05v-.8.1Zm152,106.6c0,6.1-4.9,11-11,11H31.05c-6.1,0-11-4.9-11-11h0V57.151h141c6.1,0,11,4.9,11,11h0v83.1Z"/>
</svg>