<?xml version="1.0" encoding="UTF-8"?>
<svg id="gabarit_circle_icons_black" xmlns="http://www.w3.org/2000/svg" viewBox="0 0 192 192">
  <path d="m159.927,35.672l-3.038-3.038C121.257-1.854,63.736.082,30.273,37.417-.17,71.383.76,123.858,32.286,156.82c34.798,36.385,92.575,36.111,127.162.213,32.459-33.738,32.779-87.144.48-121.362Zm-111.123,1.511c27.669-22.563,68.845-20.854,96.514,1.874l-107.788,104.824c-26.187-32.116-20.842-80.511,11.274-106.698Zm46.63,134.187c-17.491,0-34.583-6.641-48.243-17.636l106.395-106.285c11.161,13.326,17.809,30.635,17.809,47.959,0,41.979-33.983,75.961-75.961,75.961Z"/>
</svg>