<?xml version="1.0" encoding="UTF-8"?>
<svg id="gabarit_circle_icons_black" xmlns="http://www.w3.org/2000/svg" viewBox="0 0 192 192">
  <path d="m72.5,62.539c1.1,0,1.9.9,1.9,1.9v19.8c0,1.1-.9,1.9-1.9,1.9h-8c-1.1,0-1.9-.9-1.9-1.9v-19.8c0-1.1.9-1.9,1.9-1.9h8Zm55.1,0c1.1,0,1.9.9,1.9,1.9v19.8c0,1.1-.9,1.9-1.9,1.9h-8c-1.1,0-1.9-.9-1.9-1.9v-19.8c0-1.1.9-1.9,1.9-1.9h8Z"/>
  <path d="m97.605,3.285C54.405,2.385,19.1,37.685,19.1,80.785v79.3h0c0,10.8,8.7,19.5,19.5,19.6,7.1,0,13.9-3.1,18.5-8.5.8-1.1,1.8-2.1,2.9-2.9,5.7-4.1,13.6-2.8,17.7,2.9.9,1,1.8,2,2.8,2.8,10.2,8.6,25.5,7.4,34.1-2.8.8-1.1,1.7-2,2.8-2.8,5.7-4.1,13.6-2.9,17.7,2.8,4.6,5.3,11.5,8.4,18.5,8.5h.1c10.7-.1,19.3-8.9,19.3-19.6v-80.9c0-41.9-33.258-75-74.958-75.9h-.437Zm55.595,164.7c-4-.1-7.7-2.2-10.2-5.4-.9-1-1.8-2-2.8-2.8-10.2-8.6-25.5-7.4-34.1,2.8-.8,1.1-1.8,2.1-2.9,2.9-5.7,4.1-13.6,2.8-17.7-2.9-.8-1-1.7-1.9-2.7-2.7-10.2-8.7-25.5-7.5-34.2,2.7-2.4,3.3-6.1,5.3-10.1,5.4h-.2c-4.2,0-7.5-3.6-7.4-7.8v-80.9h0c0-35.9,29.1-64.1,65.1-64.1s65,28.1,65,64.1v81.1c0,4.2-3.226,7.598-7.426,7.598l-.374.002Z"/>
</svg>