<?xml version="1.0" encoding="utf-8"?>
<!-- Generator: Adobe Illustrator 27.2.0, SVG Export Plug-In . SVG Version: 6.00 Build 0)  -->
<svg version="1.1" id="Calque_1" xmlns="http://www.w3.org/2000/svg" xmlns:xlink="http://www.w3.org/1999/xlink" x="0px" y="0px"
	 viewBox="0 0 256 256" style="enable-background:new 0 0 256 256;" xml:space="preserve">
<style type="text/css">
	.st0{fill-rule:evenodd;clip-rule:evenodd;}
</style>
<path class="st0" d="M103.9,115.7c8.4,8,8.4,21.2,0,29.1l-1.1,1.1c-21.5,20.5-38,36.3-43,69.4c-1.8,11.7,8.2,21.4,20.3,21.4h48.7
	h48.7c12,0,22.1-9.7,20.3-21.4c-5-33.1-21.6-48.9-43-69.4l-1.1-1.1c-8.4-8-8.4-21.2,0-29.1l1.1-1.1c21.5-20.5,38-36.3,43-69.4
	c1.8-11.7-8.2-21.4-20.3-21.4h-48.7H80c-12,0-22.1,9.7-20.3,21.4c5,33.1,21.6,48.9,43,69.4L103.9,115.7z M111.1,97.6L111.1,97.6
	C94.7,82.9,82.5,72,81,45.1c-0.1-1.7,0.6-3.1,1.8-4.1c0.9-0.8,2.1-1.2,3.4-1.2h42.5h42.5c1.5,0,2.9,0.6,3.9,1.7
	c0.9,1,1.4,2.3,1.3,3.7c-1.6,26.9-13.7,37.8-30.1,52.4c-4.3,3.9-8.9,8-13.7,12.7c-2.2,2.1-5.7,2.1-7.8,0
	C120,105.6,115.4,101.4,111.1,97.6z"/>
</svg>
