<?xml version="1.0" encoding="UTF-8"?>
<svg id="gabarit_circle_icons_black" xmlns="http://www.w3.org/2000/svg" viewBox="0 0 192 192">
  <path id="Tracé_110" data-name="Tracé 110" d="m151.392,16.337H40.609c-13.393.028-24.243,10.878-24.271,24.271v110.783c.028,13.393,10.878,24.243,24.271,24.271h110.783c13.393-.028,24.243-10.878,24.271-24.271V40.609c-.028-13.393-10.878-24.243-24.271-24.271Zm-110.783,10.621h110.783c7.538,0,13.648,6.111,13.648,13.648v70.9l-23.208-16.622c-6.801-4.817-15.973-4.535-22.465.691l-23.367,18.852-18.536-19.862c-7.3-7.584-19.172-8.367-27.404-1.806l-23.102,18.8V40.609c0-7.538,6.111-13.648,13.648-13.648h0l.002-.002Zm-13.65,124.434v-26.181l29.899-24.218c3.929-3.016,9.479-2.676,13.011.797l59.11,63.252H40.609c-7.538.001-13.649-6.109-13.65-13.646v-.004Zm124.434,13.648h-7.913l-40.045-42.857,22.624-18.322c2.741-2.274,6.673-2.405,9.56-.319l29.424,21.242v26.821c-.115,7.455-6.192,13.438-13.648,13.437l-.002-.002Z"/>
  <path d="m96,51.124c5.866,0,10.621,4.755,10.621,10.621s-4.755,10.621-10.621,10.621-10.621-4.755-10.621-10.621,4.755-10.621,10.621-10.621Z"/>
</svg>