<?xml version="1.0" encoding="utf-8"?>
<!-- Generator: $$$/GeneralStr/196=Adobe Illustrator 27.6.0, SVG Export Plug-In . SVG Version: 6.00 Build 0)  -->
<svg version="1.1" id="gabarit_circle_icons_black" xmlns="http://www.w3.org/2000/svg"
	 x="0px" y="0px" viewBox="0 0 192 192" style="enable-background:new 0 0 192 192;" xml:space="preserve">
<g>
	<path id="Tracé_187" d="M96,81.4c-3.6,0-6.5,2.9-6.5,6.5v41.7c0,3.6,2.9,6.5,6.5,6.5s6.5-2.9,6.5-6.5V87.9
		C102.5,84.3,99.6,81.4,96,81.4"/>
	<path id="Tracé_188" d="M96,56c4.8,0,8.7,3.9,8.7,8.7s-3.9,8.7-8.7,8.7s-8.7-3.9-8.7-8.7l0,0C87.3,59.9,91.2,56,96,56L96,56"/>
</g>
<path d="M96,8.3C47.6,8.3,8.3,47.6,8.3,96s39.3,87.7,87.7,87.7s87.7-39.3,87.7-87.7S144.4,8.3,96,8.3z M96,170.8
	c-41.3,0-74.8-33.5-74.8-74.8S54.7,21.1,96,21.1s74.8,33.5,74.8,74.8S137.3,170.8,96,170.8L96,170.8z"/>
</svg>
