<?xml version="1.0" encoding="UTF-8"?>
<svg id="Calque_2" data-name="Calque 2" xmlns="http://www.w3.org/2000/svg" viewBox="0 0 175.527 164.557">
  <g id="gabarit_circle_icons_black">
    <path d="m162.93,98.284v-56.015c0-9.367-7.625-16.987-16.997-16.987h-15.076v-11.829c0-7.419-6.034-13.453-13.452-13.453h-59.282c-7.418,0-13.452,6.036-13.452,13.453v11.829h-15.076c-9.371,0-16.997,7.62-16.997,16.987v56.015c-7.021.442-12.598,6.295-12.598,13.425v23.634c0,7.418,6.036,13.452,13.453,13.452h16.76v5.477h-10.202c-2.839,0-5.142,2.302-5.142,5.142s2.303,5.142,5.142,5.142h30.688c2.839,0,5.142-2.302,5.142-5.142s-2.303-5.142-5.142-5.142h-10.202v-5.477h16.76c7.418,0,13.453-6.036,13.453-13.453v-6.673h34.106v6.673c0,7.419,6.036,13.453,13.453,13.453h16.76v5.477h-10.2c-2.84,0-5.142,2.302-5.142,5.142s2.302,5.142,5.142,5.142h30.687c2.84,0,5.142-2.302,5.142-5.142s-2.302-5.142-5.142-5.142h-10.202v-5.477h16.761c7.418,0,13.452-6.036,13.452-13.453v-23.632c0-7.13-5.576-12.983-12.598-13.425ZM54.955,13.453c0-1.748,1.421-3.168,3.167-3.168h59.282c1.748,0,3.168,1.422,3.168,3.168v33.943c0,1.746-1.422,3.168-3.168,3.168h-59.282c-1.746,0-3.167-1.422-3.167-3.168V13.453Zm5.471,121.888c0,1.748-1.422,3.168-3.168,3.168H13.453c-1.748,0-3.168-1.421-3.168-3.168v-23.632c0-1.746,1.421-3.167,3.168-3.167h43.804c1.746,0,3.168,1.421,3.168,3.167v23.632Zm10.285-16.958v-6.674c0-7.418-6.036-13.452-13.453-13.452H22.882v-55.988c0-3.696,3.01-6.703,6.712-6.703h15.076v11.829c0,7.418,6.034,13.453,13.452,13.453h24.499v6.072h-14.131c-2.84,0-5.142,2.302-5.142,5.142s2.302,5.142,5.142,5.142h38.548c2.839,0,5.142-2.302,5.142-5.142s-2.303-5.142-5.142-5.142h-14.132v-6.072h24.499c7.418,0,13.452-6.036,13.452-13.453v-11.829h15.076c3.701,0,6.712,3.006,6.712,6.703v55.988h-34.375c-7.418,0-13.453,6.034-13.453,13.452v6.674h-34.106Zm94.532,16.958c0,1.748-1.421,3.168-3.168,3.168h-43.804c-1.746,0-3.168-1.421-3.168-3.168v-23.632c0-1.746,1.422-3.167,3.168-3.167h43.804c1.748,0,3.168,1.421,3.168,3.167v23.632Z"/>
  </g>
</svg>