<?xml version="1.0" encoding="utf-8"?>
<!-- Generator: $$$/GeneralStr/196=Adobe Illustrator 27.6.0, SVG Export Plug-In . SVG Version: 6.00 Build 0)  -->
<svg version="1.1" id="gabarit_circle_icons_black" xmlns="http://www.w3.org/2000/svg"
	 x="0px" y="0px" viewBox="0 0 192 192" style="enable-background:new 0 0 192 192;" xml:space="preserve">
<path d="M128.5,101.9H76l14.8,14.8c2.3,2.3,2.3,6,0,8.3s-6,2.3-8.3,0l-24.8-24.8c-1.7-1.7-2.7-5.5,0-8.3l24.8-25
	c2.3-2.2,6-2.1,8.3,0.2c2.1,2.2,2.2,5.8,0,8L76.2,89.9h52.4c4.1,0,7.5,2.7,7.5,6s-3.4,6-7.5,6L128.5,101.9z"/>
<path d="M96,8.3C47.6,8.3,8.3,47.6,8.3,96s39.3,87.7,87.7,87.7s87.7-39.3,87.7-87.7S144.4,8.3,96,8.3z M96,170.8
	c-41.3,0-74.8-33.5-74.8-74.8S54.7,21.1,96,21.1s74.8,33.5,74.8,74.8S137.3,170.8,96,170.8L96,170.8z"/>
</svg>
