<?xml version="1.0" encoding="UTF-8"?>
<svg id="Calque_2" data-name="Calque 2" xmlns="http://www.w3.org/2000/svg" viewBox="0 0 176.078 176">
  <g id="gabarit_circle_icons_black">
    <g id="circle_icons">
      <path d="m150.2,25.8C115.8-8.6,60.2-8.6,25.8,25.8c-34.4,34.3-34.4,90,0,124.4,34.4,34.4,90.1,34.4,124.5,0s34.357-89.938-.043-124.338l-.057-.062Zm-8.9,115.6c-29.5,29.5-77.2,29.5-106.7,0-29.5-29.5-29.5-77.2,0-106.7,29.5-29.5,77.2-29.5,106.7,0,29.4,29.5,29.4,77.2,0,106.7Z"/>
      <path d="m122.328,94.018c3.342,0,6.051-2.709,6.051-6.051,0-3.342-2.709-6.051-6.051-6.051H53.75c-3.342,0-6.051,2.709-6.051,6.051,0,3.342,2.709,6.051,6.051,6.051h68.578Z"/>
    </g>
  </g>
</svg>