<?xml version="1.0" encoding="UTF-8"?>
<svg id="gabarit_circle_icons_black" xmlns="http://www.w3.org/2000/svg" viewBox="0 0 192 192">
  <g id="Groupe_432" data-name="Groupe 432">
    <path id="Tracé_232" data-name="Tracé 232" d="m64.559,158.796c-17.986-.005-32.563-14.59-32.559-32.576.002-8.63,3.429-16.905,9.529-23.01l24.222-24.224c6.092-6.134,14.385-9.574,23.03-9.554,8.729-.135,17.139,3.283,23.299,9.469,1.306,1.344,2.034,3.146,2.027,5.02.01,3.992-3.218,7.236-7.21,7.246-1.827.005-3.588-.683-4.928-1.924-3.509-3.459-8.254-5.374-13.182-5.319-4.797-.013-9.401,1.893-12.784,5.295l-24.241,24.224c-7.06,7.06-7.06,18.506,0,25.567,3.391,3.391,7.989,5.296,12.784,5.295,4.797.013,9.401-1.893,12.784-5.295.431-.42,4.811-4.394,5.218-4.784,2.879-2.77,7.458-2.681,10.228.199,2.704,2.811,2.692,7.259-.026,10.056-.275.275-5.201,4.8-5.201,4.8-6.086,6.112-14.363,9.538-22.989,9.516Z"/>
    <path id="Tracé_233" data-name="Tracé 233" d="m127.428,33.204c17.986-.003,32.57,14.576,32.572,32.562.001,8.641-3.431,16.928-9.543,23.038l-24.222,24.224c-12.825,12.693-33.469,12.723-46.331.069-1.304-1.345-2.031-3.147-2.024-5.02-.01-3.992,3.218-7.236,7.21-7.246,1.827-.005,3.588.683,4.928,1.924,3.509,3.461,8.254,5.376,13.182,5.322,4.797.013,9.401-1.893,12.784-5.295l24.222-24.222c7.062-7.058,7.064-18.505.006-25.567-3.391-3.392-7.991-5.298-12.787-5.298-4.795-.017-9.398,1.885-12.784,5.281-.431.42-4.811,4.394-5.218,4.784-2.879,2.77-7.458,2.681-10.228-.198-2.704-2.811-2.692-7.259.026-10.056.275-.275,5.201-4.8,5.201-4.8,6.093-6.111,14.376-9.532,23.005-9.502"/>
  </g>
</svg>