<?xml version="1.0" encoding="UTF-8"?>
<svg id="gabarit_circle_icons_black" xmlns="http://www.w3.org/2000/svg" viewBox="0 0 192 192">
  <path d="m95.897,121.55h0c-3.5,0-6.3,2.8-6.3,6.3v14.8c0,3.5,2.8,6.5,6.3,6.5s6.5-2.8,6.5-6.3h0v-15c0-3.5-3-6.3-6.5-6.3Z"/>
  <path d="m148.297,77.05c-1.3-.4-2.6-.4-3.9-.4h-1.7v-23.3c0-25.5-20.9-46.4-46.6-46.4s-46.4,20.9-46.4,46.4v23.3h-1.7c-1.3,0-2.6.2-3.9.4-6.7,1.7-11.8,7.8-11.8,15.2v73.4c0,7.2,5,13.3,11.5,15,1.3.2,2.6.4,4.1.4h96.4c1.3,0,2.6-.2,3.9-.7,6.7-1.7,11.5-7.8,11.5-15v-73.1c.2-7.4-4.8-13.5-11.5-15.2h.1Zm-87.1-23.7c0-19.2,15.7-34.8,34.8-34.8s34.8,15.7,34.8,34.8v23.3H61.197v-23.3Zm87.1,112.1c0,2.2-1.7,3.9-3.9,3.9H47.897c-2.2,0-3.9-1.7-3.9-3.9v-73.1c0-2.2,1.7-3.9,3.9-3.9h96.4c2.2,0,3.9,1.7,3.9,3.9v73.1h.1Z"/>
</svg>