<?xml version="1.0" encoding="UTF-8"?>
<svg id="gabarit_circle_icons_black" xmlns="http://www.w3.org/2000/svg" viewBox="0 0 192 192">
  <g id="mail_icons">
    <path id="Mail-open" d="m180.9,56.759c-1.373-6.67-5.199-12.458-10.79-16.283-.687-.49-1.471-.981-2.256-1.373l-53.853-29.232-.392-.196-5.199-2.845c-7.749-4.218-17.166-4.218-24.916,0l-5.493,3.041-.49.196-53.265,29.134c-.785.392-1.471.883-2.158,1.373-5.689,3.826-9.613,9.711-10.986,16.382-.392,1.668-.589,3.433-.589,5.101v88.186c0,14.42,11.673,25.995,25.995,26.093h118.791c14.42,0,26.093-11.673,26.191-26.093V61.86c0-1.766-.196-3.433-.589-5.101m-151.456-7.651l59.444-32.273c2.158-1.177,4.512-1.766,6.965-1.766s4.905.687,6.965,1.864l59.346,32.273c3.139,1.668,5.591,4.512,6.867,7.946-1.275,3.237-3.531,5.886-6.572,7.553l-59.444,32.273c-2.158,1.177-4.512,1.766-6.965,1.766s-4.905-.589-6.965-1.864l-59.346-32.273c-3.139-1.766-5.591-4.512-6.768-7.946,1.275-3.237,3.531-5.886,6.572-7.553m139.945,101.823c0,8.142-5.95,14.025-13.993,14.025H36.507c-8.142,0-14.714-6.572-14.714-14.714h0v-77.003c.687.49,1.471.981,2.256,1.373l53.853,29.232h0l.392.196,5.199,2.845c7.749,4.218,17.166,4.218,24.916,0l5.101-2.845,54.147-29.624c.785-.392,1.471-.883,2.158-1.373l-.28,77.404-.049.484Z"/>
  </g>
</svg>