<?xml version="1.0" encoding="utf-8"?>
<!-- Generator: Adobe Illustrator 28.1.0, SVG Export Plug-In . SVG Version: 6.00 Build 0)  -->
<svg version="1.1" id="svg2154" xmlns:svg="http://www.w3.org/2000/svg"
	 xmlns="http://www.w3.org/2000/svg" xmlns:xlink="http://www.w3.org/1999/xlink" x="0px" y="0px" viewBox="0 0 682.7 682.7"
	 style="enable-background:new 0 0 682.7 682.7;" xml:space="preserve">
<g>
	<g id="g2180">
		<g id="g2190" transform="translate(14.7266,115)">
			<g id="path2192_00000139267568389943861620000006285456194627185053_">
				<path d="M515.3,377.9c-30.4,0-46.6-10.8-59.7-19.4c-10.6-7-17.6-11.6-33.9-11.6c-16.4,0-23.4,4.6-33.9,11.6
					c-13,8.6-29.2,19.4-59.7,19.4c-30.4,0-46.6-10.8-59.7-19.4c-10.6-7-17.5-11.6-33.9-11.6c-16.4,0-23.4,4.6-33.9,11.6
					c-13,8.6-29.2,19.4-59.7,19.4c-12.9,0-23.3-10.4-23.3-23.3s10.4-23.3,23.3-23.3c16.4,0,23.4-4.6,33.9-11.6
					c13-8.6,29.2-19.4,59.7-19.4c30.4,0,46.6,10.8,59.7,19.4c10.6,7,17.5,11.6,33.9,11.6c16.4,0,23.4-4.6,33.9-11.6
					c13-8.6,29.2-19.4,59.7-19.4c30.4,0,46.6,10.8,59.7,19.4c10.6,7,17.6,11.6,33.9,11.6c12.9,0,23.3,10.4,23.3,23.3
					S528.2,377.9,515.3,377.9z"/>
			</g>
		</g>
		<g id="g2194" transform="translate(14.7266,35)">
			<g id="path2196_00000039838678141792909070000016749819192697427847_">
				<path d="M515.3,582c-30.4,0-46.6-10.8-59.7-19.4c-10.6-7-17.6-11.6-33.9-11.6c-16.4,0-23.4,4.6-33.9,11.6
					c-13,8.6-29.2,19.4-59.7,19.4c-30.4,0-46.6-10.8-59.7-19.4c-10.6-7-17.5-11.6-33.9-11.6c-16.4,0-23.4,4.6-33.9,11.6
					c-13,8.6-29.2,19.4-59.7,19.4c-12.9,0-23.3-10.4-23.3-23.3c0-12.9,10.4-23.3,23.3-23.3c16.4,0,23.4-4.6,33.9-11.6
					c13-8.6,29.2-19.4,59.7-19.4c30.4,0,46.6,10.8,59.7,19.4c10.6,7,17.5,11.6,33.9,11.6c16.4,0,23.4-4.6,33.9-11.6
					c13-8.6,29.2-19.4,59.7-19.4c30.4,0,46.6,10.8,59.7,19.4c10.6,7,17.6,11.6,33.9,11.6c12.9,0,23.3,10.4,23.3,23.3
					C538.6,571.6,528.2,582,515.3,582z"/>
			</g>
		</g>
	</g>
	<path d="M235.2,71.5c1.1,1.1,2.2,2.4,3,3.5l68.2,68.2c7.8,8.1,7.8,20.5,0,28.6c-8.1,7.8-20.5,7.8-28.6,0l-36.7-36.6v192.4
		c-0.3,11-9.2,19.4-20.2,19.7h-1.1c-10.8-0.3-19.9-8.6-20.2-19.7V135.1l-35.8,36.6c-8.1,7.8-20.5,7.8-28.6,0
		c-7.8-8.1-7.8-20.5,0-28.6L203.4,75c0.8-1.3,1.6-2.4,3-3.5c4-4,9.4-5.9,14.6-5.9S231.2,67.5,235.2,71.5 M414,346.2
		c-1.1-1.1-2.2-2.4-3-3.5l-68.2-68.2c-7.8-8.1-7.8-20.5,0-28.6c8.1-7.8,20.5-7.8,28.6,0l36.4,36.6V90.1c0.3-11,9.2-19.4,20.2-19.7
		h1.1c10.8,0.3,19.9,8.6,20.2,19.7v192.4l36.4-36.6c8.1-7.8,20.5-7.8,28.6,0c7.8,8.1,7.8,20.5,0,28.6l-68.2,68.2
		c-0.8,1.3-1.6,2.4-3,3.5c-4,4-9.4,5.9-14.6,5.9C423.2,352.1,418.1,350.2,414,346.2"/>
</g>
</svg>
