<?xml version="1.0" encoding="UTF-8"?>
<svg id="gabarit_circle_icons_black" xmlns="http://www.w3.org/2000/svg" viewBox="0 0 192 192">
  <g id="_3-dots" data-name="3-dots">
    <path id="Tracé_115" data-name="Tracé 115" d="m172.25,96c0-11.258-9.093-20.351-20.351-20.351s-20.351,9.093-20.351,20.351,9.093,20.351,20.351,20.351h0c11.258,0,20.351-9.093,20.351-20.351Zm-30.483,0c0-5.629,4.59-10.132,10.132-10.132s10.132,4.59,10.132,10.132-4.59,10.132-10.132,10.132h0c-5.629,0-10.132-4.59-10.132-10.132Z"/>
    <path id="Tracé_116" data-name="Tracé 116" d="m116.394,96c0-11.258-9.093-20.351-20.351-20.351s-20.351,9.093-20.351,20.351,9.093,20.351,20.351,20.351h0c11.258,0,20.351-9.093,20.351-20.351Zm-30.483,0c0-5.629,4.59-10.132,10.132-10.132s10.132,4.59,10.132,10.132-4.59,10.132-10.132,10.132h0c-5.629,0-10.132-4.59-10.132-10.132Z"/>
    <path id="Tracé_117" data-name="Tracé 117" d="m60.451,96c0-11.258-9.093-20.351-20.351-20.351s-20.351,9.093-20.351,20.351,9.093,20.351,20.351,20.351h0c11.258,0,20.351-9.093,20.351-20.351Zm-30.483,0c0-5.629,4.59-10.132,10.132-10.132s10.132,4.59,10.132,10.132-4.59,10.132-10.132,10.132h0c-5.629,0-10.132-4.59-10.132-10.132Z"/>
  </g>
</svg>