<?xml version="1.0" encoding="utf-8"?>
<!-- Generator: $$$/GeneralStr/196=Adobe Illustrator 27.6.0, SVG Export Plug-In . SVG Version: 6.00 Build 0)  -->
<svg version="1.1" id="gabarit_circle_icons_black" xmlns="http://www.w3.org/2000/svg"
	 x="0px" y="0px" viewBox="0 0 192 192" style="enable-background:new 0 0 192 192;" xml:space="preserve">
<g id="menu_icons">
	<g id="menu-kebab">
		<path id="Tracé_115" d="M96,19.8c-11.3,0-20.4,9.1-20.4,20.4S84.7,60.5,96,60.5s20.4-9.1,20.4-20.4l0,0
			C116.4,28.8,107.3,19.7,96,19.8z M96,50.2c-5.6,0-10.1-4.6-10.1-10.1S90.5,30,96,30s10.1,4.6,10.1,10.1l0,0
			C106.1,45.7,101.5,50.2,96,50.2z"/>
		<path id="Tracé_116" d="M96,75.6c-11.3,0-20.4,9.1-20.4,20.4s9.1,20.4,20.4,20.4s20.4-9.1,20.4-20.4l0,0
			C116.4,84.7,107.3,75.6,96,75.6z M96,106.1c-5.6,0-10.1-4.6-10.1-10.1S90.5,85.8,96,85.8s10.1,4.6,10.1,10.1l0,0
			C106.1,101.6,101.5,106.1,96,106.1z"/>
		<path id="Tracé_117" d="M96,131.5c-11.3,0-20.4,9.1-20.4,20.4s9.1,20.4,20.4,20.4s20.4-9.1,20.4-20.4l0,0
			C116.4,140.6,107.3,131.5,96,131.5z M96,162c-5.6,0-10.1-4.6-10.1-10.1s4.6-10.1,10.1-10.1s10.1,4.6,10.1,10.1l0,0
			C106.1,157.5,101.5,162,96,162z"/>
	</g>
</g>
</svg>
