<?xml version="1.0" encoding="UTF-8"?>
<svg id="gabarit_circle_icons_black" xmlns="http://www.w3.org/2000/svg" viewBox="0 0 192 192">
  <g id="menu_icons">
    <g>
      <path id="Tracé_119" data-name="Tracé 119" d="m72.766,90.551h-23.234c-9.8,0-17.742-7.942-17.742-17.742v-23.234c0-9.8,7.942-17.742,17.742-17.742h23.234c9.8,0,17.742,7.942,17.742,17.742v23.234c0,9.8-7.942,17.742-17.742,17.742Zm-23.234-47.144c-3.379,0-6.083,2.788-6.168,6.168v23.234c0,3.379,2.788,6.083,6.168,6.168h23.234c3.379,0,6.168-2.788,6.168-6.168h0v-23.234c0-3.379-2.788-6.168-6.168-6.168h-23.234Z"/>
      <path id="Tracé_119-2" data-name="Tracé 119-2" d="m142.468,90.551h-23.234c-9.8,0-17.742-7.942-17.742-17.742v-23.234c0-9.8,7.942-17.742,17.742-17.742h23.234c9.8,0,17.742,7.942,17.742,17.742v23.234c0,9.8-7.942,17.742-17.742,17.742Zm-23.234-47.144c-3.379,0-6.083,2.788-6.168,6.168v23.234c0,3.379,2.788,6.083,6.168,6.168h23.234c3.379,0,6.168-2.788,6.168-6.168h0v-23.234c0-3.379-2.788-6.168-6.168-6.168h-23.234Z"/>
      <path id="Tracé_119-3" data-name="Tracé 119-3" d="m72.766,160.168h-23.234c-9.8,0-17.742-7.942-17.742-17.742v-23.234c0-9.8,7.942-17.742,17.742-17.742h23.234c9.8,0,17.742,7.942,17.742,17.742v23.234c0,9.8-7.942,17.742-17.742,17.742Zm-23.234-47.144c-3.379,0-6.083,2.788-6.168,6.168v23.234c0,3.379,2.788,6.083,6.168,6.168h23.234c3.379,0,6.168-2.788,6.168-6.168h0v-23.234c0-3.379-2.788-6.168-6.168-6.168h-23.234Z"/>
      <path id="Tracé_119-4" data-name="Tracé 119-4" d="m142.468,160.168h-23.234c-9.8,0-17.742-7.942-17.742-17.742v-23.234c0-9.8,7.942-17.742,17.742-17.742h23.234c9.8,0,17.742,7.942,17.742,17.742v23.234c0,9.8-7.942,17.742-17.742,17.742Zm-23.234-47.144c-3.379,0-6.083,2.788-6.168,6.168v23.234c0,3.379,2.788,6.083,6.168,6.168h23.234c3.379,0,6.168-2.788,6.168-6.168h0v-23.234c0-3.379-2.788-6.168-6.168-6.168h-23.234Z"/>
    </g>
  </g>
</svg>