<?xml version="1.0" encoding="UTF-8"?>
<svg id="gabarit_circle_icons_black" xmlns="http://www.w3.org/2000/svg" viewBox="0 0 192 192">
  <g id="menu_icons">
    <g>
      <path d="m156.207,88.591H35.704c-4.106,0-7.409,3.303-7.409,7.409s3.303,7.409,7.409,7.409h120.591c4.106,0,7.409-3.303,7.409-7.409s-3.303-7.409-7.409-7.409h-.089Z"/>
      <path d="m156.207,43H35.704c-4.106,0-7.409,3.303-7.409,7.409s3.303,7.409,7.409,7.409h120.591c4.106,0,7.409-3.303,7.409-7.409s-3.303-7.409-7.409-7.409h-.089Z"/>
      <path d="m156.207,134.183H35.704c-4.106,0-7.409,3.303-7.409,7.409s3.303,7.409,7.409,7.409h120.591c4.106,0,7.409-3.303,7.409-7.409s-3.303-7.409-7.409-7.409h-.089Z"/>
    </g>
  </g>
</svg>