<?xml version="1.0" encoding="UTF-8"?>
<svg id="gabarit_circle_icons_black" xmlns="http://www.w3.org/2000/svg" viewBox="0 0 192 192">
  <path d="m179.382,97.881c-3.051-6.25-10.591-8.843-16.841-5.792l-21.699,10.61v-10.013c0-7.202-5.839-13.041-13.041-13.041H44.383c-7.202,0-13.041,5.839-13.041,13.041v53.554c0,7.202,5.839,13.041,13.041,13.041h83.417c7.202,0,13.041-5.839,13.041-13.041v-9.972l21.75,10.618c1.719.846,3.609,1.288,5.525,1.293v.002c6.935-.028,12.543-5.658,12.543-12.593v-32.204c-.003-1.908-.44-3.79-1.277-5.504Zm-48.496,48.36c-.027,1.693-1.393,3.058-3.085,3.085H44.383c-1.693-.027-3.058-1.393-3.085-3.085v-53.556c.027-1.693,1.393-3.058,3.085-3.085l83.417.002c1.693.027,3.058,1.393,3.085,3.085v53.554Zm39.817-10.65c-.005.385-.095.763-.262,1.11-.633,1.312-2.21,1.862-3.521,1.229l-26.078-12.741v-11.4l26.078-12.741c.346-.167.725-.257,1.11-.262,1.456-.02,2.653,1.144,2.674,2.601v32.206Zm-69.679-16.126c0,2.749-2.229,4.978-4.978,4.978s-4.978-2.229-4.978-4.978,2.229-4.978,4.978-4.978,4.978,2.229,4.978,4.978Zm-19.909,0c0,2.749-2.229,4.978-4.978,4.978s-4.978-2.229-4.978-4.978,2.229-4.978,4.978-4.978,4.978,2.229,4.978,4.978Zm-24.887-48.976h.004c13.744-.001,24.885-11.143,24.884-24.887-.001-13.742-11.141-24.883-24.884-24.884-13.744-.001-24.886,11.14-24.887,24.884-.001,13.744,11.14,24.886,24.884,24.887Zm0-39.817c8.247,0,14.932,6.685,14.932,14.932s-6.685,14.932-14.932,14.932-14.932-6.685-14.932-14.932,6.685-14.932,14.932-14.932Zm54.749,39.817h.004c13.744-.001,24.885-11.143,24.884-24.887-.001-13.742-11.141-24.883-24.884-24.884-13.744-.001-24.886,11.14-24.887,24.884-.001,13.744,11.14,24.886,24.884,24.887Zm0-39.817c8.247,0,14.932,6.685,14.932,14.932s-6.685,14.932-14.932,14.932-14.932-6.685-14.932-14.932,6.685-14.932,14.932-14.932Z"/>
</svg>