<?xml version="1.0" encoding="UTF-8"?>
<svg id="gabarit_circle_icons_black" xmlns="http://www.w3.org/2000/svg" viewBox="0 0 192 192">
  <path d="m160,27.932c0-1.631-.749-3.172-2.032-4.179-1.283-1.005-2.957-1.364-4.54-.974l-79.562,19.628c-2.37.584-4.036,2.71-4.036,5.151v83.39c-3.882-2.302-8.569-3.653-13.616-3.653-13.356,0-24.214,9.44-24.214,21.04s10.867,21.04,24.214,21.04,24.214-9.441,24.214-21.042c0,0,0-.001,0-.002h.011v-61.792l68.954-17.002v27.462c-3.881-2.301-8.567-3.651-13.613-3.651-13.358,0-24.214,9.44-24.214,21.04s10.865,21.038,24.214,21.038,24.214-9.438,24.214-21.038c0,0,0-.001,0-.002h.007V27.932ZM56.214,158.764c-7.506,0-13.615-4.678-13.615-10.432s6.107-10.43,13.615-10.43,13.615,4.678,13.615,10.43-6.105,10.432-13.615,10.432Zm24.225-83.15v-23.903l68.954-17.008v23.91l-68.954,17.002Zm68.955,38.775c0,5.754-6.108,10.43-13.615,10.43s-13.615-4.678-13.615-10.43,6.107-10.432,13.615-10.432,13.593,4.663,13.613,10.405v.025h.002s0,.001,0,.002Z"/>
</svg>