<?xml version="1.0" encoding="utf-8"?>
<!-- Generator: Adobe Illustrator 28.1.0, SVG Export Plug-In . SVG Version: 6.00 Build 0)  -->
<svg version="1.1" id="Calque_1" xmlns="http://www.w3.org/2000/svg" xmlns:xlink="http://www.w3.org/1999/xlink" x="0px" y="0px"
	 viewBox="0 0 192 192" style="enable-background:new 0 0 192 192;" xml:space="preserve">
<g>
	<path d="M81.5,54c3,0,5.5-2.5,5.5-5.6V23.7l18.1,26.9c1.6,2.4,4.3,3.4,6.8,2.6c2.6-0.8,4.2-3.3,4.2-6.3c0,0,0,0,0-0.1l-0.4-41.3
		c0-3.1-2.5-5.6-5.5-5.6c0,0,0,0-0.1,0c-3,0-5.4,2.6-5.4,5.7l0.2,25.1L86,2.5c-1.4-2-3.8-2.9-6.1-2.2c-2.3,0.7-3.8,2.9-3.8,5.4v42.7
		C76.1,51.5,78.5,54,81.5,54z"/>
	<path d="M153.1,183.9L100.9,72.7c-0.3-0.5-0.6-1-1-1.4c-0.1-0.1-0.2-0.2-0.4-0.3c-0.4-0.3-0.7-0.6-1.2-0.8
		c-0.2-0.1-0.3-0.2-0.5-0.2c-0.6-0.2-1.2-0.4-1.8-0.4c0,0,0,0-0.1,0c0,0,0,0-0.1,0c-0.6,0-1.2,0.2-1.8,0.4c-0.2,0.1-0.4,0.2-0.5,0.2
		c-0.4,0.2-0.8,0.5-1.2,0.8c-0.1,0.1-0.2,0.2-0.4,0.3c-0.4,0.4-0.7,0.9-1,1.4L38.9,183.9c-1.1,2.3-0.5,5,1.3,6.7
		c1.8,1.7,4.5,1.9,6.6,0.5L96,158.6l49.2,32.5c0.9,0.6,1.9,0.9,3,0.9c1.3,0,2.6-0.5,3.6-1.4C153.6,188.9,154.1,186.2,153.1,183.9z
		 M90.5,99.7v49.1l-33.3,22L90.5,99.7z M101.5,148.9V99.8l33.3,71.1L101.5,148.9z"/>
</g>
</svg>
