<?xml version="1.0" encoding="UTF-8"?>
<svg id="gabarit_circle_icons_black" xmlns="http://www.w3.org/2000/svg" viewBox="0 0 192 192">
  <path d="m152.844,122.801c-.624-.233-1.059-.805-1.115-1.469v-45.598c0-30.78-24.952-55.732-55.732-55.732s-55.732,24.952-55.732,55.732v45.598c-.037.683-.475,1.28-1.115,1.52-6.421,2.749-10.142,9.521-9.019,16.415,1.524,7.433,8.172,12.692,15.756,12.464h25.941c2.347,11.563,12.568,20.267,24.823,20.267h.008c12.255,0,22.476-8.704,24.823-20.267h24.622c7.584.228,14.233-5.031,15.756-12.464,1.148-6.911-2.576-13.712-9.017-16.467Zm-56.192,39.064c-6.616,0-12.228-4.234-14.316-10.134h28.633c-2.088,5.9-7.701,10.134-14.316,10.134Zm55.073-24.218c-.71,2.477-3.052,4.123-5.624,3.952H45.887c-2.571.17-4.912-1.475-5.622-3.952-.403-2.31.833-4.595,2.987-5.523,4.308-1.866,7.109-6.097,7.144-10.792v-45.598c0-25.183,20.415-45.598,45.598-45.598,25.183.001,45.596,20.416,45.596,45.598v45.598c.003,4.719,2.84,8.974,7.195,10.792,2.135.944,3.349,3.225,2.939,5.523Z"/>
</svg>