<?xml version="1.0" encoding="utf-8"?>
<!-- Generator: Adobe Illustrator 27.2.0, SVG Export Plug-In . SVG Version: 6.00 Build 0)  -->
<svg version="1.1" id="Calque_1" xmlns="http://www.w3.org/2000/svg" xmlns:xlink="http://www.w3.org/1999/xlink" x="0px" y="0px"
	 viewBox="0 0 192 192" style="enable-background:new 0 0 192 192;" xml:space="preserve">
<path d="M169.2,51.5H22.8C10.2,51.5,0,61.7,0,74.4v43.2c0,12.6,10.2,22.9,22.8,22.9h146.4c12.6,0,22.8-10.3,22.8-22.9V74.4
	C192,61.7,181.8,51.5,169.2,51.5z M180.8,74.4v43.2c0,6.4-5.2,11.7-11.6,11.7H22.8c-6.4,0-11.6-5.2-11.6-11.7V74.4
	c0-6.4,5.2-11.7,11.6-11.7h146.4C175.6,62.7,180.8,68,180.8,74.4z"/>
<path d="M115.7,84.5c-0.7-1.3-2-2.2-3.4-2.6c-1.4-0.4-3-0.2-4.3,0.6l-6.5,3.8v-7.5c0-3.1-2.5-5.6-5.6-5.6c-3.1,0-5.6,2.5-5.6,5.6
	v7.5l-6.5-3.8c-1.3-0.8-2.8-1-4.3-0.6c-1.4,0.4-2.7,1.3-3.4,2.6c-1.5,2.7-0.6,6.1,2.1,7.7l6.5,3.8l-6.5,3.8c-2.7,1.6-3.6,5-2,7.7
	c1,1.7,2.9,2.8,4.9,2.8c1,0,1.9-0.3,2.8-0.8l6.5-3.8v7.5c0,3.1,2.5,5.6,5.6,5.6c3.1,0,5.6-2.5,5.6-5.6v-7.5l6.5,3.8
	c0.8,0.5,1.8,0.8,2.8,0.8c2,0,3.9-1.1,4.9-2.8c1.5-2.7,0.6-6.1-2.1-7.7l-6.5-3.8l6.5-3.8C116.4,90.7,117.3,87.2,115.7,84.5z"/>
<path d="M64.2,84.5c-0.7-1.3-2-2.2-3.4-2.6c-1.4-0.4-3-0.2-4.3,0.6l-6.5,3.8v-7.5c0-3.1-2.5-5.6-5.6-5.6s-5.6,2.5-5.6,5.6v7.5
	l-6.5-3.8c-1.3-0.8-2.8-1-4.3-0.6c-1.5,0.4-2.7,1.3-3.4,2.6c-1.5,2.7-0.6,6.1,2.1,7.7l6.5,3.8l-6.5,3.8c-2.7,1.6-3.6,5-2,7.7
	c1,1.7,2.9,2.8,4.9,2.8c1,0,1.9-0.3,2.8-0.8l6.5-3.8v7.5c0,3.1,2.5,5.6,5.6,5.6s5.6-2.5,5.6-5.6v-7.5l6.5,3.8
	c0.8,0.5,1.8,0.8,2.8,0.8c2,0,3.9-1.1,4.9-2.8c1.5-2.7,0.6-6.1-2.1-7.7L55.7,96l6.5-3.8C64.8,90.7,65.7,87.2,64.2,84.5z"/>
<path d="M167.3,84.5c-0.7-1.3-2-2.2-3.4-2.6c-1.4-0.4-3-0.2-4.3,0.6l-6.5,3.8v-7.5c0-3.1-2.5-5.6-5.6-5.6c-3.1,0-5.6,2.5-5.6,5.6
	v7.5l-6.5-3.8c-1.3-0.8-2.8-1-4.3-0.6c-1.5,0.4-2.7,1.3-3.4,2.6c-1.5,2.7-0.6,6.1,2.1,7.7l6.5,3.8l-6.5,3.8c-2.7,1.6-3.6,5-2.1,7.7
	c1,1.7,2.9,2.8,4.9,2.8c1,0,1.9-0.3,2.8-0.8l6.5-3.8v7.5c0,3.1,2.5,5.6,5.6,5.6c3.1,0,5.6-2.5,5.6-5.6v-7.5l6.5,3.8
	c0.8,0.5,1.8,0.8,2.8,0.8c2,0,3.9-1.1,4.9-2.8c1.5-2.7,0.6-6.1-2.1-7.7l-6.5-3.8l6.5-3.8C167.9,90.7,168.9,87.2,167.3,84.5z"/>
</svg>
