<?xml version="1.0" encoding="utf-8"?>
<!-- Generator: Adobe Illustrator 27.2.0, SVG Export Plug-In . SVG Version: 6.00 Build 0)  -->
<svg version="1.1" id="Calque_1" xmlns="http://www.w3.org/2000/svg" xmlns:xlink="http://www.w3.org/1999/xlink" x="0px" y="0px"
	 viewBox="0 0 192 192" style="enable-background:new 0 0 192 192;" xml:space="preserve">
<path d="M185.4,159l-22.8-18.5l-13.8-11.2l-32.7-26.5l-6.6-5.4l-1.9-1.6l-17.3-14l-23.5-19L53.1,51.5L16,21.4
	c-3.2-2.6-7.9-2.1-10.6,1.1c-2.5,3.2-2,7.9,1.2,10.5l22.8,18.5h-6.6C10.2,51.5,0,61.7,0,74.4v43.2c0,12.6,10.2,22.9,22.8,22.9H139
	l37.1,30.1c1.4,1.1,3.1,1.7,4.7,1.7c2.2,0,4.3-0.9,5.8-2.8C189.1,166.3,188.6,161.6,185.4,159z M22.8,129.3
	c-6.4,0-11.6-5.2-11.6-11.7V74.4c0-6.4,5.2-11.7,11.6-11.7h20.4l32.5,26.4c0.4,1.2,1.3,2.4,2.5,3.1l4.6,2.7l1.6,1.3l-6.2,3.6
	c-2.7,1.6-3.6,5-2,7.7c1,1.7,2.9,2.8,4.9,2.8c1,0,1.9-0.3,2.8-0.8l6.5-3.8v7.5c0,3.1,2.5,5.6,5.6,5.6s5.6-2.5,5.6-5.6v-3l23.6,19.1
	H22.8z"/>
<path d="M64.3,107.5c-1,1.7-2.9,2.8-4.9,2.8c-1,0-2-0.3-2.8-0.8l-6.5-3.8v7.5c0,3.1-2.5,5.6-5.6,5.6s-5.6-2.5-5.6-5.6v-7.5l-6.5,3.8
	c-0.9,0.5-1.8,0.8-2.8,0.8c-2,0-3.9-1.1-4.9-2.8c-1.6-2.7-0.7-6.1,2-7.7l6.5-3.8l-6.5-3.8c-2.7-1.6-3.6-5-2.1-7.7
	c0.7-1.3,1.9-2.2,3.4-2.6c1.5-0.4,3-0.2,4.3,0.6l6.5,3.8v-7.5c0-3.1,2.5-5.6,5.6-5.6c3.1,0,5.6,2.5,5.6,5.6v7.5l6.5-3.8
	c1.3-0.8,2.9-1,4.3-0.6c1.4,0.4,2.7,1.3,3.4,2.6c1.5,2.7,0.6,6.2-2,7.7L55.7,96l6.5,3.8C64.9,101.4,65.8,104.8,64.3,107.5z"/>
<path d="M192,74.4v43.2c0,8-4.1,15-10.2,19.1l-9.6-7.8c5-1.3,8.7-5.9,8.7-11.3V74.4c0-6.4-5.2-11.7-11.6-11.7H90.4L76.5,51.5h92.7
	C181.8,51.5,192,61.7,192,74.4z"/>
<path d="M167.3,107.5c-1,1.7-2.9,2.8-4.9,2.8c-1,0-2-0.3-2.8-0.8l-6.5-3.8v7.5c0,0.1,0,0.2,0,0.3l-19.6-15.9l2.8-1.6l-6.5-3.8
	c-2.7-1.6-3.6-5-2.1-7.7c0.7-1.3,1.9-2.2,3.4-2.6c1.5-0.4,3-0.2,4.3,0.6l6.5,3.8v-7.5c0-3.1,2.5-5.6,5.6-5.6s5.6,2.5,5.6,5.6v7.5
	l6.5-3.8c1.3-0.8,2.9-1,4.3-0.6c1.4,0.4,2.7,1.3,3.4,2.6c1.6,2.7,0.6,6.2-2.1,7.7l-6.5,3.8l6.5,3.8
	C167.9,101.4,168.8,104.8,167.3,107.5z"/>
<path d="M153.1,113.5c0-0.1,0-0.2,0-0.3v-7.5l6.5,3.8c0.8,0.5,1.8,0.8,2.8,0.8c2,0,3.9-1.1,4.9-2.8c1.5-2.7,0.6-6.1-2.1-7.7
	l-6.5-3.8l6.5-3.8c2.7-1.5,3.7-5,2.1-7.7c-0.7-1.3-2-2.2-3.4-2.6c-1.4-0.4-3-0.2-4.3,0.6l-6.5,3.8v-7.5c0-3.1-2.5-5.6-5.6-5.6
	s-5.6,2.5-5.6,5.6v7.5l-6.5-3.8c-1.3-0.8-2.8-1-4.3-0.6c-1.5,0.4-2.7,1.3-3.4,2.6c-1.5,2.7-0.6,6.1,2.1,7.7l6.5,3.8l-2.8,1.6
	L153.1,113.5z"/>
</svg>
