<?xml version="1.0" encoding="utf-8"?>
<!-- Generator: $$$/GeneralStr/196=Adobe Illustrator 27.6.0, SVG Export Plug-In . SVG Version: 6.00 Build 0)  -->
<svg version="1.1" id="gabarit_circle_icons_black" xmlns="http://www.w3.org/2000/svg"
	 x="0px" y="0px" viewBox="0 0 192 192" style="enable-background:new 0 0 192 192;" xml:space="preserve">
<g id="Groupe_444">
	<path id="Tracé_159" d="M118.6,126.1v-60c0-3.3-2.8-5.9-6.1-5.9c-3.2,0-5.8,2.7-5.9,5.9v60c0,3.3,2.8,5.9,6.1,5.9
		C115.9,132,118.5,129.3,118.6,126.1z"/>
	<path id="Tracé_160" d="M85.4,126.1v-60c0-3.3-2.6-6.1-5.9-6.1s-6.1,2.6-6.1,5.9v0.2v60c0,3.3,2.8,5.9,6.1,5.9
		C82.7,132,85.3,129.3,85.4,126.1z"/>
</g>
<path d="M96,8.3C47.6,8.3,8.3,47.6,8.3,96s39.3,87.7,87.7,87.7s87.7-39.3,87.7-87.7S144.4,8.3,96,8.3z M96,170.8
	c-41.3,0-74.8-33.5-74.8-74.8S54.7,21.1,96,21.1s74.8,33.5,74.8,74.8S137.3,170.8,96,170.8L96,170.8z"/>
</svg>
