<?xml version="1.0" encoding="utf-8"?>
<!-- Generator: Adobe Illustrator 28.0.0, SVG Export Plug-In . SVG Version: 6.00 Build 0)  -->
<svg version="1.1" id="Calque_1" xmlns="http://www.w3.org/2000/svg" xmlns:xlink="http://www.w3.org/1999/xlink" x="0px" y="0px"
	 viewBox="0 0 192 192" style="enable-background:new 0 0 192 192;" xml:space="preserve">
<style type="text/css">
	.st0{fill:#FFFFFF;filter:url(#Adobe_OpacityMaskFilter);}
	.st1{mask:url(#mask0_206_786_00000167366363488518687140000008529830099966259852_);}
</style>
<defs>
	<filter id="Adobe_OpacityMaskFilter" filterUnits="userSpaceOnUse" x="20" y="20" width="152" height="152">
		<feColorMatrix  type="matrix" values="1 0 0 0 0  0 1 0 0 0  0 0 1 0 0  0 0 0 1 0"/>
	</filter>
</defs>
<mask maskUnits="userSpaceOnUse" x="20" y="20" width="152" height="152" id="mask0_206_786_00000167366363488518687140000008529830099966259852_">
	<path class="st0" d="M172,20H20v152h152V20z"/>
</mask>
<g class="st1">
	<path d="M139.1,93c-1.6,0-3.1-0.6-4.3-1.8l-34.1-34.1c-0.6-0.6-1-1.2-1.3-2c-0.3-0.7-0.5-1.5-0.5-2.3c0-0.8,0.2-1.6,0.5-2.3
		c0.3-0.7,0.7-1.4,1.3-2c0.6-0.6,1.2-1,2-1.3c0.7-0.3,1.5-0.5,2.3-0.5c0.8,0,1.6,0.2,2.3,0.5c0.7,0.3,1.4,0.7,2,1.3l34.1,34.1
		c0.8,0.8,1.4,1.9,1.6,3.1c0.2,1.2,0.1,2.4-0.3,3.5c-0.5,1.1-1.2,2-2.2,2.7C141.5,92.6,140.3,92.9,139.1,93L139.1,93z"/>
	<path d="M26.1,172c-0.8,0-1.7-0.2-2.5-0.5c-0.8-0.3-1.5-0.8-2-1.5c-0.6-0.6-1-1.4-1.3-2.2c-0.3-0.8-0.4-1.7-0.3-2.5l4.3-38.3
		c0.1-1.4,0.8-2.6,1.7-3.6l98.1-98.1c1.7-1.7,3.7-3,5.9-3.9c2.2-0.9,4.5-1.4,6.9-1.4c2.4,0,4.7,0.5,6.9,1.4c2.2,0.9,4.2,2.2,5.9,3.9
		l17,17c1.7,1.7,3,3.7,3.9,5.9c0.9,2.2,1.4,4.5,1.4,6.9c0,2.4-0.5,4.7-1.4,6.9c-0.9,2.2-2.2,4.2-3.9,5.9L68.6,166
		c-1,1-2.2,1.6-3.6,1.7L26.7,172C26.5,172,26.3,172,26.1,172z M36.1,130.4l-3.2,28.7l28.7-3.2l96.6-96.6c0.6-0.6,1-1.2,1.3-2
		c0.3-0.7,0.5-1.5,0.5-2.3c0-0.8-0.2-1.6-0.5-2.3c-0.3-0.7-0.8-1.4-1.3-2l-17-17c-0.6-0.6-1.2-1-2-1.3c-0.7-0.3-1.5-0.5-2.3-0.5
		c-0.8,0-1.6,0.2-2.3,0.5c-0.7,0.3-1.4,0.8-2,1.3L36.1,130.4z"/>
</g>
</svg>
