<?xml version="1.0" encoding="utf-8"?>
<!-- Generator: Adobe Illustrator 28.1.0, SVG Export Plug-In . SVG Version: 6.00 Build 0)  -->
<svg version="1.1" id="Calque_1" xmlns="http://www.w3.org/2000/svg" xmlns:xlink="http://www.w3.org/1999/xlink" x="0px" y="0px"
	 viewBox="0 0 192 192" style="enable-background:new 0 0 192 192;" xml:space="preserve">
<g>
	<path d="M122.2,182c-1.2,0-2.5-0.2-3.7-0.6L96,175.2l-22.8,6.3c-3.8,1.1-7.6,0.4-10.6-1.8c-2.9-2.2-4.7-5.7-4.6-9.4l0-6.2
		c0-5.2,2.3-10.2,6.2-13.3L76,141l-0.3-20.4l-39,17.7c-5.7,2.6-12.4,0.1-15-5.6c-0.7-1.5-1-3-1-4.7l0-9.1c0.1-4.3,2.1-8.4,5.5-11
		l48.3-39.8l-0.4-16.3C74,50.1,74,46,74,45.4C74,12.6,90.8,10,96,10c3.7,0,12.9,1.3,18.2,13.3c2.5,5.7,3.8,13.2,3.8,22.2
		c0,0.6,0,4.7-0.1,6.5l-0.4,16.3l48.3,39.9c3.4,2.7,5.4,6.7,5.5,11l0,0.1v8.9c0,3-1.2,5.9-3.3,8c-2.1,2.1-5,3.3-8,3.3c0,0,0,0,0,0
		c-1.6,0-3.2-0.3-4.7-1l-39.1-17.7l-0.5,20.3l12,9.9c3.8,3,6.3,6.4,6.3,13.3v5.9c0.1,3.8-1.7,7.5-4.8,9.8
		C127.2,181.2,124.8,182,122.2,182z M70,170.3L70,170.3C70,170.3,70,170.3,70,170.3z M95.9,162.8l1.7,0.3l0.5,0.2l23.6,6.6
		c0.1,0,0.2,0,0.2,0.1v-6c0-2.5-0.2-2.6-1.8-3.9l-0.1-0.1l-16.5-13.6l1-44.3l54.7,24.8v-7.8c0-0.7-0.4-1.3-0.9-1.8l-0.2-0.1
		l-52.9-43.6l0.6-22.3c0.1-1.1,0.1-4.7,0.1-5.9c0-7.3-0.9-13.1-2.8-17.3C101.4,24.1,99,22,96,22c-7.4,0-10,12.6-10,23.4
		c0,1.2,0,4.8,0.1,5.9l0,0.2l0.6,22.2l-53.1,43.7c-0.6,0.4-0.9,1.1-0.9,1.8v7.8l54.7-24.8l0.7,44.5L71.7,160c-1,0.8-1.7,2.4-1.7,4
		v5.9l23.8-6.6l0.5-0.2L95.9,162.8z M93.8,163.3C93.8,163.3,93.8,163.3,93.8,163.3L93.8,163.3z"/>
</g>
</svg>
