<?xml version="1.0" encoding="utf-8"?>
<!-- Generator: $$$/GeneralStr/196=Adobe Illustrator 27.6.0, SVG Export Plug-In . SVG Version: 6.00 Build 0)  -->
<svg version="1.1" id="gabarit_circle_icons_black" xmlns="http://www.w3.org/2000/svg"
	 x="0px" y="0px" viewBox="0 0 192 192" style="enable-background:new 0 0 192 192;" xml:space="preserve">
<style type="text/css">
	.st0{fill-rule:evenodd;clip-rule:evenodd;}
</style>
<path class="st0" d="M130.8,86.5L89.1,60.4c-3.4-2.1-7.8-2.3-11.3-0.3c-3.6,2-5.8,5.7-5.8,9.8v52.2c0,4.1,2.2,7.8,5.8,9.8
	s7.9,1.9,11.3-0.3l41.7-26.1c3.3-2,5.2-5.6,5.2-9.5S134,88.6,130.8,86.5C130.8,86.5,130.8,86.5,130.8,86.5z M125.5,95.9
	c0,1.1-0.6,2.2-1.5,2.7l-36.6,22.9c-1,0.6-2.3,0.6-3.3,0s-1.7-1.7-1.7-2.9V72.9c0-1.2,0.6-2.3,1.7-2.9s2.3-0.5,3.3,0
	c0,0,35.1,21.8,36.6,22.9S125.5,95.9,125.5,95.9z"/>
<path d="M96,8.3C47.6,8.3,8.3,47.6,8.3,96s39.3,87.7,87.7,87.7s87.7-39.3,87.7-87.7S144.4,8.3,96,8.3z M96,170.8
	c-41.3,0-74.8-33.5-74.8-74.8S54.7,21.1,96,21.1s74.8,33.5,74.8,74.8S137.3,170.8,96,170.8L96,170.8z"/>
</svg>
