<?xml version="1.0" encoding="UTF-8"?>
<svg id="gabarit_circle_icons_black" xmlns="http://www.w3.org/2000/svg" viewBox="0 0 192 192">
  <path d="m154.576,79.27l-73.767-46.118c-6.05-3.783-13.73-4.001-20.013-.509-6.283,3.492-10.181,10.111-10.181,17.24v92.235c0,7.201,3.898,13.748,10.181,17.24,6.283,3.492,13.962,3.273,20.013-.509l73.767-46.118c5.759-3.564,9.25-9.893,9.25-16.73s-3.491-13.166-9.25-16.73h0Zm-6.981,11.129c1.92,1.164,3.083,3.273,3.083,5.528s-1.164,4.364-3.083,5.528l-73.767,46.19c-2.036,1.237-4.596,1.309-6.632.145-2.094-1.164-3.374-3.346-3.374-5.747V49.883c0-2.4,1.28-4.583,3.374-5.747s4.654-1.091,6.632.145l73.767,46.118Z" fill-rule="evenodd"/>
</svg>