<?xml version="1.0" encoding="utf-8"?>
<!-- Generator: Adobe Illustrator 27.6.1, SVG Export Plug-In . SVG Version: 6.00 Build 0)  -->
<svg version="1.1" id="gabarit_circle_icons_black" xmlns="http://www.w3.org/2000/svg"
	 x="0px" y="0px" viewBox="0 0 192 192" style="enable-background:new 0 0 192 192;" xml:space="preserve">
<path d="M107.4,107.3h53.2c6.4,0,11.4-5.1,11.4-11.4c0-6.4-5.1-11.4-11.4-11.4h-53.2V31.2c0-6.4-5.1-11.4-11.3-11.3
	c-6.4,0-11.4,5.1-11.4,11.4v53.2H31.4c-6.4,0-11.4,5.1-11.4,11.4c0,6.4,5.1,11.4,11.4,11.4h53.2v53.2c0,6.4,5.1,11.4,11.4,11.4
	c6.4,0,11.4-5.1,11.4-11.4L107.4,107.3L107.4,107.3z"/>
</svg>
