
<svg x="0px" y="0px"
	 viewBox="0 0 192 192" >
<g>
	<path d="M38.7,73.9c-3.6,0-6.6-3-6.6-6.6V38.7c0-3.6,3-6.6,6.6-6.6h28.7c3.6,0,6.6,3,6.6,6.6v28.7c0,3.6-3,6.6-6.6,6.6H38.7V73.9z
		 M45.3,60.8h15.5V45.3H45.3V60.8z M38.7,160c-3.6,0-6.6-3-6.6-6.6v-28.7c0-3.6,3-6.6,6.6-6.6h28.7c3.6,0,6.6,3,6.6,6.6v28.7
		c0,3.6-3,6.6-6.6,6.6H38.7z M45.3,146.8h15.5v-15.5H45.3V146.8z M124.6,160c-3.6,0-6.6-3-6.6-6.6s3-6.6,6.6-6.6h22.1V139
		c0-3.6,3-6.6,6.6-6.6c3.6,0,6.6,3,6.6,6.6v14.4c0,3.6-3,6.6-6.6,6.6H124.6z M124.6,73.9c-3.6,0-6.6-3-6.6-6.6V38.7
		c0-3.6,3-6.6,6.6-6.6h28.7c3.6,0,6.6,3,6.6,6.6v28.7c0,3.6-3,6.6-6.6,6.6h-28.7V73.9z M131.1,60.8h15.5V45.3h-15.5
		C131.1,45.3,131.1,60.8,131.1,60.8z M95.9,160c-3.6,0-6.6-3-6.6-6.6v-28.7c0-3.6,3-6.6,6.6-6.6s6.6,3,6.6,6.6v28.7
		C102.5,157,99.6,160,95.9,160z M81.6,102.7c-3.6,0-6.6-3-6.6-6.6c0-3.6,3-6.6,6.6-6.6h42.9c3.6,0,6.6,3,6.6,6.6
		c0,3.6-3,6.6-6.6,6.6C124.5,102.7,81.6,102.7,81.6,102.7z"/>
	<path d="M96,102.7c-3.7,0-6.6-3-6.6-6.6V81.7c0-3.7,3-6.6,6.6-6.6c3.7,0,6.6,3,6.6,6.6v14.4C102.6,99.7,99.7,102.7,96,102.7z
		 M124.7,131.3c-3.7,0-6.6-3-6.6-6.6V96.1c0-3.7,3-6.6,6.6-6.6c3.7,0,6.6,3,6.6,6.6v28.8C131.3,128.4,128.3,131.3,124.7,131.3z
		 M96,59.5c-3.7,0-6.6-3-6.6-6.6V38.6c0-3.7,3-6.6,6.6-6.6c3.7,0,6.6,3,6.6,6.6V53C102.6,56.7,99.7,59.5,96,59.5z M153.4,117.1
		c-3.7,0-6.6-3-6.6-6.6V96.1c0-3.7,3-6.6,6.6-6.6s6.6,3,6.6,6.6v14.4C160,114.1,157,117.1,153.4,117.1z M38.6,102.7
		c-3.7,0-6.6-3-6.6-6.6s3-6.6,6.6-6.6H53c3.7,0,6.6,3,6.6,6.6s-3,6.6-6.6,6.6H38.6z"/>
</g>
</svg>
