<?xml version="1.0" encoding="utf-8"?>
<!-- Generator: $$$/GeneralStr/196=Adobe Illustrator 27.6.0, SVG Export Plug-In . SVG Version: 6.00 Build 0)  -->
<svg version="1.1" id="gabarit_circle_icons_black" xmlns="http://www.w3.org/2000/svg"
	 x="0px" y="0px" viewBox="0 0 192 192" style="enable-background:new 0 0 192 192;" xml:space="preserve">
<g id="circle_icons">
	<path d="M158.2,33.8c-34.4-34.4-90-34.4-124.4,0c-34.4,34.3-34.4,90,0,124.4s90.1,34.4,124.5,0S192.6,68.3,158.2,33.8
		C158.2,33.9,158.2,33.8,158.2,33.8z M149.3,149.4c-29.5,29.5-77.2,29.5-106.7,0s-29.5-77.2,0-106.7s77.2-29.5,106.7,0
		C178.7,72.2,178.7,119.9,149.3,149.4z"/>
	<g>
		<path d="M122.1,76.8L122.1,76.8C119.8,64.2,108.8,55,96,55c-14.6,0-26.2,11.4-26.5,26c-0.1,2.9,1.6,5.4,4,6.2
			c1.6,0.6,3.7,0.3,5.3-0.7c1.7-1.1,2.7-2.8,2.9-4.9c0.8-7.5,5.3-13.1,11.6-14.4c7.8-1.4,15.3,3.7,16.7,11.4
			c0.9,5.8-1.4,10.4-7.4,14.5c-6.9,4.6-10.8,8.9-12.5,13.5c-1,3.3,0.7,6.7,4,7.7c0.6,0.1,1.2,0.2,1.7,0.2c3.1,0,4.7-2.1,5.8-3.7
			c0.2-0.3,0.4-0.6,0.6-0.9c1.1-1.7,1.9-2.9,7.3-6.5C119.6,96.9,124.1,87.4,122.1,76.8z"/>
		<path d="M96,121.4c-4.3,0-7.8,3.5-7.8,7.8c0,4.3,3.5,7.8,7.8,7.8s7.8-3.5,7.8-7.8S100.3,121.4,96,121.4z"/>
	</g>
</g>
</svg>
