
<svg viewBox="0 0 24 24">
<g>
	<path d="M18.9,12.2c-0.5-0.1-1,0.3-1.1,0.8c-0.2,1.3-0.8,2.4-1.7,3.4c-2.4,2.4-6.2,2.3-8.5,0c-2.3-2.4-2.3-6.2,0-8.5
		c0.9-0.9,2-1.5,3.2-1.7c0.5-0.1,1.1-0.1,1.7-0.1c0.8,0.1,1.6,0.4,2.3,0.8l-1.2,0.2c-0.5,0.1-0.8,0.6-0.8,1.1
		C12.9,8.6,13.3,9,13.8,9c0.1,0,0.1,0,0.2,0l3.2-0.6c0.2,0,0.5-0.2,0.6-0.4c0.1-0.2,0.2-0.4,0.2-0.7l-0.6-3.2
		c-0.1-0.5-0.6-0.8-1.1-0.8c-0.5,0.1-0.8,0.6-0.8,1.1l0.1,0.9c-0.9-0.5-1.9-0.8-2.9-1c-0.8-0.1-1.6-0.1-2.3,0.1
		c-1.6,0.3-3.1,1-4.2,2.2c-3.1,3.1-3.1,8.1,0,11.1c1.5,1.5,3.6,2.3,5.6,2.3c2,0,4-0.8,5.6-2.3c1.2-1.2,2-2.7,2.2-4.4
		C19.7,12.8,19.4,12.3,18.9,12.2z"/>
</g>
</svg>
