<?xml version="1.0" encoding="utf-8"?>
<!-- Generator: Adobe Illustrator 27.2.0, SVG Export Plug-In . SVG Version: 6.00 Build 0)  -->
<svg version="1.1" id="Calque_1" xmlns="http://www.w3.org/2000/svg" xmlns:xlink="http://www.w3.org/1999/xlink" x="0px" y="0px"
	 viewBox="0 0 192 192" style="enable-background:new 0 0 192 192;" xml:space="preserve">
<g>
	<path d="M56.1,44.9c0.4,0.4,0.8,0.9,1.1,1.3l25.3,25.3c2.9,3,2.9,7.6,0,10.6c-3,2.9-7.6,2.9-10.6,0L58.3,68.5v71.4
		c-0.1,4.1-3.4,7.2-7.5,7.3c0,0-0.1,0-0.1,0c0,0-0.1,0-0.1,0c0,0-0.1,0-0.1,0c0,0-0.1,0-0.1,0c-4-0.1-7.4-3.2-7.5-7.3V68.5
		L29.6,82.1c-3,2.9-7.6,2.9-10.6,0c-2.9-3-2.9-7.6,0-10.6l25.3-25.3c0.3-0.5,0.6-0.9,1.1-1.3c1.5-1.5,3.5-2.2,5.4-2.2
		C52.7,42.7,54.6,43.4,56.1,44.9z"/>
</g>
<g>
	<path d="M135.9,146.8c-0.4-0.4-0.8-0.9-1.1-1.3l-25.3-25.3c-2.9-3-2.9-7.6,0-10.6c3-2.9,7.6-2.9,10.6,0l13.5,13.6V51.8
		c0.1-4.1,3.4-7.2,7.5-7.3c0,0,0.1,0,0.1,0c0,0,0.1,0,0.1,0c0,0,0.1,0,0.1,0c0,0,0.1,0,0.1,0c4,0.1,7.4,3.2,7.5,7.3v71.4l13.5-13.6
		c3-2.9,7.6-2.9,10.6,0c2.9,3,2.9,7.6,0,10.6l-25.3,25.3c-0.3,0.5-0.6,0.9-1.1,1.3c-1.5,1.5-3.5,2.2-5.4,2.2
		C139.3,149,137.4,148.3,135.9,146.8z"/>
</g>
</svg>
