<?xml version="1.0" encoding="utf-8"?>
<!-- Generator: $$$/GeneralStr/196=Adobe Illustrator 27.6.0, SVG Export Plug-In . SVG Version: 6.00 Build 0)  -->
<svg version="1.1" id="gabarit_circle_icons_black" xmlns="http://www.w3.org/2000/svg"
	 x="0px" y="0px" viewBox="0 0 192 192" style="enable-background:new 0 0 192 192;" xml:space="preserve">
<path d="M158.2,33.8c-34.4-34.4-90-34.4-124.4,0c-34.4,34.3-34.4,90,0,124.4s90.1,34.4,124.5,0s34.4-89.9,0-124.3L158.2,33.8z
	 M149.3,149.4c-29.5,29.5-77.2,29.5-106.7,0s-29.5-77.2,0-106.7s77.2-29.5,106.7,0C178.7,72.2,178.7,119.9,149.3,149.4z"/>
<path d="M63.5,101.9H116l-14.8,14.8c-2.3,2.3-2.3,6,0,8.3s6,2.3,8.3,0l24.8-24.8c1.7-1.7,2.7-5.5,0-8.3l-24.8-25
	c-2.3-2.2-6-2.1-8.3,0.2c-2.1,2.2-2.2,5.8,0,8l14.6,14.8H63.4c-4.1,0-7.5,2.7-7.5,6s3.4,6,7.5,6L63.5,101.9z"/>
</svg>
