<?xml version="1.0" encoding="UTF-8"?>
<svg id="gabarit_circle_icons_black" xmlns="http://www.w3.org/2000/svg" viewBox="0 0 192 192">
  <g id="Groupe_151" data-name="Groupe 151">
    <path id="Tracé_58" data-name="Tracé 58" d="m163.566,39.306L98.28,4.515c-2.017-1.077-4.442-1.062-6.446.039L28.356,39.343c-2.169,1.192-3.516,3.471-3.514,5.945v49.248c.04,38.754,22.999,73.816,58.506,89.345l8.811,3.841c1.72.747,3.674.747,5.394,0l9.921-4.284c36.161-15.196,59.683-50.594,59.685-89.818v-48.334c0-2.504-1.382-4.804-3.592-5.98Zm-9.613,54.308c-.003,33.995-20.401,64.671-51.748,77.824l-.049.021-7.284,3.136-6.139-2.676c-30.762-13.449-50.657-43.821-50.694-77.395v-45.509l57.096-31.289,58.819,31.336v44.553Z"/>
    <path id="Tracé_59" data-name="Tracé 59" d="m131.075,77.835c-2.362-2.904-6.631-3.343-9.535-.981l-34.853,28.354-12.871-15.072c-2.43-2.846-6.708-3.183-9.554-.752-2.846,2.431-3.183,6.708-.752,9.554l17.169,20.104c2.389,2.799,6.575,3.179,9.429.856l39.989-32.53c2.902-2.36,3.342-6.627.981-9.529-.001-.001-.002-.003-.003-.004Z"/>
  </g>
</svg>