<?xml version="1.0" encoding="UTF-8"?>
<svg id="gabarit_circle_icons_black" xmlns="http://www.w3.org/2000/svg" viewBox="0 0 192 192">
  <path id="Tracé_92" data-name="Tracé 92" d="m179.263,34.638c-1.567-2.104-4.238-3.07-6.789-2.455L16.451,69.933c-3.514.852-5.673,4.391-4.821,7.905.428,1.767,1.572,3.276,3.157,4.167l57.673,32.389,14.206,64.344c.581,2.632,2.716,4.638,5.378,5.055.335.052.674.078,1.014.078,2.327,0,4.479-1.237,5.65-3.248L179.662,41.85c1.324-2.267,1.167-5.105-.399-7.212Zm-83.467,125.88l-10.491-47.522,22.51-16.74c2.923-2.231,3.483-6.41,1.252-9.332-2.192-2.871-6.273-3.471-9.198-1.352l-22.5,16.73-42.724-23.993,127.038-30.738-65.886,112.947Z"/>
</svg>