<svg viewBox="0 0 192 192">
<g >
	<path d="M110.3,184H81.4c-6.3,0.1-11.7-4.5-12.7-10.8l-1.6-9.3c-0.5-3-2.2-5.7-4.6-7.5c-2.4-1.8-5.4-2.5-8.4-2
		c-0.7,0.1-1.4,0.3-2.1,0.6l-9.1,3.4c-6,2.3-12.7-0.2-15.8-5.8l-14.4-25.5c-3.1-5.4-1.8-12.3,3.1-16.3l7.3-6.1
		c4.9-4,5.6-11.2,1.6-16.1l-0.2-0.2c-0.3-0.5-0.7-0.9-1.2-1.2L23,87.2L15.7,81c-4.8-4-6.1-10.9-3-16.3l14.7-25.3
		c3.2-5.4,9.7-7.8,15.6-5.7l9,3.3c5.9,2.2,12.4-0.8,14.6-6.7c0.1-0.2,0.2-0.4,0.3-0.6c0.2-0.6,0.3-1.2,0.4-1.8l1.6-9.3
		C70,12.4,75.5,7.8,81.8,8h28.7c6.4,0,11.8,4.6,12.7,10.9l1.6,9.4c0.9,6.1,6.6,10.4,12.8,9.4c0.1,0,0.2,0,0.2,0
		c0.7-0.1,1.4-0.3,2.1-0.6l9.1-3.4c6-2.3,12.7,0.2,15.8,5.8l14.6,25.2l0.2,0.3c2.7,5.5,1.3,12.1-3.4,16l-7.3,6.1
		c-4.9,4-5.6,11.2-1.6,16.1l0.2,0.2c0.3,0.5,0.7,0.9,1.2,1.2l0.2,0.2l7.3,6.2c4.8,4,6.1,10.9,3,16.3l-14.7,25.3
		c-3.2,5.4-9.7,7.8-15.6,5.7l-9-3.3c-2.8-1.1-6-1-8.7,0.3c-2.7,1.2-4.9,3.5-5.9,6.4c-0.1,0.2-0.2,0.4-0.3,0.6
		c-0.2,0.6-0.3,1.2-0.4,1.8l-1.6,9.3C121.9,179.6,116.5,184.1,110.3,184L110.3,184z M56,142.5c4.8,0,9.4,1.5,13.3,4.3
		c5,3.6,8.3,9,9.4,15.1l1.7,9.5c0.1,0.5,0.6,0.8,1,0.8h28.9c0.4,0,0.8-0.2,1-0.6l1.7-9.7c0.3-1.6,0.7-3.1,1.3-4.6
		c2.1-5.7,6.5-10.3,12-12.8c5.6-2.6,12-2.8,17.7-0.6l9,3.3c0.5,0.2,1.1,0,1.4-0.5l14.7-25.3c0.2-0.4,0.1-0.9-0.3-1.2l-7.3-6.1
		c-1.2-0.9-2.4-2.1-3.3-3.3c-8.1-9.9-6.6-24.5,3.2-32.6l7.3-6.2l0.1,0c0.4-0.4,0.5-0.9,0.4-1.4l-14.5-25.1c-0.2-0.5-0.8-0.7-1.3-0.5
		l-9.1,3.3c-7.2,2.8-15.4,1.8-21.6-2.7c-5-3.6-8.3-9-9.4-15.1l-1.7-9.5c0-0.1,0-0.2,0-0.2c-0.1-0.5-0.5-0.8-1-0.8H81.7h-0.4
		c-0.3,0.1-0.5,0.3-0.6,0.6L79,30.1c-0.3,1.6-0.7,3.1-1.3,4.6C73,46.6,59.8,52.6,47.9,48.2l-9-3.3c-0.5-0.2-1.1,0-1.4,0.5L22.9,70.7
		c-0.2,0.4-0.1,0.9,0.3,1.2l7.3,6.1c1.3,0.9,2.4,2.1,3.3,3.3c8,9.9,6.6,24.5-3.2,32.6l-7.3,6.2c-0.4,0.3-0.5,0.8-0.3,1.2L37.4,147
		c0.3,0.4,0.8,0.6,1.2,0.5l9.1-3.4c1.4-0.5,2.8-0.9,4.2-1.2C53.2,142.7,54.6,142.5,56,142.5L56,142.5z M96.1,129
		C77.8,129,63,114.2,63,95.9c0-18.3,14.8-33.2,33.1-33.2c18.3,0,33.1,14.8,33.1,33.2l0,0C129.2,114.2,114.4,129,96.1,129 M96.1,74.6
		c-11.8,0-21.3,9.5-21.3,21.3s9.5,21.3,21.3,21.3s21.3-9.5,21.3-21.3C117.3,84.1,107.8,74.6,96.1,74.6"/>
</g>
</svg>
