<?xml version="1.0" encoding="utf-8"?>
<!-- Generator: Adobe Illustrator 27.2.0, SVG Export Plug-In . SVG Version: 6.00 Build 0)  -->
<svg version="1.1" id="Calque_1" xmlns="http://www.w3.org/2000/svg" xmlns:xlink="http://www.w3.org/1999/xlink" x="0px" y="0px"
	 viewBox="0 0 192 192" style="enable-background:new 0 0 192 192;" xml:space="preserve">
<path d="M163.3,39.3l-4-2.1L111,11.4L98,4.5c-2-1.1-4.4-1.1-6.5,0l-13.2,7.3L32.5,36.9l-4.4,2.4c-2.2,1.2-3.5,3.5-3.5,5.9v49.2
	c0,20.9,6.7,40.7,18.4,56.9c10,13.9,23.7,25.2,40.1,32.4l4.4,1.9l4.4,1.9c1.7,0.8,3.7,0.8,5.4,0l4-1.7l5.9-2.6
	c16.7-7,30.8-18.4,41-32.5c11.9-16.3,18.7-36.3,18.7-57.3V45.3C166.9,42.8,165.5,40.5,163.3,39.3z M111,133.2
	c6.2,2.2,11.9,5.8,16.6,10.5c1.8,1.8,3.4,3.8,4.9,5.8c-8.2,9.3-18.6,16.9-30.6,21.9l0,0l-4.3,1.9l-2.9,1.3l-3.1-1.4l-3-1.3
	c-11.7-5.1-21.8-12.7-29.9-21.9C69.9,133.5,91.4,126,111,133.2z M67.8,89.7c0-15.4,12.5-27.9,27.9-27.9s27.9,12.5,27.9,27.9
	c0,15.4-12.5,27.9-27.9,27.9S67.8,105,67.8,89.7z M153.7,93.6c0,16.4-4.7,31.9-13.1,45.2c-5.6-6.9-12.8-12.4-21-16
	c18.3-13.1,22.5-38.6,9.4-56.9C115.8,47.5,90.3,43.3,72,56.5C53.8,69.5,49.5,95,62.7,113.3c2.6,3.6,5.7,6.7,9.3,9.3
	c-8.4,3.8-15.7,9.4-21.4,16.5c-8.2-13.1-12.8-28.5-12.8-44.6V49l2.3-1.2L83,24.2l11.9-6.5l11.6,6.2l45,24l2.2,1.2V93.6z"/>
</svg>
