<?xml version="1.0" encoding="utf-8"?>
<!-- Generator: Adobe Illustrator 28.1.0, SVG Export Plug-In . SVG Version: 6.00 Build 0)  -->
<svg version="1.1" id="Calque_1" xmlns="http://www.w3.org/2000/svg" xmlns:xlink="http://www.w3.org/1999/xlink" x="0px" y="0px"
	 viewBox="0 0 192 192" style="enable-background:new 0 0 192 192;" xml:space="preserve">
<g>
	<path d="M96,73.6c-27.7,0-50.1,22.4-50.1,50c0,4,3.2,7.1,7.1,7.1h85.9c4,0,7.1-3.2,7.1-7.1C146.1,95.9,123.7,73.6,96,73.6z
		 M61,116.4c4-19.3,22.8-31.7,42.2-27.9c14.1,2.9,25,13.8,27.9,27.9C131,116.4,61,116.4,61,116.4z"/>
	<path d="M96,59.3c4,0,7.1-3.2,7.1-7.1V37.8c0-4-3.2-7.1-7.1-7.1c-4,0-7.1,3.2-7.1,7.1v14.3C88.9,56.1,92,59.3,96,59.3z"/>
	<path d="M50.5,68L40.3,57.8c-2.8-2.8-7.2-2.9-10.2-0.1c-2.8,2.8-2.9,7.2-0.1,10.2l0.1,0.1l10.2,10.2c2.8,2.7,7.4,2.7,10.2-0.2
		C53.2,75.2,53.2,70.8,50.5,68z"/>
	<path d="M24.4,116.4H10.1c-4,0-7.1,3.2-7.1,7.1c0,4,3.2,7.1,7.1,7.1h14.3c4,0,7.1-3.2,7.1-7.1C31.7,119.6,28.4,116.4,24.4,116.4z"
		/>
	<path d="M181.9,116.4h-14.3c-4,0-7.1,3.2-7.1,7.1c0,4,3.2,7.1,7.1,7.1h14.3c4,0,7.1-3.2,7.1-7.1C189,119.6,185.8,116.4,181.9,116.4
		z"/>
	<path d="M161.7,57.9c-2.8-2.8-7.4-2.8-10.2,0l-10.2,10.2c-2.7,2.8-2.7,7.3,0.2,10.2c2.8,2.7,7.1,2.7,9.9,0l10.2-10.2
		C164.6,65.3,164.6,60.7,161.7,57.9z"/>
</g>
</svg>
