<?xml version="1.0" encoding="utf-8"?>
<!-- Generator: Adobe Illustrator 27.2.0, SVG Export Plug-In . SVG Version: 6.00 Build 0)  -->
<svg version="1.1" id="Calque_1" xmlns="http://www.w3.org/2000/svg" xmlns:xlink="http://www.w3.org/1999/xlink" x="0px" y="0px"
	 viewBox="0 0 192 192" style="enable-background:new 0 0 192 192;" xml:space="preserve">
<g>
	<g id="Groupe_795">
		<path id="Tracé_326" d="M188.5,118.7c-2-5.7-5.2-10.8-9.5-15.1c-2.1-2-4.3-3.9-6.8-5.4c11.1-12.2,10.2-31-1.9-42.1
			c-11.3-10.3-28.6-10.4-40-0.2C121.8,37,99.5,28.5,80.6,37.1c-8.4,3.8-15.1,10.5-18.8,18.8c-12.2-11-31.1-10-42.1,2.2
			C9.4,69.6,9.5,86.9,19.8,98.2c-7.5,4.8-13.3,12-16.3,20.4l-2.3,6.4c-0.5,1.4,0,3,1.2,3.8c0,0,20,14.3,39.4,14.3h0.1
			c1.5,0,3-0.1,4.4-0.2l4.2,2.9c13.4,9.2,29.3,14.2,45.6,14.1h0.1c16.2,0,32.1-4.9,45.5-14.1l4.2-2.9c1.5,0.1,3,0.2,4.5,0.2h0.1
			c20.4,0,39.2-14.3,39.2-14.3c1.2-0.8,1.7-2.4,1.2-3.8L188.5,118.7z M150.3,60.4c9.8,0,17.7,7.9,17.7,17.6s-7.9,17.7-17.6,17.7
			c-9,0-16.6-6.8-17.6-15.8c-0.1-0.6-0.1-1.3-0.1-1.9C132.6,68.3,140.5,60.4,150.3,60.4C150.2,60.4,150.3,60.4,150.3,60.4
			 M128.3,98.2c-2.3,1.5-4.4,3.2-6.4,5c-1.1-0.6-2.2-1.2-3.3-1.7c2.6-2,4.9-4.2,6.9-6.8C126.4,96,127.3,97.1,128.3,98.2 M96,45.9
			c13.6,0,24.8,10.7,25.5,24.3c0,0.4,0,0.8,0,1.2c0,14.1-11.5,25.5-25.6,25.4c-11.3,0-21.2-7.4-24.4-18.2c-0.7-2.4-1.1-4.8-1.1-7.3
			c0-0.4,0-0.8,0-1.2C71.2,56.6,82.4,45.9,96,45.9 M70.2,103.3c-2-1.9-4.1-3.6-6.4-5.1c1-1.1,1.9-2.2,2.7-3.4c2,2.6,4.4,4.9,7,6.8
			C72.4,102.1,71.2,102.6,70.2,103.3 M41.8,60.4c9.7,0,17.7,7.9,17.7,17.6c0,0,0,0,0,0.1c0,0.6,0,1.2-0.1,1.8l0,0
			c-1,9.7-9.7,16.8-19.4,15.8c-9.7-1-16.8-9.7-15.8-19.4C25.1,67.3,32.7,60.4,41.8,60.4 M41.8,131.1c-8.6,0-17.1-2.3-24.4-6.8
			c-1.4-0.9-2-2.7-1.3-4.2c6.2-13.1,21.5-19.6,35.4-14.6c3.1,1.1,6.1,2.8,8.6,4.9c-6.2,5.6-10.9,12.6-13.9,20.4
			C44.8,131,43.3,131.1,41.8,131.1 M96.1,147.9c-11.6,0-23-2.9-33.1-8.6c-1.1-0.6-2.2-1.3-3.3-1.9c-1.4-0.9-1.9-2.6-1.3-4.1
			c1.1-2.4,2.3-4.7,3.8-6.8c1.6-2.3,3.3-4.4,5.3-6.3c11.3-10.8,27.8-14.3,42.5-9c1.5,0.5,3,1.2,4.5,1.9c3.7,1.8,7.1,4.2,10,7.1
			c0.2,0.2,0.4,0.4,0.6,0.6c3.6,3.6,6.5,7.9,8.5,12.6c0.6,1.5,0.1,3.2-1.3,4.1c-1.1,0.7-2.2,1.3-3.3,1.9
			C119,145,107.6,147.9,96.1,147.9 M150.3,131.1c-1.5,0-3-0.1-4.4-0.2c-2.6-7-6.8-13.4-12-18.7c-0.6-0.6-1.1-1.1-1.7-1.6
			c11.3-9.4,28-8.7,38.4,1.7c2.3,2.3,4.1,4.9,5.5,7.8c0.7,1.5,0.2,3.4-1.2,4.3C167.4,128.8,158.9,131.1,150.3,131.1"/>
	</g>
</g>
</svg>
