<?xml version="1.0" encoding="utf-8"?>
<!-- Generator: $$$/GeneralStr/196=Adobe Illustrator 27.6.0, SVG Export Plug-In . SVG Version: 6.00 Build 0)  -->
<svg version="1.1" id="gabarit_circle_icons_black" xmlns="http://www.w3.org/2000/svg"
	 x="0px" y="0px" viewBox="0 0 192 192" style="enable-background:new 0 0 192 192;" xml:space="preserve">
<path d="M158.2,33.8c-34.4-34.4-90-34.4-124.4,0c-34.4,34.3-34.4,90,0,124.4s90.1,34.4,124.5,0s34.4-89.9,0-124.3L158.2,33.8z
	 M149.3,149.4c-29.5,29.5-77.2,29.5-106.7,0s-29.5-77.2,0-106.7s77.2-29.5,106.7,0C178.7,72.2,178.7,119.9,149.3,149.4z"/>
<path d="M90.1,128.5V76L75.3,90.8c-2.3,2.3-6,2.3-8.3,0s-2.3-6,0-8.3l24.8-24.8c1.7-1.7,5.5-2.7,8.3,0l25,24.8
	c2.2,2.3,2.1,6-0.2,8.3c-2.2,2.1-5.8,2.2-8,0l-14.8-14.6v52.4c0,4.1-2.7,7.5-6,7.5s-6-3.4-6-7.5L90.1,128.5z"/>
</svg>
