<?xml version="1.0" encoding="UTF-8"?>
<svg id="gabarit_circle_icons_black" xmlns="http://www.w3.org/2000/svg" viewBox="0 0 192 192">
  <path d="m123.13,60.358c-.034-.035-.069-.07-.102-.105l-20.74-21.175v60.021c0,3.472-2.814,6.286-6.286,6.286s-6.286-2.814-6.286-6.286v-59.993l-20.618,21.148c-2.444,2.465-6.424,2.481-8.888.037-.012-.012-.025-.024-.037-.037v.127c-2.465-2.444-2.481-6.424-.037-8.888l.037-.037,31.428-32.185c2.542-2.395,6.51-2.395,9.052,0l31.428,32.182c2.459,2.471,2.449,6.468-.022,8.928-2.471,2.459-6.468,2.449-8.928-.022Z"/>
  <path d="m95.567,174.527c-45.13,0-87.567-36.585-87.567-81.715,0-3.472,2.814-6.286,6.286-6.286s6.286,2.814,6.286,6.286c.005,38.182,36.812,69.132,74.994,69.133,38.183,0,75.856-30.951,75.861-69.133,0-3.472,2.814-6.286,6.286-6.286s6.286,2.814,6.286,6.286c0,45.13-43.303,81.715-88.433,81.715Z"/>
</svg>