<?xml version="1.0" encoding="UTF-8"?>
<svg id="gabarit_circle_icons_black" xmlns="http://www.w3.org/2000/svg" viewBox="0 0 192 192">
  <g id="circle_icons">
    <g>
      <path d="m36.234,141.477c.126.165.258.327.386.491.573.741,1.157,1.472,1.756,2.19.474.565.964,1.121,1.458,1.676.271.306.537.617.813.919.823.894,1.667,1.776,2.542,2.639,5.819-12.843,16.118-23.126,28.969-28.925-3.583-2.581-6.723-5.727-9.297-9.315-13.138-18.307-8.948-43.798,9.359-56.936,18.307-13.138,43.798-8.948,56.936,9.359,13.138,18.307,8.948,43.798-9.359,56.936,12.887,5.748,23.201,16.047,28.969,28.925,14.293-14.113,22.331-33.367,22.317-53.454-.029-41.448-33.653-75.024-75.101-74.995l-.009-.003c-20.093-.022-39.356,8.017-53.472,22.317-7.225,7.319-12.633,15.749-16.236,24.731-.059.149-.118.298-.176.447-.355.901-.688,1.809-1.006,2.721-.122.352-.241.704-.358,1.058-.24.722-.468,1.446-.686,2.173-.167.562-.327,1.127-.481,1.695-.146.533-.288,1.068-.422,1.604-.196.792-.38,1.589-.552,2.39-.07.325-.141.649-.207.975-.212,1.061-.406,2.13-.573,3.207-.012.075-.025.15-.036.225-.565,3.721-.86,7.531-.86,11.409,0,17.115,5.713,32.889,15.326,45.541Z" opacity=".5"/>
      <path d="m165.165,41.531C135.12,3.332,79.798-3.278,41.599,26.767,3.4,56.812-3.21,112.135,26.835,150.334c4.332,5.507,9.306,10.478,14.816,14.805l-.003.006c.412.4.874.746,1.374,1.029,31.308,23.876,74.718,23.857,106.005-.047.502-.28.964-.626,1.374-1.029,38.199-30.045,44.809-85.368,14.764-123.567ZM21.767,84.527c.012-.075.025-.15.036-.225.168-1.072.358-2.141.573-3.207.066-.325.137-.65.207-.975.172-.799.353-1.596.552-2.39.134-.536.276-1.07.422-1.604.155-.566.313-1.131.481-1.695.218-.727.445-1.452.686-2.173.118-.353.235-.706.358-1.058.319-.912.652-1.819,1.006-2.721.059-.149.116-.298.176-.447,3.604-8.982,9.012-17.412,16.236-24.731,14.116-14.3,33.378-22.34,53.472-22.317l.009.003c41.448-.029,75.072,33.547,75.101,74.995.014,20.086-8.024,39.34-22.317,53.454-5.768-12.878-16.082-23.177-28.969-28.925,18.307-13.138,22.497-38.629,9.359-56.936-13.138-18.307-38.629-22.497-56.936-9.359-18.307,13.138-22.497,38.629-9.359,56.936,2.575,3.588,5.715,6.733,9.297,9.315-12.852,5.799-23.151,16.082-28.969,28.925-.874-.863-1.719-1.745-2.542-2.639-.278-.302-.541-.613-.813-.919-.494-.554-.983-1.11-1.458-1.676-.604-.72-1.183-1.453-1.756-2.19-.128-.164-.259-.326-.386-.491-12.67-16.58-17.501-37.243-14.467-56.95Zm46.317,2.981c0-15.407,12.49-27.896,27.896-27.896s27.896,12.489,27.896,27.896-12.489,27.896-27.896,27.896c-15.394-.029-27.867-12.502-27.896-27.896Zm27.896,83.688c-15.125.02-29.898-4.56-42.36-13.131,8.444-23.417,34.273-35.555,57.69-27.111,6.222,2.244,11.875,5.83,16.556,10.503,4.67,4.69,8.233,10.364,10.43,16.608-12.445,8.571-27.205,13.151-42.316,13.131Z"/>
    </g>
  </g>
</svg>