<?xml version="1.0" encoding="utf-8"?>
<!-- Generator: Adobe Illustrator 27.2.0, SVG Export Plug-In . SVG Version: 6.00 Build 0)  -->
<svg version="1.1" id="Calque_1" xmlns="http://www.w3.org/2000/svg" xmlns:xlink="http://www.w3.org/1999/xlink" x="0px" y="0px"
	 viewBox="0 0 192 192" style="enable-background:new 0 0 192 192;" xml:space="preserve">
<g>
	<g>
		<path d="M154.2,147c-10.2,0-18.5,8.3-18.5,18.5S144,184,154.2,184s18.5-8.3,18.5-18.5S164.4,147,154.2,147z M162.1,165.5
			c0,4.4-3.6,7.9-7.9,7.9s-7.9-3.6-7.9-7.9s3.6-7.9,7.9-7.9S162.1,161.1,162.1,165.5z"/>
		<path d="M191.1,148.9c-6.6-9.2-18.3-20.2-37-20.2c-18.7,0-30.4,11-37,20.3c-0.8,1.2-1.1,2.7-0.8,4.1c0.3,1.4,1.2,2.6,2.4,3.4
			c0.9,0.5,1.8,0.8,2.8,0.8c1.7,0,3.3-0.8,4.4-2.2c5-7.2,14-15.8,28.3-15.8c14.2,0,23.2,8.6,28.2,15.7c1.6,2.3,4.8,3,7.1,1.5
			c1.2-0.8,2.1-2,2.4-3.4C192.3,151.6,192,150.1,191.1,148.9z"/>
	</g>
</g>
<path d="M110.3,169.8c-4.7,0.9-9.5,1.4-14.3,1.4c-15.1,0-29.9-4.6-42.4-13.1c8.4-23.4,34.3-35.6,57.7-27.1c1.1,0.4,2.2,0.9,3.3,1.3
	c2,0.9,4.4,0.7,6.2-0.6l0.2-0.2c3.9-2.9,3.4-8.9-1.1-10.9c-0.1,0-0.2-0.1-0.2-0.1c19.1-13.6,22.8-40.8,7.7-59.2
	C114.7,45.9,92,42.1,74.8,52.6C54.4,65.1,49.2,92,62.9,111.2c2.6,3.6,5.7,6.7,9.3,9.3c-12.9,5.8-23.2,16.1-29,28.9
	c-29.5-29.1-29.8-76.6-0.7-106.1C56.6,29,75.9,21,96,21c41.4,0,75.1,33.5,75.1,75c0,7.4-1.1,14.7-3.2,21.6c-1.2,4.1,1.9,8.2,6.2,8.2
	h0.1c2.8,0,5.3-1.8,6.1-4.5c8-26.5,3.4-56.4-15-79.9C135.1,3.3,79.8-3.3,41.6,26.8s-44.8,85.4-14.8,123.6
	c4.4,5.4,9.3,10.4,14.8,14.7c0.4,0.4,0.9,0.7,1.4,1c20.3,15.5,45.8,21,69.7,16.3c3-0.6,5.2-3.2,5.2-6.3V176
	C117.9,172,114.2,169,110.3,169.8z M68.1,87.5c0-15.4,12.5-27.9,27.9-27.9s27.9,12.5,27.9,27.9s-12.5,27.9-27.9,27.9
	S68.1,102.9,68.1,87.5z"/>
</svg>
