<?xml version="1.0" encoding="utf-8"?>
<!-- Generator: Adobe Illustrator 27.2.0, SVG Export Plug-In . SVG Version: 6.00 Build 0)  -->
<svg version="1.1" id="Calque_1" xmlns="http://www.w3.org/2000/svg" xmlns:xlink="http://www.w3.org/1999/xlink" x="0px" y="0px"
	 viewBox="0 0 192 192" style="enable-background:new 0 0 192 192;" xml:space="preserve">
<g>
	<path d="M74.8,52.6c-20.4,12.5-25.6,39.4-11.9,58.6c2.6,3.6,5.7,6.7,9.3,9.3c-12.9,5.8-23.2,16.1-29,28.9
		c-29.5-29.1-29.8-76.6-0.7-106.1C56.6,29,75.9,21,96,21c41.4,0,75.1,33.5,75.1,75c0,2.6-0.1,5.3-0.4,7.9c-0.4,3.8,2.6,7.1,6.4,7.1
		h0c3.3,0,6.1-2.5,6.4-5.8c2.3-22-3.6-44.9-18.3-63.7C135.1,3.3,79.8-3.3,41.6,26.8C3.4,56.9-3.2,112.2,26.8,150.4
		c4.4,5.4,9.3,10.4,14.8,14.7c0.4,0.4,0.9,0.7,1.4,1c20.3,15.5,45.8,21,69.7,16.3c3-0.6,5.2-3.2,5.2-6.3V176c0-4-3.6-7-7.6-6.2
		c-4.7,0.9-9.5,1.4-14.3,1.4c-15.1,0-29.9-4.6-42.4-13.1c8.4-23.4,34.3-35.6,57.7-27.1c1.1,0.4,2.2,0.9,3.3,1.3
		c2,0.9,4.4,0.7,6.2-0.6l0.2-0.2c4-2.9,3.3-9.1-1.3-11c0,0,0,0,0,0c19.1-13.6,22.8-40.8,7.7-59.2C114.7,45.9,92,42.1,74.8,52.6z
		 M96,115.4c-15.4,0-27.9-12.5-27.9-27.9S80.6,59.6,96,59.6s27.9,12.5,27.9,27.9S111.4,115.4,96,115.4z"/>
	<g>
		<path d="M188.9,127l-25.5-13.6c-1.5-0.8-3.2-0.8-4.7,0l-24.8,13.6c-1.6,0.9-2.6,2.5-2.6,4.3v19.2c0,16,9.5,30.5,24.2,37l3.4,1.5
			c0.6,0.3,1.3,0.4,2,0.4c0.7,0,1.3-0.1,2-0.4l3.9-1.7c15-6.3,24.7-20.9,24.7-37.2v-18.9C191.5,129.5,190.5,127.9,188.9,127z
			 M181.8,134.2l0,16c0,12.4-7.4,23.5-18.8,28.3l-1.9,0.8l-1.5-0.6c-11.2-4.9-18.4-15.9-18.4-28.1v-16.4l20-11L181.8,134.2z"/>
		<path d="M153.7,161.6c1,1.1,2.4,1.7,3.7,1.7c1.1,0,2.2-0.4,3.1-1.1l15.6-12.7c2-1.7,2.4-4.6,0.9-6.7l-0.2-0.2
			c-1.7-2.1-4.8-2.4-6.9-0.7l-11.9,9.7l-3.6-4.2c-1.8-2.1-4.9-2.3-6.9-0.5c-1,0.9-1.6,2-1.7,3.4s0.3,2.6,1.2,3.6L153.7,161.6z"/>
	</g>
</g>
</svg>
