<?xml version="1.0" encoding="UTF-8"?>
<!--suppress XmlHighlighting, XmlHighlighting -->
<svg id="gabarit_circle_icons_black" xmlns="http://www.w3.org/2000/svg" viewBox="0 0 192 192">
  <path id="Tracé_61" d="m122.4,95.7h-26.4v-36.5c0-3.4-2.7-6.1-6.1-6.1s-6.1,2.7-6.1,6.1h0v42.6c0,3.4,2.7,6.1,6.1,6.1h32.5c3.4,0,6.1-2.7,6.1-6.1s-2.7-6.1-6.1-6.1Z"/>
  <path d="m96,8.287C47.558,8.287,8.287,47.558,8.287,96s39.271,87.714,87.713,87.714,87.713-39.271,87.713-87.714S144.443,8.287,96,8.287Zm0,162.563c-41.339,0-74.85-33.511-74.85-74.85S54.662,21.15,96,21.15s74.85,33.511,74.85,74.85-33.511,74.85-74.85,74.85h0Z"/>
</svg>