<?xml version="1.0" encoding="utf-8"?>
<!-- Generator: Adobe Illustrator 28.1.0, SVG Export Plug-In . SVG Version: 6.00 Build 0)  -->
<svg version="1.1" id="Calque_1" xmlns="http://www.w3.org/2000/svg" xmlns:xlink="http://www.w3.org/1999/xlink" x="0px" y="0px"
	 viewBox="0 0 192 192" style="enable-background:new 0 0 192 192;" xml:space="preserve">
<style type="text/css">
	.st0{fill-rule:evenodd;clip-rule:evenodd;}
</style>
<g>
	<g>
		<path d="M28.3,147.2c-3.8,0-8.6-1.2-11.8-6.8c-5-8.6,0.9-15.1,3.1-17.6c1.8-2,4.2-4.2,7.6-6.9c5-4.1,12.2-9.3,21.2-15.4
			c8.1-5.5,18-11.9,25.2-16.5c0.4-8.5,1.1-20.2,1.9-29.9l0,0c0.9-10.8,1.9-19.5,2.9-25.9c0.7-4.2,1.5-7.4,2.3-9.9
			c1.1-3.1,3.9-11.4,13.9-11.4c10,0,12.8,8.3,13.9,11.4c0.8,2.5,1.6,5.7,2.3,9.9c1.1,6.3,2,15,2.9,25.9c0.8,9.7,1.5,21.3,1.9,29.9
			c7.3,4.6,17.1,11,25.2,16.5c9.1,6.2,16.2,11.4,21.2,15.4c3.3,2.7,5.8,5,7.6,6.9c2.2,2.5,8.1,9,3.1,17.6c-5,8.6-13.7,6.8-16.9,6.2
			c-2.6-0.5-5.8-1.5-9.9-3c-6.1-2.3-14.2-5.8-24.1-10.4c-8.9-4.2-19.4-9.4-27.1-13.3c-7.7,3.9-18.2,9.2-27.1,13.3
			c-9.9,4.7-18.1,8.2-24.1,10.4c-4,1.5-7.2,2.5-9.8,3C32.2,146.9,30.4,147.2,28.3,147.2z M94.4,105.6l3,1.5
			c7.6,3.9,19.7,10,29.6,14.6c9.6,4.5,17.4,7.9,23.2,10c3.3,1.2,6,2.1,7.9,2.4c1.9,0.4,2.7,0.4,3,0.3c0.1-0.1,0.1-0.2,0.3-0.4
			s0.2-0.3,0.2-0.4c-0.1-0.3-0.5-0.9-1.8-2.4c-1.3-1.4-3.3-3.3-6.1-5.5c-4.8-3.9-11.6-8.8-20.4-14.8c-9.1-6.2-20.4-13.5-27.6-18
			l-2.8-1.8l-0.1-3.3c-0.4-8.5-1.1-21.9-2-32.7c-0.9-10.5-1.8-18.8-2.8-24.8c-0.6-3.5-1.2-6.2-1.8-8c-0.6-1.8-1-2.5-1.2-2.7
			c-0.2,0-0.8,0-0.9,0c-0.2,0.2-0.6,0.9-1.2,2.7c-0.6,1.8-1.2,4.5-1.8,8c-1,6-1.9,14.3-2.8,24.8c-0.9,10.8-1.6,24.2-2,32.7L86,91.2
			l-2.8,1.8c-7.2,4.5-18.6,11.9-27.6,18c-8.8,6-15.6,11-20.4,14.8c-2.8,2.2-4.8,4.1-6.1,5.5c-1.3,1.4-1.7,2.1-1.8,2.4
			c0,0.1,0.1,0.2,0.2,0.4c0.1,0.2,0.2,0.3,0.3,0.4c0.3,0,1.1,0.1,3-0.3c1.9-0.4,4.6-1.2,7.9-2.4c5.7-2.1,13.5-5.5,23.2-10
			c9.9-4.7,22-10.7,29.6-14.6L94.4,105.6z"/>
	</g>
</g>
<g>
	<path class="st0" d="M85.4,186.9l2.8-53.6c2.4-1.2,4-2.4,6.2-3.5c2.2,1.1,4.8,2.4,7.2,3.5l2.8,53.6l-18.9,0L85.4,186.9z"/>
</g>
</svg>
