<svg xml:space="preserve" style="enable-background:new 0 0 256 256" viewBox="0 0 256 256">
  <path d="M24.9 213.6a17.3 17.3 0 1 0 0 34.6 17.3 17.3 0 1 0 0-34.6zm32.8-15.3c.1 0 .1 0 0 0 4.9 4.8 10.9 8.4 17.7 10.2 2.8.8 5.6 1 8.5 1.2 3.5.3 7.3.6 10.6 2 2.8 1.2 5.2 3 7.2 5.2 1.6 1.7 2.9 3.7 3.8 5.8 1.2 2.8 1.9 5.8 1.9 8.8 0 6-2.4 11.4-6.3 15.3-1.8 1.8-3.8 3.2-6.1 4.3-2.8 1.3-5.8 2-9.1 2-3 0-6-.6-8.8-1.9-2.1-.9-4.1-2.2-5.8-3.8-2.2-2-4-4.5-5.2-7.2-1.4-3.3-1.7-7.1-2-10.6-.2-2.9-.4-5.7-1.2-8.5-1.8-6.8-5.4-12.8-10.2-17.6l-.1-.1-.1-.1c-4.8-4.8-10.8-8.3-17.6-10.2-2.8-.8-5.6-1-8.5-1.2-3.5-.3-7.3-.6-10.6-2-2.8-1.2-5.2-3-7.2-5.2-1.6-1.7-2.9-3.7-3.8-5.8-1.2-2.8-1.9-5.8-1.9-8.8 0-6 2.4-11.4 6.3-15.3 1.8-1.8 3.8-3.2 6.1-4.3 2.8-1.3 5.8-2 9.1-2 3 0 6 .6 8.8 1.9 2.1.9 4.1 2.2 5.8 3.8 2.2 2 4 4.5 5.2 7.2 1.4 3.3 1.7 7.1 2 10.6.2 2.9.4 5.7 1.2 8.5 1.8 6.8 5.4 12.8 10.2 17.6.1.1.1.1.1.2zm89.4-181.2c7 0 13.6 2.7 18.6 7.7l65.6 65.6c5 5 7.7 11.6 7.7 18.6 0 7-2.7 13.6-7.7 18.6l-65.6 65.6c-5 5-11.6 7.7-18.6 7.7s-13.6-2.7-18.6-7.7l-65.6-65.6c-5-5-7.7-11.6-7.7-18.6 0-7 2.7-13.6 7.7-18.6l65.6-65.6c5-5 11.5-7.7 18.6-7.7m0-14.1c-10.3 0-20.6 3.9-28.5 11.8L52.9 80.4c-15.8 15.8-15.8 41.3 0 57.1l65.6 65.6c7.9 7.9 18.2 11.8 28.5 11.8s20.6-3.9 28.5-11.8l65.6-65.6c15.8-15.8 15.8-41.3 0-57.1l-65.6-65.6C167.7 6.9 157.4 3 147.1 3z"/>
  <path d="M183.1 95.4h-24.3v64.3h-23.6V95.4H111V73.7h72.2v21.7z"/>
</svg>
