<svg xml:space="preserve" style="enable-background:new 0 0 256 256" viewBox="0 0 256 256">
  <path d="M25 212.5a18 18 0 1 0 0 36 18 18 0 1 0 0-36zm34.6-16.4s0 .1 0 0c5.1 5 11.4 8.8 18.4 10.7 2.9.8 5.8 1 8.8 1.2 3.7.3 7.6.6 11 2 2.9 1.2 5.4 3.1 7.5 5.4 1.6 1.8 3 3.8 4 6.1 1.3 2.9 1.9 6 1.9 9.2 0 6.2-2.5 11.8-6.6 15.9-1.8 1.8-4 3.3-6.3 4.5-2.9 1.3-6.1 2.1-9.5 2.1-3.1 0-6.3-.7-9.2-1.9-2.2-1-4.3-2.3-6.1-4-2.3-2.1-4.2-4.7-5.4-7.5-1.4-3.4-1.7-7.4-2-11-.2-3-.4-5.9-1.2-8.8-1.9-7-5.6-13.3-10.6-18.3l-.1-.1-.1-.1c-5-5-11.3-8.7-18.3-10.6-2.9-.8-5.8-1-8.8-1.2-3.7-.3-7.6-.6-11-2-2.9-1.2-5.4-3.1-7.5-5.4-1.6-1.8-3-3.8-4-6.1-1.3-2.9-1.9-6-1.9-9.1 0-6.2 2.5-11.8 6.6-15.9 1.8-1.8 4-3.3 6.3-4.5 2.9-1.3 6.1-2.1 9.5-2.1 3.1 0 6.3.7 9.2 1.9 2.2 1 4.3 2.3 6.1 4 2.3 2.1 4.2 4.7 5.4 7.5 1.4 3.4 1.7 7.4 2 11 .2 3 .4 5.9 1.2 8.8 1.9 6.9 5.6 13.2 10.7 18.3-.1-.1-.1 0 0 0zm88.7-113.6c-12.1 0-20.1 9.3-20.1 20.5 0 11 8 20.3 20.1 20.3 12.1 0 20.1-9.3 20.1-20.3 0-11.2-8-20.5-20.1-20.5z"/>
  <path d="M152.1 3.1C96.6 3.1 51.6 48 51.6 103.5c0 55.4 45 100.4 100.5 100.4S252.6 159 252.6 103.5c0-55.5-45-100.4-100.5-100.4zm54.8 152.7H171V148c-6.8 7-16.3 11-28.5 11-30.9 0-51.8-25.4-51.8-56.2 0-30.6 25.2-56 58.1-56 33.8 0 58.2 23.7 58.2 56l-.1 53z"/>
</svg>
