<svg xml:space="preserve" style="enable-background:new 0 0 512 512" viewBox="0 0 512 512">
  <path d="M464.9 433.8c-13.6 0-19.5-2.9-27.6-7-2.7-1.3-5.4-2.7-8.4-4l42.8-112.7c3.7-9.8 3.1-20.8-1.7-30.1s-13.4-16.2-23.6-18.9l-27.9-7.3v-88.3c0-20.8-16.9-37.6-37.6-37.6h-56.5V97.5c0-28.4-23.1-51.6-51.6-51.6h-33.5c-28.4 0-51.6 23.1-51.6 51.6V128h-56.5c-20.8 0-37.6 16.9-37.6 37.6v88.3l-27.9 7.3c-10.2 2.7-18.8 9.5-23.6 18.9-4.8 9.3-5.4 20.3-1.7 30.1l42.8 112.7c-3.1 1.3-5.9 2.7-8.4 4-8.1 4.1-14 7-27.6 7-8.9 0-16.1 7.2-16.1 16.1s7.1 16 16 16c21.2 0 32.2-5.5 42-10.4 8.1-4.1 14-7 27.6-7 13.6 0 19.5 2.9 27.6 7 9.8 4.9 20.8 10.4 42 10.4s32.2-5.5 42-10.4c8.1-4.1 14-7 27.6-7 13.6 0 19.5 2.9 27.6 7 9.7 4.9 20.8 10.4 42 10.4s32.2-5.5 42-10.4c8.1-4.1 14-7 27.6-7 13.6 0 19.5 2.9 27.6 7 9.7 4.9 20.8 10.4 42 10.4 8.9 0 16.1-7.2 16.1-16.1.2-8.9-7-16.1-15.9-16.1zM239.3 78.2h33.5c10.7 0 19.3 8.7 19.3 19.3V128H220V97.5c-.1-10.6 8.6-19.3 19.3-19.3zm146.9 167.2-126.2-33c-2.7-.7-5.5-.7-8.2 0l-126.2 33v-79.8c0-3 2.4-5.4 5.4-5.4h249.7c3 0 5.4 2.4 5.4 5.4v79.8zm-31.6 184.2-1.4-2.8c-8.1 4.1-14 7-27.6 7-13.6 0-19.5-2.9-27.6-7-9.7-4.9-20.8-10.4-42-10.4s-32.2 5.5-42 10.4c-8.1 4.1-14 7-27.6 7-13.6 0-19.5-2.9-27.6-7-9.8-4.9-20.8-10.4-42-10.4h-1.5L70.5 298.7c-.6-1.7-.2-3 .2-3.9.4-.9 1.3-2 3.1-2.4L256 244.7l182.2 47.6c1.7.4 2.6 1.6 3 2.4.4.9.8 2.2.2 3.9l-44.8 117.7h-1.5c-21.2 0-32.2 5.5-42 10.4l1.5 2.9z"/>
</svg>
