<svg viewBox="0 0 192 192">
  <path d="M167.162 173.929H24.839c-9.166-.033-16.588-7.455-16.619-16.621V61.803c.033-9.165 7.454-16.587 16.619-16.619h25.983l7.139-21.535a19.838 19.838 0 0 1 18.844-13.577h38.332a19.837 19.837 0 0 1 18.844 13.577l7.198 21.535h25.983c9.165.033 16.587 7.454 16.619 16.619v95.505c-.032 9.165-7.454 16.587-16.619 16.619v.002ZM24.839 56.887a4.916 4.916 0 0 0-4.916 4.916v95.505a4.916 4.916 0 0 0 4.916 4.916h142.323a4.916 4.916 0 0 0 4.916-4.916V61.803a4.916 4.916 0 0 0-4.916-4.916h-27.271a9.948 9.948 0 0 1-9.421-6.788l-7.549-22.472a8.136 8.136 0 0 0-7.725-5.853H76.805a8.136 8.136 0 0 0-7.725 5.853l-7.549 22.472a9.948 9.948 0 0 1-9.421 6.788H24.839Z"/>
  <path d="M96 143.733c-19.392 0-35.112-15.72-35.112-35.112S76.608 73.509 96 73.509s35.112 15.72 35.112 35.112-15.72 35.112-35.112 35.112Zm0-58.521c-12.928 0-23.409 10.481-23.409 23.409S83.072 132.03 96 132.03s23.409-10.481 23.409-23.409S108.928 85.212 96 85.212Zm54.894-17.557a5.853 5.853 0 1 1 0 11.706 5.853 5.853 0 0 1 0-11.706Z"/>
</svg>
