<svg viewBox="0 0 192 192">
  <path d="M98 6C49.399 6 10 45.399 10 94c0 18.547 5.751 35.744 15.549 49.933l-13.433 28.216a6.89 6.89 0 0 0 3.259 9.181c1.629.775 3.404.835 5 .339l44.453-6.157A87.707 87.707 0 0 0 98 182.001c48.601 0 88-39.399 88-88S146.601 6 98 6Zm0 163.395a75.158 75.158 0 0 1-28.123-5.442 76.12 76.12 0 0 1-2.1-.879 6.972 6.972 0 0 0-2.548-.132l-21.287 2.949-15.491 2.146 5.203-11.211 4.821-10.388a7.174 7.174 0 0 0-.032-6.234l-.002-.003a75.389 75.389 0 0 1-6.158-9.259A75.023 75.023 0 0 1 22.606 94c0-41.639 33.755-75.395 75.395-75.395 43.679 0 75.395 33.755 75.395 75.395s-33.755 75.395-75.395 75.395Z"/>
  <path d="M68.52 83.55h58.74c3.3 0 5.94-2.42 5.94-5.72s-2.42-5.94-5.72-5.94H68.52c-3.3 0-5.72 2.64-5.72 5.94 0 3.3 2.42 5.72 5.72 5.72Zm0 32.56h58.74c3.3 0 5.72-2.64 5.72-5.94 0-3.08-2.64-5.72-5.72-5.72H68.52c-3.3 0-5.72 2.64-5.72 5.94 0 3.08 2.42 5.72 5.72 5.72Z"/>
</svg>
