<svg viewBox="0 0 192 192">
  <path d="M149.501 66.93c-5.6-29.6-34.2-49.1-63.8-43.5-22.1 4.2-39.4 21.4-43.5 43.5-20.3 1.4-35.6 19.1-34.1 39.4 1.4 19.3 17.5 34.3 36.9 34.2h25c3.2 0 5.8-2.6 5.8-5.8 0-3.2-2.6-5.8-5.8-5.8h-25c-14 0-25.3-11.2-25.4-25.2-.1-13.8 10.9-25.1 24.7-25.2h3.1c3 0 5.5-2.3 5.8-5.3 2.1-23.6 23-41 46.6-38.9 20.7 1.9 37 18.2 38.9 38.9.2 3 2.8 5.4 5.8 5.4h2.5c14 0 25.3 11.2 25.4 25.2.1 13.8-10.9 25.1-24.7 25.2h-25.7c-3.2 0-5.8 2.6-5.8 5.8 0 3.2 2.6 5.8 5.8 5.8h25.2c20.3 0 36.8-16.5 36.8-36.8 0-19.4-15.1-35.5-34.4-36.7l-.1-.2Z"/>
  <path d="M90.073 157.468v-52.471l-14.75 14.75a5.858 5.858 0 0 1-8.278-8.29L91.812 86.69c1.695-1.695 5.543-2.742 8.271-.015l24.975 24.782a5.854 5.854 0 0 1-8.245 8.306l-14.763-14.646v52.352c0 4.145-2.682 7.505-5.989 7.505s-5.987-3.36-5.987-7.505Z"/>
</svg>
