<svg xml:space="preserve" style="enable-background:new 0 0 192 192" viewBox="0 0 192 192">
  <path d="M121.6 37.1H38.8c-8.3 0-15 6.8-15 15V171c0 8.3 6.8 15 15 15h82.8c8.3 0 15-6.8 15-15V52.2c0-8.3-6.8-15-15-15.1zm3.2 15.1v118.7c0 1.8-1.5 3.3-3.3 3.3H38.8c-1.8 0-3.3-1.5-3.3-3.3V52.2c0-1.8 1.5-3.3 3.3-3.3h82.8c1.7 0 3.2 1.5 3.2 3.3z"/>
  <path d="M153.2 6H70.4c-8.3 0-15 6.8-15 15 0 1.6.6 3.1 1.7 4.2s2.6 1.7 4.2 1.7 3-.6 4.2-1.7c1.1-1.1 1.7-2.6 1.7-4.2 0-1.8 1.5-3.3 3.3-3.3h82.8c1.8 0 3.3 1.5 3.3 3.3v118.8c0 1.8-1.5 3.3-3.3 3.3-3.2 0-5.9 2.6-5.9 5.9s2.6 5.9 5.9 5.9c8.3 0 15-6.8 15-15V21c0-8.2-6.8-15-15.1-15z"/>
</svg>
