<svg xml:space="preserve" style="enable-background:new 0 0 192 192" viewBox="0 0 192 192">
  <path d="M96 10.3c-1.4 0-2.7 0-4.1.1C53.5 11 16 20.7 16 41.5v105.6c.2 6.6 3.4 12.8 8.6 16.4 21.7 11.9 46.1 18.2 70.8 18.1h1.2c24.7.1 49.1-6.2 70.8-18.1 5.2-3.6 8.4-9.8 8.6-16.4V41.5c0-21.5-40.2-31.2-80-31.2zm66.2 140.1-2 1c-17.1 9.1-35.8 14.2-54.9 15-1 0-2.1.1-3.1.1-2 0-3.9.1-5.9 0h-.6c-22.1.7-44.1-4.5-63.9-15l-2-1v-36.2l4.5 1.6c18.7 6.4 38 9.5 57.6 9.3 1.3 0 2.6.1 3.8 0h.4c3.1.1 6.1 0 9.1-.1 17.8-.4 35.3-3.4 52.3-9.3l4.5-1.6v36.2zM95.9 72.8s.1 0 0 0h.2c21 .6 41.6-2.8 61.5-10.2l4.6-1.7V97l-1.9 1.1c-7.5 4-24.5 10.6-56.1 11.6-2.1.1-4.3.1-6.5.1h-1.5c-36.9 0-56.1-7.4-64.2-11.8l-2.1-1V60.9l4.6 1.7c19.8 7.3 40.4 10.8 61.4 10.2zm63.4-28.1c-7.3 5.6-26.9 11.5-54 12.6-3 .1-6.1.2-9.3.2-1.4 0-2.7-.1-4.1-.1-29.8-.5-51.5-6.8-59.2-12.7l-4.1-3.1 4.1-3.1c7.7-5.9 29.4-12.2 59.2-12.7 1.4 0 2.7-.1 4.1-.1 3.2 0 6.3.1 9.3.2 27.1 1.1 46.7 7 54 12.6l4.1 3.1-4.1 3.1z"/>
</svg>
