<svg xml:space="preserve" style="enable-background:new 0 0 192 192" viewBox="0 0 192 192">
  <path d="M91.9 25.6c1.4 0 2.7-.1 4.1-.1 3.2 0 6.3.1 9.3.2 13.5.6 25.2 2.3 34.4 4.6s15.9 5.2 19.6 8l4.1 3.1-4.1 3.1c-7.3 5.6-26.9 11.5-54 12.6-3 .1-6.1.2-9.3.2-1.4 0-2.7-.1-4.1-.1-2.9 0-5.8-.2-8.5-.3l19.4 15.7c18.7-.2 37-3.7 54.8-10.3l4.6-1.7V97l-2 1c-3.6 2-9.5 4.5-18.1 6.7l14.1 11.4c.5-.2 1-.3 1.5-.5l4.5-1.6v6.9l13.8 11.3V41.5c0-21.6-40.2-31.2-80-31.2-1.3 0-2.7 0-4.1.1-19.2.3-38.2 2.9-52.4 8-.9.3-1.8.7-2.6 1l14 11.4c10.6-2.8 24.6-4.9 41-5.2zM185.4 159 16 21.4c-3.2-2.6-7.9-2.1-10.6 1.1-2.5 3.2-2 7.9 1.2 10.5l9.4 7.7v106.5c.2 6.6 3.4 12.8 8.6 16.4 21.7 11.9 46.1 18.2 70.8 18.1h1.2c24.7.1 49.1-6.2 70.8-18.1l8.6 7c1.4 1.1 3.1 1.7 4.7 1.7 2.2 0 4.3-.9 5.8-2.8 2.6-3.2 2.1-7.9-1.1-10.5zm-84.3-49.2c-1.2 0-2.3 0-3.5.1h-1.5c-36.9 0-56.1-7.4-64.2-11.8l-2-1V60.8l4.6 1.7c4.6 1.7 9.3 3.2 14.1 4.5l52.5 42.8zm4.2 56.6c-1 0-2.1 0-3.1.1-2 0-3.9.1-5.9 0h-.6c-22.1.7-44.1-4.5-63.8-15l-2-1v-36.2l4.5 1.6c18.7 6.5 38 9.5 57.6 9.3 1.3 0 2.6.1 3.8 0h.4c3 .1 6.1 0 9.1-.1 4.5-.1 9-.4 13.5-.8l36.5 29.7c-15.7 7.5-32.7 11.7-50 12.4z"/>
</svg>
