<svg xml:space="preserve" style="enable-background:new 0 0 192 192" viewBox="0 0 192 192">
  <path d="m104.6 96 20-20c2.4-2.4 2.4-6.2 0-8.6s-6.2-2.4-8.6 0l-20 20-20-20c-2.4-2.4-6.2-2.4-8.5 0-2.4 2.4-2.4 6.2 0 8.6l20 20-20 20c-2.4 2.4-2.4 6.2 0 8.6s6.2 2.4 8.6 0l20-20 20 20c2.4 2.4 6.2 2.4 8.6 0s2.4-6.2 0-8.6l-20.1-20z"/>
  <path d="M96 8.3C47.6 8.3 8.3 47.6 8.3 96s39.3 87.7 87.7 87.7 87.7-39.3 87.7-87.7S144.4 8.3 96 8.3zm0 162.5c-41.3 0-74.8-33.5-74.8-74.8S54.7 21.1 96 21.1s74.8 33.5 74.8 74.8-33.5 74.9-74.8 74.9z"/>
</svg>
