<svg xml:space="preserve" style="enable-background:new 0 0 192 192" viewBox="0 0 192 192">
  <path d="M90.1 63.5V116l-14.8-14.8c-2.3-2.3-6-2.3-8.3 0s-2.3 6 0 8.3l24.8 24.8c1.7 1.7 5.5 2.7 8.3 0l25-24.8c2.2-2.3 2.1-6-.2-8.3-2.2-2.1-5.8-2.2-8 0l-14.8 14.6V63.4c0-4.1-2.7-7.5-6-7.5s-6 3.4-6 7.5v.1z"/>
  <path d="M96 8.3C47.6 8.3 8.3 47.6 8.3 96s39.3 87.7 87.7 87.7 87.7-39.3 87.7-87.7S144.4 8.3 96 8.3zm0 162.5c-41.3 0-74.8-33.5-74.8-74.8S54.7 21.1 96 21.1s74.8 33.5 74.8 74.8-33.5 74.9-74.8 74.9z"/>
</svg>
