<svg viewBox="0 0 192 192">
  <path d="m123.13 131.643-.102.105-20.74 21.175V92.902a6.286 6.286 0 1 0-12.572 0v59.993l-20.618-21.148a6.285 6.285 0 0 0-8.888-.037l-.037.037v-.127a6.285 6.285 0 0 0-.037 8.888l.037.037 31.428 32.185a6.6 6.6 0 0 0 9.052 0l31.428-32.182a6.314 6.314 0 0 0-8.95-8.906Z"/>
  <path d="M95.567 17.473C50.437 17.473 8 54.058 8 99.188a6.286 6.286 0 1 0 12.572 0c.005-38.182 36.812-69.132 74.994-69.133 38.183 0 75.856 30.951 75.861 69.133a6.286 6.286 0 1 0 12.572 0c0-45.13-43.303-81.715-88.433-81.715Z"/>
</svg>
