<svg xml:space="preserve" style="enable-background:new 0 0 192 192" viewBox="0 0 192 192">
  <path d="M96 75.2c-20.3 0-36.8 16.5-36.8 36.8s16.5 36.8 36.8 36.8 36.8-16.5 36.8-36.8c0-20.3-16.5-36.8-36.8-36.8zm0 58.9c-12.2 0-22.1-9.9-22.1-22.1S83.8 89.9 96 89.9s22.1 9.9 22.1 22.1-9.9 22.1-22.1 22.1z"/>
  <path d="M96 57.9c34.1 0 55.4 21.1 66.6 37 2.2 3.2 6.6 4.1 9.9 2 3.6-2.2 4.6-7 2.2-10.5C161.6 68 136.6 43.2 96 43.2S30.4 68 17.3 86.5c-2.4 3.5-1.4 8.3 2.2 10.5 3.3 2 7.6 1.1 9.9-2C40.6 79 61.9 57.9 96 57.9"/>
</svg>
