<svg viewBox="0 0 192 192">
  <path d="M94.351 176.176c0-3.335-2.701-5.341-6.036-5.321-19.403.119-50.657 0-50.657 0l-1.686-.198a3.976 3.976 0 0 1-3.965-3.965V71.536h45.397c6.938 0 12.687-5.65 12.687-12.687v-39.45h42.523a3.976 3.976 0 0 1 3.965 3.965v96.08c0 2.815 2.295 5.368 5.105 5.535 3.593.214 6.591-2.117 6.591-4.798v-96.52c0-8.614-7.047-15.661-15.661-15.661H88.208a16.194 16.194 0 0 0-10.804 4.163l-51.74 46.488c-3.37 2.974-5.353 7.335-5.353 11.795v96.345c0 8.614 7.047 15.396 15.661 15.396 0 0 32.738.045 52.395 0a6 6 0 0 0 5.984-6.011ZM78.495 26.635v32.313a1.1 1.1 0 0 1-1.09 1.09H41.424l37.071-33.404Z"/>
  <path d="m155.603 179.573-.054-.054-13.089-12.957a27.129 27.129 0 0 0 4.886-15.556c-.016-15.058-12.219-27.261-27.277-27.277-15.065 0-27.278 12.213-27.278 27.277s12.213 27.278 27.278 27.278c5.8 0 11.168-1.824 15.588-4.911l13.119 12.987a4.814 4.814 0 0 0 6.827-6.787Zm-53.185-28.567c0-9.748 7.903-17.651 17.651-17.651s17.651 7.902 17.651 17.651c-.011 9.744-7.907 17.639-17.651 17.651-9.748 0-17.651-7.903-17.651-17.651Z"/>
</svg>
