<svg viewBox="0 0 192 192">
  <path d="M94.351 176.176c0-3.335-2.701-5.341-6.036-5.321-19.403.119-50.657 0-50.657 0l-1.686-.198a3.976 3.976 0 0 1-3.965-3.965V71.536h45.397c6.938 0 12.687-5.65 12.687-12.687v-39.45h42.523a3.976 3.976 0 0 1 3.965 3.965v96.08c0 2.815 2.295 5.368 5.105 5.535 3.593.214 6.591-2.117 6.591-4.798v-96.52c0-8.614-7.047-15.661-15.661-15.661H88.208a16.194 16.194 0 0 0-10.804 4.163l-51.74 46.488c-3.37 2.974-5.353 7.335-5.353 11.795v96.345c0 8.614 7.047 15.396 15.661 15.396 0 0 32.738.045 52.395 0a6 6 0 0 0 5.984-6.011ZM78.495 26.635v32.313a1.1 1.1 0 0 1-1.09 1.09H41.424l37.071-33.404Z"/>
  <path d="M116.781 164.253h48.671l-13.682 13.682a5.433 5.433 0 1 0 7.69 7.678l22.973-22.973c1.572-1.572 2.544-5.142.014-7.672l-22.987-23.166a5.43 5.43 0 0 0-7.704 7.648l13.585 13.693h-48.56c-3.845 0-6.962 2.487-6.962 5.555s3.117 5.553 6.962 5.553Z"/>
</svg>
