<svg viewBox="0 0 192 192">
  <path d="M166.6 59.5 114.9 13c-3-2.6-6.8-4.1-10.7-4.1H59.9c-8.6 0-15.6 7-15.6 15.6v11.1l-6.7-1.1c-1-.2-1.9-.3-2.9-.3-8 0-14.5 6.5-14.5 14.5v94.7c0 8 6.5 14.5 14.5 14.6.9 0 1.8 0 2.6-.2l7.1-.9v10.7c0 8.6 7 15.6 15.6 15.6h96.6c8.6 0 15.6-7 15.6-15.6v-96c0-4.6-2-9-5.4-12.1Zm-52.7-32.1L151 60.8h-36c-.6 0-1.1-.5-1.1-1.1V27.4ZM35.2 146.2h-.5c-1.6 0-3-1.3-3-2.9V48.6c0-.9.4-1.7 1.1-2.3.8-.6 1.7-.8 2.7-.5l8.8 1.6V145l-9 1.2Zm121.3 25.3H59.8c-2.2 0-4-1.8-4-4v-143c0-2.2 1.8-4 4-4h42.5v39.2c0 7 5.7 12.7 12.7 12.7h45.4v95.1c0 2.2-1.8 4-4 4Z"/>
</svg>
