<svg xml:space="preserve" style="enable-background:new 0 0 192 192" viewBox="0 0 192 192">
  <path d="M143.4 121.4H120c-3.2 0-5.8 2.7-5.7 6 0 3.1 2.6 5.7 5.7 5.7h23.4c3.2 0 5.9-2.5 6-5.7 0-3.2-2.5-5.9-5.7-6h-.3z"/>
  <path d="M154.4 45.5h-53.7c-.7 0-1.3-.4-1.6-1.1L96 38.2c-5-9.9-15.1-16.1-26.1-16.1H37.6c-16.1 0-29.2 13.1-29.2 29.2v93.5c0 16.1 13.1 29.2 29.2 29.2h116.9c16.1 0 29.2-13.1 29.2-29.2V74.7c0-16.1-13.1-29.2-29.2-29.2h-.1zm17.3 99.6c0 9.7-7.8 17.2-17.4 17.2h-117c-9.7 0-17.5-7.9-17.5-17.5V51.2c0-9.7 7.9-17.5 17.5-17.5h32.3c6.6 0 12.7 3.8 15.7 9.7l3.1 6.2c2.3 4.6 7 7.5 12.1 7.5h53.7c9.7 0 17.5 7.9 17.5 17.5v70.5z"/>
</svg>
