<svg viewBox="0 0 192 192">
  <path d="M58.7 70.015h19.8c1.1 0 1.9.9 1.9 1.9v8c0 1.1-.9 1.9-1.9 1.9H58.7c-1.1 0-1.9-.9-1.9-1.9v-8c0-1.1.9-1.9 1.9-1.9Zm55.1 0h19.8c1.1 0 1.9.9 1.9 1.9v8c0 1.1-.9 1.9-1.9 1.9h-19.8c-1.1 0-1.9-.9-1.9-1.9v-8c0-1.1.9-1.9 1.9-1.9Z"/>
  <path d="M153.5 179.715H38.7c-10.8 0-19.5-8.7-19.6-19.5v-79.6c0-42.5 34.4-76.9 76.9-76.9s76.9 34.4 76.9 76.9v79.6c0 10.7-8.7 19.5-19.4 19.5ZM96 15.515c-35.9 0-65.1 29.1-65.1 65.1v79.6c0 4.2 3.4 7.6 7.6 7.6h114.9c4.2 0 7.6-3.4 7.6-7.6v-79.6c0-35.9-29.1-65.1-65.1-65.1h.1Z"/>
</svg>
