<svg xml:space="preserve" style="enable-background:new 0 0 256 256" viewBox="0 0 256 256">
  <path d="M103.9 115.7c8.4 8 8.4 21.2 0 29.1l-1.1 1.1c-21.5 20.5-38 36.3-43 69.4C58 227 68 236.7 80.1 236.7h97.4c12 0 22.1-9.7 20.3-21.4-5-33.1-21.6-48.9-43-69.4l-1.1-1.1c-8.4-8-8.4-21.2 0-29.1l1.1-1.1c21.5-20.5 38-36.3 43-69.4 1.8-11.7-8.2-21.4-20.3-21.4H80c-12 0-22.1 9.7-20.3 21.4 5 33.1 21.6 48.9 43 69.4l1.2 1.1zm7.2-18.1C94.7 82.9 82.5 72 81 45.1c-.1-1.7.6-3.1 1.8-4.1.9-.8 2.1-1.2 3.4-1.2h85c1.5 0 2.9.6 3.9 1.7.9 1 1.4 2.3 1.3 3.7-1.6 26.9-13.7 37.8-30.1 52.4-4.3 3.9-8.9 8-13.7 12.7-2.2 2.1-5.7 2.1-7.8 0-4.8-4.7-9.4-8.9-13.7-12.7z" style="fill-rule:evenodd;clip-rule:evenodd"/>
</svg>
