<svg viewBox="0 0 192 192">
  <path d="M151.392 16.337H40.609c-13.393.028-24.243 10.878-24.271 24.271v110.783c.028 13.393 10.878 24.243 24.271 24.271h110.783c13.393-.028 24.243-10.878 24.271-24.271V40.609c-.028-13.393-10.878-24.243-24.271-24.271ZM40.609 26.958h110.783c7.538 0 13.648 6.111 13.648 13.648v70.9l-23.208-16.622a18.642 18.642 0 0 0-22.465.691L96 114.427 77.464 94.565c-7.3-7.584-19.172-8.367-27.404-1.806l-23.102 18.8v-70.95c0-7.538 6.111-13.648 13.648-13.648l.002-.002Zm-13.65 124.434v-26.181l29.899-24.218a9.931 9.931 0 0 1 13.011.797l59.11 63.252h-88.37c-7.538.001-13.649-6.109-13.65-13.646v-.004Zm124.434 13.648h-7.913l-40.045-42.857 22.624-18.322a7.81 7.81 0 0 1 9.56-.319l29.424 21.242v26.821c-.115 7.455-6.192 13.438-13.648 13.437l-.002-.002Z"/>
  <path d="M96 51.124c5.866 0 10.621 4.755 10.621 10.621S101.866 72.366 96 72.366s-10.621-4.755-10.621-10.621S90.134 51.124 96 51.124Z"/>
</svg>
