<svg viewBox="0 0 175.527 164.557">
  <path d="M162.93 98.284V42.269c0-9.367-7.625-16.987-16.997-16.987h-15.076V13.453C130.857 6.034 124.823 0 117.405 0H58.123c-7.418 0-13.452 6.036-13.452 13.453v11.829H29.595c-9.371 0-16.997 7.62-16.997 16.987v56.015C5.577 98.726 0 104.579 0 111.709v23.634c0 7.418 6.036 13.452 13.453 13.452h16.76v5.477H20.011a5.142 5.142 0 0 0 0 10.284h30.688a5.142 5.142 0 0 0 0-10.284H40.497v-5.477h16.76c7.418 0 13.453-6.036 13.453-13.453v-6.673h34.106v6.673c0 7.419 6.036 13.453 13.453 13.453h16.76v5.477h-10.2a5.142 5.142 0 1 0 0 10.284h30.687a5.142 5.142 0 1 0 0-10.284h-10.202v-5.477h16.761c7.418 0 13.452-6.036 13.452-13.453V111.71c0-7.13-5.576-12.983-12.598-13.425ZM54.955 13.453a3.17 3.17 0 0 1 3.167-3.168h59.282a3.171 3.171 0 0 1 3.168 3.168v33.943a3.173 3.173 0 0 1-3.168 3.168H58.122a3.172 3.172 0 0 1-3.167-3.168V13.453Zm5.471 121.888a3.171 3.171 0 0 1-3.168 3.168H13.453a3.17 3.17 0 0 1-3.168-3.168v-23.632a3.171 3.171 0 0 1 3.168-3.167h43.804a3.172 3.172 0 0 1 3.168 3.167v23.632Zm10.285-16.958v-6.674c0-7.418-6.036-13.452-13.453-13.452H22.882V42.269c0-3.696 3.01-6.703 6.712-6.703H44.67v11.829c0 7.418 6.034 13.453 13.452 13.453h24.499v6.072H68.49a5.142 5.142 0 1 0 0 10.284h38.548a5.142 5.142 0 0 0 0-10.284H92.906v-6.072h24.499c7.418 0 13.452-6.036 13.452-13.453V35.566h15.076c3.701 0 6.712 3.006 6.712 6.703v55.988H118.27c-7.418 0-13.453 6.034-13.453 13.452v6.674H70.711Zm94.532 16.958a3.17 3.17 0 0 1-3.168 3.168h-43.804a3.172 3.172 0 0 1-3.168-3.168v-23.632a3.172 3.172 0 0 1 3.168-3.167h43.804a3.17 3.17 0 0 1 3.168 3.167v23.632Z"/>
</svg>
