<svg xml:space="preserve" style="enable-background:new 0 0 192 192" viewBox="0 0 192 192">
  <path d="M128.5 101.9H76l14.8 14.8c2.3 2.3 2.3 6 0 8.3s-6 2.3-8.3 0l-24.8-24.8c-1.7-1.7-2.7-5.5 0-8.3l24.8-25c2.3-2.2 6-2.1 8.3.2 2.1 2.2 2.2 5.8 0 8L76.2 89.9h52.4c4.1 0 7.5 2.7 7.5 6s-3.4 6-7.5 6h-.1z"/>
  <path d="M96 8.3C47.6 8.3 8.3 47.6 8.3 96s39.3 87.7 87.7 87.7 87.7-39.3 87.7-87.7S144.4 8.3 96 8.3zm0 162.5c-41.3 0-74.8-33.5-74.8-74.8S54.7 21.1 96 21.1s74.8 33.5 74.8 74.8-33.5 74.9-74.8 74.9z"/>
</svg>
