<svg viewBox="0 0 192 192">
  <path d="M64.559 158.796c-17.986-.005-32.563-14.59-32.559-32.576a32.563 32.563 0 0 1 9.529-23.01l24.222-24.224a32.351 32.351 0 0 1 23.03-9.554 32.18 32.18 0 0 1 23.299 9.469 7.165 7.165 0 0 1 2.027 5.02 7.228 7.228 0 0 1-12.138 5.322 18.483 18.483 0 0 0-13.182-5.319 17.96 17.96 0 0 0-12.784 5.295l-24.241 24.224c-7.06 7.06-7.06 18.506 0 25.567a18.074 18.074 0 0 0 12.784 5.295 17.96 17.96 0 0 0 12.784-5.295c.431-.42 4.811-4.394 5.218-4.784a7.233 7.233 0 0 1 10.228.199 7.233 7.233 0 0 1-.026 10.056c-.275.275-5.201 4.8-5.201 4.8a32.326 32.326 0 0 1-22.989 9.516Z"/>
  <path d="M127.428 33.204c17.986-.003 32.57 14.576 32.572 32.562a32.568 32.568 0 0 1-9.543 23.038l-24.222 24.224c-12.825 12.693-33.469 12.723-46.331.069a7.175 7.175 0 0 1-2.024-5.02 7.228 7.228 0 0 1 12.138-5.322 18.482 18.482 0 0 0 13.182 5.322 17.96 17.96 0 0 0 12.784-5.295l24.222-24.222c7.062-7.058 7.064-18.505.006-25.567a18.082 18.082 0 0 0-12.787-5.298 17.964 17.964 0 0 0-12.784 5.281c-.431.42-4.811 4.394-5.218 4.784a7.233 7.233 0 0 1-10.202-10.254c.275-.275 5.201-4.8 5.201-4.8a32.327 32.327 0 0 1 23.005-9.502"/>
</svg>
