<svg viewBox="0 0 192 192">
  <path d="M180.9 56.759c-1.373-6.67-5.199-12.458-10.79-16.283a17.288 17.288 0 0 0-2.256-1.373L114.001 9.871l-.392-.196-5.199-2.845a26.112 26.112 0 0 0-24.916 0l-5.493 3.041-.49.196-53.265 29.134c-.785.392-1.471.883-2.158 1.373a26.058 26.058 0 0 0-10.986 16.382 22.642 22.642 0 0 0-.589 5.101v88.186c0 14.42 11.673 25.995 25.995 26.093h118.791c14.42 0 26.093-11.673 26.191-26.093V61.86c0-1.766-.196-3.433-.589-5.101M29.445 49.108l59.444-32.273c2.158-1.177 4.512-1.766 6.965-1.766s4.905.687 6.965 1.864l59.346 32.273c3.139 1.668 5.591 4.512 6.867 7.946-1.275 3.237-3.531 5.886-6.572 7.553l-59.444 32.273c-2.158 1.177-4.512 1.766-6.965 1.766s-4.905-.589-6.965-1.864L29.74 64.607c-3.139-1.766-5.591-4.512-6.768-7.946 1.275-3.237 3.531-5.886 6.572-7.553m139.945 101.823c0 8.142-5.95 14.025-13.993 14.025H36.507a14.694 14.694 0 0 1-14.714-14.714V73.239c.687.49 1.471.981 2.256 1.373l53.853 29.232.392.196 5.199 2.845a26.112 26.112 0 0 0 24.916 0l5.101-2.845 54.147-29.624c.785-.392 1.471-.883 2.158-1.373l-.28 77.404-.049.484Z"/>
</svg>
