<svg viewBox="0 0 192 192">
  <path d="M184.674 48c0-1.3-.3-2.6-.5-3.9-1.4-6.8-5.4-12.8-11.2-16.8-.8-.5-1.5-1-2.4-1.5l-2.7-1.5c-3.2-1.3-6.6-2-10-2h-122.3c-3.1 0-6.2.5-9.2 1.6l-3.7 2c-.8.4-1.5.9-2.2 1.4-5.8 3.9-9.9 10-11.3 16.8-.3 1.2-.4 2.5-.5 3.7v94.1c0 .6.1 1.1.2 1.7 0 .6.2 1.1.3 1.7s.2 1.1.4 1.6c.2.9.5 1.7.8 2.6l.5 1.3c.3.7.6 1.3 1 2 2.5 4.6 6.3 8.3 10.8 10.8l2.8 1.5c3.1 1.3 6.5 1.9 9.9 1.9h122.4c3.1 0 6.1-.5 9-1.6l3.8-2.1c7-3.8 12-10.5 13.6-18.4.1-.5.2-1 .3-1.6 0-.6.1-1.1.2-1.7V48m-161.7-7v-.1c.2-.4.5-.7.8-1.1.2-.2.3-.4.5-.6.2-.2.3-.4.5-.5.2-.3.5-.5.7-.7l1.5-1.2c.8-.6 1.6-1 2.5-1.4 1.8-.8 3.8-1.2 5.8-1.2h122.3c1.7 0 3.3.3 4.9.8 4.3 1.5 7.7 4.8 9.3 9.1v.2c-1.3 3.3-3.7 6.1-6.8 7.8l-35.3 19.2-10.6 5.8-15.3 8.3c-4.5 2.5-9.9 2.4-14.4 0l-15.5-8.4-10.6-5.8-34.9-19h-.1c-3.2-1.8-5.7-4.7-7-8.1.4-1.1.9-2.1 1.6-3.1m150 99.2c0 2.4-.5 4.7-1.6 6.8l-.5.9-.6.9s0 .1-.1.2c-.2.3-.5.6-.7.9l-.6.6c-.2.2-.3.4-.5.5-.3.3-.6.5-.8.7-1.2 1-2.5 1.9-3.9 2.5-1.8.8-3.8 1.2-5.8 1.2h-122.3c-1.6 0-3.2-.3-4.8-.8-6.2-2.1-10.4-7.8-10.4-14.4V61.1h.1c.7.5 1.5.9 2.2 1.4l41.3 22.4 14.2 7.7.4.2 5.3 2.9c8 4.4 17.6 4.4 25.6 0l5.3-2.9 14.6-8 41.2-22.5c.8-.4 1.5-.9 2.2-1.4h.1v79.2l.1.1Z"/>
</svg>
