<svg viewBox="0 0 192 192">
  <path d="M155.381 176.384H36.522c-14.428 0-26.01-11.68-26.01-26.108V62.04c0-9.52 5.3-18.256 13.643-22.771L83.437 6.782a26.129 26.129 0 0 1 24.93 0l59.479 32.291c8.343 4.515 13.643 13.25 13.643 22.771v88.433c0 14.428-11.778 26.108-26.206 26.108h.098ZM95.902 15.026c-2.454 0-4.809.589-6.969 1.767L29.455 49.084c-4.711 2.65-7.656 7.558-7.558 12.956v88.236a14.703 14.703 0 0 0 14.722 14.722h118.859c8.146 0 14.624-6.576 14.624-14.722V62.04c0-5.398-2.944-10.404-7.656-12.956l-59.38-32.291c-2.159-1.178-4.515-1.767-6.969-1.865l-.196.098Z"/>
  <path d="M95.902 151.356c-16.391 0-30.426-11.582-33.567-27.678-.393-3.141 1.865-6.085 5.006-6.478 3.043-.393 5.791 1.669 6.38 4.613 2.552 12.367 14.624 20.219 26.991 17.667 8.833-1.865 15.802-8.735 17.667-17.667.589-3.141 3.632-5.202 6.772-4.613a5.741 5.741 0 0 1 4.613 6.38c-3.141 16.195-17.372 27.776-33.862 27.678v.098Z"/>
</svg>
