<svg xml:space="preserve" style="enable-background:new 0 0 682.7 682.7" viewBox="0 0 682.7 682.7">
  <path d="M530.027 492.9c-30.4 0-46.6-10.8-59.7-19.4-10.6-7-17.6-11.6-33.9-11.6-16.4 0-23.4 4.6-33.9 11.6-13 8.6-29.2 19.4-59.7 19.4-30.4 0-46.6-10.8-59.7-19.4-10.6-7-17.5-11.6-33.9-11.6s-23.4 4.6-33.9 11.6c-13 8.6-29.2 19.4-59.7 19.4-12.9 0-23.3-10.4-23.3-23.3s10.4-23.3 23.3-23.3c16.4 0 23.4-4.6 33.9-11.6 13-8.6 29.2-19.4 59.7-19.4 30.4 0 46.6 10.8 59.7 19.4 10.6 7 17.5 11.6 33.9 11.6s23.4-4.6 33.9-11.6c13-8.6 29.2-19.4 59.7-19.4 30.4 0 46.6 10.8 59.7 19.4 10.6 7 17.6 11.6 33.9 11.6 12.9 0 23.3 10.4 23.3 23.3s-10.4 23.3-23.3 23.3zm0 124.1c-30.4 0-46.6-10.8-59.7-19.4-10.6-7-17.6-11.6-33.9-11.6-16.4 0-23.4 4.6-33.9 11.6-13 8.6-29.2 19.4-59.7 19.4-30.4 0-46.6-10.8-59.7-19.4-10.6-7-17.5-11.6-33.9-11.6s-23.4 4.6-33.9 11.6c-13 8.6-29.2 19.4-59.7 19.4-12.9 0-23.3-10.4-23.3-23.3s10.4-23.3 23.3-23.3c16.4 0 23.4-4.6 33.9-11.6 13-8.6 29.2-19.4 59.7-19.4 30.4 0 46.6 10.8 59.7 19.4 10.6 7 17.5 11.6 33.9 11.6s23.4-4.6 33.9-11.6c13-8.6 29.2-19.4 59.7-19.4 30.4 0 46.6 10.8 59.7 19.4 10.6 7 17.6 11.6 33.9 11.6 12.9 0 23.3 10.4 23.3 23.3s-10.4 23.3-23.3 23.3zM235.2 71.5c1.1 1.1 2.2 2.4 3 3.5l68.2 68.2c7.8 8.1 7.8 20.5 0 28.6-8.1 7.8-20.5 7.8-28.6 0l-36.7-36.6v192.4c-.3 11-9.2 19.4-20.2 19.7h-1.1c-10.8-.3-19.9-8.6-20.2-19.7V135.1l-35.8 36.6c-8.1 7.8-20.5 7.8-28.6 0-7.8-8.1-7.8-20.5 0-28.6L203.4 75c.8-1.3 1.6-2.4 3-3.5 4-4 9.4-5.9 14.6-5.9s10.2 1.9 14.2 5.9M414 346.2c-1.1-1.1-2.2-2.4-3-3.5l-68.2-68.2c-7.8-8.1-7.8-20.5 0-28.6 8.1-7.8 20.5-7.8 28.6 0l36.4 36.6V90.1c.3-11 9.2-19.4 20.2-19.7h1.1c10.8.3 19.9 8.6 20.2 19.7v192.4l36.4-36.6c8.1-7.8 20.5-7.8 28.6 0 7.8 8.1 7.8 20.5 0 28.6l-68.2 68.2c-.8 1.3-1.6 2.4-3 3.5-4 4-9.4 5.9-14.6 5.9-5.3 0-10.4-1.9-14.5-5.9"/>
</svg>
