<svg viewBox="0 0 192 192">
  <path d="M172.25 96c0-11.258-9.093-20.351-20.351-20.351S131.548 84.742 131.548 96s9.093 20.351 20.351 20.351S172.25 107.258 172.25 96Zm-30.483 0c0-5.629 4.59-10.132 10.132-10.132s10.132 4.59 10.132 10.132-4.59 10.132-10.132 10.132c-5.629 0-10.132-4.59-10.132-10.132Zm-25.373 0c0-11.258-9.093-20.351-20.351-20.351S75.692 84.742 75.692 96s9.093 20.351 20.351 20.351 20.351-9.093 20.351-20.351Zm-30.483 0c0-5.629 4.59-10.132 10.132-10.132s10.132 4.59 10.132 10.132-4.59 10.132-10.132 10.132c-5.629 0-10.132-4.59-10.132-10.132Zm-25.46 0c0-11.258-9.093-20.351-20.351-20.351S19.749 84.742 19.749 96s9.093 20.351 20.351 20.351S60.451 107.258 60.451 96Zm-30.483 0c0-5.629 4.59-10.132 10.132-10.132S50.232 90.458 50.232 96s-4.59 10.132-10.132 10.132c-5.629 0-10.132-4.59-10.132-10.132Z"/>
</svg>
