<svg xml:space="preserve" style="enable-background:new 0 0 192 192" viewBox="0 0 192 192">
  <path d="M96 19.8c-11.3 0-20.4 9.1-20.4 20.4S84.7 60.5 96 60.5s20.4-9.1 20.4-20.4c0-11.3-9.1-20.4-20.4-20.3zm0 30.4c-5.6 0-10.1-4.6-10.1-10.1S90.5 30 96 30s10.1 4.6 10.1 10.1c0 5.6-4.6 10.1-10.1 10.1zm0 25.4c-11.3 0-20.4 9.1-20.4 20.4s9.1 20.4 20.4 20.4 20.4-9.1 20.4-20.4c0-11.3-9.1-20.4-20.4-20.4zm0 30.5c-5.6 0-10.1-4.6-10.1-10.1S90.5 85.8 96 85.8s10.1 4.6 10.1 10.1c0 5.7-4.6 10.2-10.1 10.2zm0 25.4c-11.3 0-20.4 9.1-20.4 20.4s9.1 20.4 20.4 20.4 20.4-9.1 20.4-20.4c0-11.3-9.1-20.4-20.4-20.4zm0 30.5c-5.6 0-10.1-4.6-10.1-10.1s4.6-10.1 10.1-10.1 10.1 4.6 10.1 10.1c0 5.6-4.6 10.1-10.1 10.1z"/>
</svg>
