<svg viewBox="0 0 192 192">
  <path d="M72.766 90.551H49.532c-9.8 0-17.742-7.942-17.742-17.742V49.575c0-9.8 7.942-17.742 17.742-17.742h23.234c9.8 0 17.742 7.942 17.742 17.742v23.234c0 9.8-7.942 17.742-17.742 17.742ZM49.532 43.407c-3.379 0-6.083 2.788-6.168 6.168v23.234c0 3.379 2.788 6.083 6.168 6.168h23.234c3.379 0 6.168-2.788 6.168-6.168V49.575c0-3.379-2.788-6.168-6.168-6.168H49.532Zm92.936 47.144h-23.234c-9.8 0-17.742-7.942-17.742-17.742V49.575c0-9.8 7.942-17.742 17.742-17.742h23.234c9.8 0 17.742 7.942 17.742 17.742v23.234c0 9.8-7.942 17.742-17.742 17.742Zm-23.234-47.144c-3.379 0-6.083 2.788-6.168 6.168v23.234c0 3.379 2.788 6.083 6.168 6.168h23.234c3.379 0 6.168-2.788 6.168-6.168V49.575c0-3.379-2.788-6.168-6.168-6.168h-23.234ZM72.766 160.168H49.532c-9.8 0-17.742-7.942-17.742-17.742v-23.234c0-9.8 7.942-17.742 17.742-17.742h23.234c9.8 0 17.742 7.942 17.742 17.742v23.234c0 9.8-7.942 17.742-17.742 17.742Zm-23.234-47.144c-3.379 0-6.083 2.788-6.168 6.168v23.234c0 3.379 2.788 6.083 6.168 6.168h23.234c3.379 0 6.168-2.788 6.168-6.168v-23.234c0-3.379-2.788-6.168-6.168-6.168H49.532Zm92.936 47.144h-23.234c-9.8 0-17.742-7.942-17.742-17.742v-23.234c0-9.8 7.942-17.742 17.742-17.742h23.234c9.8 0 17.742 7.942 17.742 17.742v23.234c0 9.8-7.942 17.742-17.742 17.742Zm-23.234-47.144c-3.379 0-6.083 2.788-6.168 6.168v23.234c0 3.379 2.788 6.083 6.168 6.168h23.234c3.379 0 6.168-2.788 6.168-6.168v-23.234c0-3.379-2.788-6.168-6.168-6.168h-23.234Z"/>
</svg>
