<svg viewBox="0 0 192 192">
  <path d="M179.382 97.881c-3.051-6.25-10.591-8.843-16.841-5.792l-21.699 10.61V92.686c0-7.202-5.839-13.041-13.041-13.041H44.383c-7.202 0-13.041 5.839-13.041 13.041v53.554c0 7.202 5.839 13.041 13.041 13.041H127.8c7.202 0 13.041-5.839 13.041-13.041v-9.972l21.75 10.618a12.587 12.587 0 0 0 5.525 1.293v.002c6.935-.028 12.543-5.658 12.543-12.593v-32.204a12.588 12.588 0 0 0-1.277-5.504Zm-48.496 48.36a3.135 3.135 0 0 1-3.085 3.085H44.383a3.135 3.135 0 0 1-3.085-3.085V92.685a3.135 3.135 0 0 1 3.085-3.085l83.417.002a3.135 3.135 0 0 1 3.085 3.085v53.554Zm39.817-10.65a2.637 2.637 0 0 1-3.783 2.339l-26.078-12.741v-11.4l26.078-12.741a2.639 2.639 0 0 1 3.784 2.339v32.206Zm-69.679-16.126a4.978 4.978 0 1 1-9.957 0 4.978 4.978 0 0 1 9.957 0Zm-19.909 0a4.978 4.978 0 1 1-9.957 0 4.978 4.978 0 0 1 9.957 0ZM56.228 70.489h.004c13.744-.001 24.885-11.143 24.884-24.887-.001-13.742-11.141-24.883-24.884-24.884-13.744-.001-24.886 11.14-24.887 24.884-.001 13.744 11.14 24.886 24.884 24.887Zm0-39.817c8.247 0 14.932 6.685 14.932 14.932s-6.685 14.932-14.932 14.932-14.932-6.685-14.932-14.932 6.685-14.932 14.932-14.932Zm54.749 39.817h.004c13.744-.001 24.885-11.143 24.884-24.887-.001-13.742-11.141-24.883-24.884-24.884-13.744-.001-24.886 11.14-24.887 24.884-.001 13.744 11.14 24.886 24.884 24.887Zm0-39.817c8.247 0 14.932 6.685 14.932 14.932s-6.685 14.932-14.932 14.932-14.932-6.685-14.932-14.932 6.685-14.932 14.932-14.932Z"/>
</svg>
