<svg viewBox="0 0 192 192">
  <path d="M160 27.932a5.304 5.304 0 0 0-6.572-5.153L73.866 42.407a5.305 5.305 0 0 0-4.036 5.151v83.39c-3.882-2.302-8.569-3.653-13.616-3.653-13.356 0-24.214 9.44-24.214 21.04s10.867 21.04 24.214 21.04 24.214-9.441 24.214-21.042v-.002h.011V86.539l68.954-17.002v27.462c-3.881-2.301-8.567-3.651-13.613-3.651-13.358 0-24.214 9.44-24.214 21.04s10.865 21.038 24.214 21.038 24.214-9.438 24.214-21.038v-.002h.007V27.932ZM56.214 158.764c-7.506 0-13.615-4.678-13.615-10.432s6.107-10.43 13.615-10.43 13.615 4.678 13.615 10.43-6.105 10.432-13.615 10.432Zm24.225-83.15V51.711l68.954-17.008v23.91L80.439 75.615Zm68.955 38.775c0 5.754-6.108 10.43-13.615 10.43s-13.615-4.678-13.615-10.43 6.107-10.432 13.615-10.432 13.593 4.663 13.613 10.405v.025h.002v.002Z"/>
</svg>
