<svg xml:space="preserve" style="enable-background:new 0 0 192 192" viewBox="0 0 192 192">
  <path d="M81.5 54c3 0 5.5-2.5 5.5-5.6V23.7l18.1 26.9c1.6 2.4 4.3 3.4 6.8 2.6 2.6-.8 4.2-3.3 4.2-6.3v-.1l-.4-41.3c0-3.1-2.5-5.6-5.5-5.6h-.1c-3 0-5.4 2.6-5.4 5.7l.2 25.1L86 2.5C84.6.5 82.2-.4 79.9.3c-2.3.7-3.8 2.9-3.8 5.4v42.7c0 3.1 2.4 5.6 5.4 5.6zm71.6 129.9L100.9 72.7c-.3-.5-.6-1-1-1.4-.1-.1-.2-.2-.4-.3-.4-.3-.7-.6-1.2-.8-.2-.1-.3-.2-.5-.2-.6-.2-1.2-.4-1.8-.4h-.2c-.6 0-1.2.2-1.8.4-.2.1-.4.2-.5.2-.4.2-.8.5-1.2.8-.1.1-.2.2-.4.3-.4.4-.7.9-1 1.4l-52 111.2c-1.1 2.3-.5 5 1.3 6.7 1.8 1.7 4.5 1.9 6.6.5L96 158.6l49.2 32.5c.9.6 1.9.9 3 .9 1.3 0 2.6-.5 3.6-1.4 1.8-1.7 2.3-4.4 1.3-6.7zM90.5 99.7v49.1l-33.3 22 33.3-71.1zm11 49.2V99.8l33.3 71.1-33.3-22z"/>
</svg>
