<svg viewBox="0 0 192 192">
  <path d="M152.844 122.801a1.724 1.724 0 0 1-1.115-1.469V75.734c0-30.78-24.952-55.732-55.732-55.732S40.265 44.954 40.265 75.734v45.598a1.723 1.723 0 0 1-1.115 1.52 15.198 15.198 0 0 0-9.019 16.415 15.604 15.604 0 0 0 15.756 12.464h25.941c2.347 11.563 12.568 20.267 24.823 20.267h.008c12.255 0 22.476-8.704 24.823-20.267h24.622a15.604 15.604 0 0 0 15.756-12.464 15.201 15.201 0 0 0-9.017-16.467Zm-56.192 39.064c-6.616 0-12.228-4.234-14.316-10.134h28.633c-2.088 5.9-7.701 10.134-14.316 10.134Zm55.073-24.218a5.472 5.472 0 0 1-5.624 3.952H45.887a5.472 5.472 0 0 1-5.622-3.952 5.066 5.066 0 0 1 2.987-5.523 11.856 11.856 0 0 0 7.144-10.792V75.734c0-25.183 20.415-45.598 45.598-45.598 25.183.001 45.596 20.416 45.596 45.598v45.598a11.703 11.703 0 0 0 7.195 10.792 5.066 5.066 0 0 1 2.939 5.523Z"/>
</svg>
