<svg xml:space="preserve" style="enable-background:new 0 0 192 192" viewBox="0 0 192 192">
  <path d="m185.4 159-22.8-18.5-13.8-11.2-32.7-26.5-6.6-5.4-1.9-1.6-17.3-14-23.5-19-13.7-11.3L16 21.4c-3.2-2.6-7.9-2.1-10.6 1.1-2.5 3.2-2 7.9 1.2 10.5l22.8 18.5h-6.6C10.2 51.5 0 61.7 0 74.4v43.2c0 12.6 10.2 22.9 22.8 22.9H139l37.1 30.1c1.4 1.1 3.1 1.7 4.7 1.7 2.2 0 4.3-.9 5.8-2.8 2.5-3.2 2-7.9-1.2-10.5zM22.8 129.3c-6.4 0-11.6-5.2-11.6-11.7V74.4c0-6.4 5.2-11.7 11.6-11.7h20.4l32.5 26.4c.4 1.2 1.3 2.4 2.5 3.1l4.6 2.7 1.6 1.3-6.2 3.6c-2.7 1.6-3.6 5-2 7.7 1 1.7 2.9 2.8 4.9 2.8 1 0 1.9-.3 2.8-.8l6.5-3.8v7.5c0 3.1 2.5 5.6 5.6 5.6s5.6-2.5 5.6-5.6v-3l23.6 19.1H22.8z"/>
  <path d="M64.3 107.5c-1 1.7-2.9 2.8-4.9 2.8-1 0-2-.3-2.8-.8l-6.5-3.8v7.5c0 3.1-2.5 5.6-5.6 5.6s-5.6-2.5-5.6-5.6v-7.5l-6.5 3.8c-.9.5-1.8.8-2.8.8-2 0-3.9-1.1-4.9-2.8-1.6-2.7-.7-6.1 2-7.7l6.5-3.8-6.5-3.8c-2.7-1.6-3.6-5-2.1-7.7.7-1.3 1.9-2.2 3.4-2.6 1.5-.4 3-.2 4.3.6l6.5 3.8v-7.5c0-3.1 2.5-5.6 5.6-5.6 3.1 0 5.6 2.5 5.6 5.6v7.5l6.5-3.8c1.3-.8 2.9-1 4.3-.6s2.7 1.3 3.4 2.6c1.5 2.7.6 6.2-2 7.7L55.7 96l6.5 3.8c2.7 1.6 3.6 5 2.1 7.7zM192 74.4v43.2c0 8-4.1 15-10.2 19.1l-9.6-7.8c5-1.3 8.7-5.9 8.7-11.3V74.4c0-6.4-5.2-11.7-11.6-11.7H90.4L76.5 51.5h92.7c12.6 0 22.8 10.2 22.8 22.9z"/>
  <path d="M167.3 107.5c-1 1.7-2.9 2.8-4.9 2.8-1 0-2-.3-2.8-.8l-6.5-3.8v7.8l-19.6-15.9 2.8-1.6-6.5-3.8c-2.7-1.6-3.6-5-2.1-7.7.7-1.3 1.9-2.2 3.4-2.6 1.5-.4 3-.2 4.3.6l6.5 3.8v-7.5c0-3.1 2.5-5.6 5.6-5.6s5.6 2.5 5.6 5.6v7.5l6.5-3.8c1.3-.8 2.9-1 4.3-.6s2.7 1.3 3.4 2.6c1.6 2.7.6 6.2-2.1 7.7l-6.5 3.8 6.5 3.8c2.7 1.6 3.6 5 2.1 7.7z"/>
  <path d="M153.1 113.5v-7.8l6.5 3.8c.8.5 1.8.8 2.8.8 2 0 3.9-1.1 4.9-2.8 1.5-2.7.6-6.1-2.1-7.7l-6.5-3.8 6.5-3.8c2.7-1.5 3.7-5 2.1-7.7-.7-1.3-2-2.2-3.4-2.6-1.4-.4-3-.2-4.3.6l-6.5 3.8v-7.5c0-3.1-2.5-5.6-5.6-5.6s-5.6 2.5-5.6 5.6v7.5l-6.5-3.8c-1.3-.8-2.8-1-4.3-.6s-2.7 1.3-3.4 2.6c-1.5 2.7-.6 6.1 2.1 7.7l6.5 3.8-2.8 1.6 19.6 15.9z"/>
</svg>
