<svg xml:space="preserve" style="enable-background:new 0 0 192 192" viewBox="0 0 192 192">
  <path d="M169.2 51.5H22.8C10.2 51.5 0 61.7 0 74.4v43.2c0 12.6 10.2 22.9 22.8 22.9h146.4c12.6 0 22.8-10.3 22.8-22.9V74.4c0-12.7-10.2-22.9-22.8-22.9zm11.6 22.9v43.2c0 6.4-5.2 11.7-11.6 11.7H22.8c-6.4 0-11.6-5.2-11.6-11.7V74.4c0-6.4 5.2-11.7 11.6-11.7h146.4c6.4 0 11.6 5.3 11.6 11.7z"/>
  <path d="M115.7 84.5c-.7-1.3-2-2.2-3.4-2.6-1.4-.4-3-.2-4.3.6l-6.5 3.8v-7.5c0-3.1-2.5-5.6-5.6-5.6-3.1 0-5.6 2.5-5.6 5.6v7.5l-6.5-3.8c-1.3-.8-2.8-1-4.3-.6-1.4.4-2.7 1.3-3.4 2.6-1.5 2.7-.6 6.1 2.1 7.7l6.5 3.8-6.5 3.8c-2.7 1.6-3.6 5-2 7.7 1 1.7 2.9 2.8 4.9 2.8 1 0 1.9-.3 2.8-.8l6.5-3.8v7.5c0 3.1 2.5 5.6 5.6 5.6 3.1 0 5.6-2.5 5.6-5.6v-7.5l6.5 3.8c.8.5 1.8.8 2.8.8 2 0 3.9-1.1 4.9-2.8 1.5-2.7.6-6.1-2.1-7.7l-6.5-3.8 6.5-3.8c2.7-1.5 3.6-5 2-7.7zm-51.5 0c-.7-1.3-2-2.2-3.4-2.6-1.4-.4-3-.2-4.3.6L50 86.3v-7.5c0-3.1-2.5-5.6-5.6-5.6s-5.6 2.5-5.6 5.6v7.5l-6.5-3.8c-1.3-.8-2.8-1-4.3-.6s-2.7 1.3-3.4 2.6c-1.5 2.7-.6 6.1 2.1 7.7l6.5 3.8-6.5 3.8c-2.7 1.6-3.6 5-2 7.7 1 1.7 2.9 2.8 4.9 2.8 1 0 1.9-.3 2.8-.8l6.5-3.8v7.5c0 3.1 2.5 5.6 5.6 5.6s5.6-2.5 5.6-5.6v-7.5l6.5 3.8c.8.5 1.8.8 2.8.8 2 0 3.9-1.1 4.9-2.8 1.5-2.7.6-6.1-2.1-7.7L55.7 96l6.5-3.8c2.6-1.5 3.5-5 2-7.7zm103.1 0c-.7-1.3-2-2.2-3.4-2.6-1.4-.4-3-.2-4.3.6l-6.5 3.8v-7.5c0-3.1-2.5-5.6-5.6-5.6-3.1 0-5.6 2.5-5.6 5.6v7.5l-6.5-3.8c-1.3-.8-2.8-1-4.3-.6s-2.7 1.3-3.4 2.6c-1.5 2.7-.6 6.1 2.1 7.7l6.5 3.8-6.5 3.8c-2.7 1.6-3.6 5-2.1 7.7 1 1.7 2.9 2.8 4.9 2.8 1 0 1.9-.3 2.8-.8l6.5-3.8v7.5c0 3.1 2.5 5.6 5.6 5.6 3.1 0 5.6-2.5 5.6-5.6v-7.5l6.5 3.8c.8.5 1.8.8 2.8.8 2 0 3.9-1.1 4.9-2.8 1.5-2.7.6-6.1-2.1-7.7l-6.5-3.8 6.5-3.8c2.7-1.5 3.7-5 2.1-7.7z"/>
</svg>
