<svg xml:space="preserve" style="enable-background:new 0 0 192 192" viewBox="0 0 192 192">
  <path d="M118.6 126.1v-60c0-3.3-2.8-5.9-6.1-5.9-3.2 0-5.8 2.7-5.9 5.9v60c0 3.3 2.8 5.9 6.1 5.9 3.2 0 5.8-2.7 5.9-5.9zm-33.2 0v-60c0-3.3-2.6-6.1-5.9-6.1s-6.1 2.6-6.1 5.9v60.2c0 3.3 2.8 5.9 6.1 5.9 3.2 0 5.8-2.7 5.9-5.9z"/>
  <path d="M96 8.3C47.6 8.3 8.3 47.6 8.3 96s39.3 87.7 87.7 87.7 87.7-39.3 87.7-87.7S144.4 8.3 96 8.3zm0 162.5c-41.3 0-74.8-33.5-74.8-74.8S54.7 21.1 96 21.1s74.8 33.5 74.8 74.8-33.5 74.9-74.8 74.9z"/>
</svg>
