<svg xml:space="preserve" style="enable-background:new 0 0 192 192" viewBox="0 0 192 192">
  <defs>
    <filter id="pencil_svg__a" width="152" height="152" x="20" y="20" filterUnits="userSpaceOnUse">
      <feColorMatrix values="1 0 0 0 0 0 1 0 0 0 0 0 1 0 0 0 0 0 1 0"/>
    </filter>
  </defs>
  <mask id="pencil_svg__b" width="152" height="152" x="20" y="20" maskUnits="userSpaceOnUse">
    <path d="M172 20H20v152h152V20z" style="fill:#fff;filter:url(#pencil_svg__a)"/>
  </mask>
  <g style="mask:url(#pencil_svg__b)">
    <path d="M139.1 93c-1.6 0-3.1-.6-4.3-1.8l-34.1-34.1c-.6-.6-1-1.2-1.3-2-.3-.7-.5-1.5-.5-2.3 0-.8.2-1.6.5-2.3.3-.7.7-1.4 1.3-2 .6-.6 1.2-1 2-1.3.7-.3 1.5-.5 2.3-.5.8 0 1.6.2 2.3.5.7.3 1.4.7 2 1.3l34.1 34.1c.8.8 1.4 1.9 1.6 3.1.2 1.2.1 2.4-.3 3.5-.5 1.1-1.2 2-2.2 2.7-1 .7-2.2 1-3.4 1.1z"/>
    <path d="M26.1 172c-.8 0-1.7-.2-2.5-.5s-1.5-.8-2-1.5c-.6-.6-1-1.4-1.3-2.2-.3-.8-.4-1.7-.3-2.5l4.3-38.3c.1-1.4.8-2.6 1.7-3.6l98.1-98.1c1.7-1.7 3.7-3 5.9-3.9 2.2-.9 4.5-1.4 6.9-1.4 2.4 0 4.7.5 6.9 1.4 2.2.9 4.2 2.2 5.9 3.9l17 17c1.7 1.7 3 3.7 3.9 5.9.9 2.2 1.4 4.5 1.4 6.9 0 2.4-.5 4.7-1.4 6.9-.9 2.2-2.2 4.2-3.9 5.9L68.6 166c-1 1-2.2 1.6-3.6 1.7L26.7 172h-.6zm10-41.6-3.2 28.7 28.7-3.2 96.6-96.6c.6-.6 1-1.2 1.3-2 .3-.7.5-1.5.5-2.3 0-.8-.2-1.6-.5-2.3-.3-.7-.8-1.4-1.3-2l-17-17c-.6-.6-1.2-1-2-1.3-.7-.3-1.5-.5-2.3-.5-.8 0-1.6.2-2.3.5-.7.3-1.4.8-2 1.3l-96.5 96.7z"/>
  </g>
</svg>
