<svg xml:space="preserve" style="enable-background:new 0 0 192 192" viewBox="0 0 192 192">
  <path d="M122.2 182c-1.2 0-2.5-.2-3.7-.6L96 175.2l-22.8 6.3c-3.8 1.1-7.6.4-10.6-1.8-2.9-2.2-4.7-5.7-4.6-9.4v-6.2c0-5.2 2.3-10.2 6.2-13.3L76 141l-.3-20.4-39 17.7c-5.7 2.6-12.4.1-15-5.6-.7-1.5-1-3-1-4.7v-9.1c.1-4.3 2.1-8.4 5.5-11l48.3-39.8-.4-16.3c-.1-1.7-.1-5.8-.1-6.4C74 12.6 90.8 10 96 10c3.7 0 12.9 1.3 18.2 13.3 2.5 5.7 3.8 13.2 3.8 22.2 0 .6 0 4.7-.1 6.5l-.4 16.3 48.3 39.9c3.4 2.7 5.4 6.7 5.5 11v9c0 3-1.2 5.9-3.3 8-2.1 2.1-5 3.3-8 3.3-1.6 0-3.2-.3-4.7-1l-39.1-17.7-.5 20.3 12 9.9c3.8 3 6.3 6.4 6.3 13.3v5.9c.1 3.8-1.7 7.5-4.8 9.8-2 1.2-4.4 2-7 2zM70 170.3zm25.9-7.5 1.7.3.5.2 23.6 6.6c.1 0 .2 0 .2.1v-6c0-2.5-.2-2.6-1.8-3.9l-.1-.1-16.5-13.6 1-44.3 54.7 24.8v-7.8c0-.7-.4-1.3-.9-1.8l-.2-.1-52.9-43.6.6-22.3c.1-1.1.1-4.7.1-5.9 0-7.3-.9-13.1-2.8-17.3-1.7-4-4.1-6.1-7.1-6.1-7.4 0-10 12.6-10 23.4 0 1.2 0 4.8.1 5.9v.2l.6 22.2-53.1 43.7c-.6.4-.9 1.1-.9 1.8v7.8l54.7-24.8.7 44.5L71.7 160c-1 .8-1.7 2.4-1.7 4v5.9l23.8-6.6.5-.2 1.6-.3zm-2.1.5z"/>
</svg>
