<svg xml:space="preserve" style="enable-background:new 0 0 192 192" viewBox="0 0 192 192">
  <path d="M130.8 86.5 89.1 60.4c-3.4-2.1-7.8-2.3-11.3-.3-3.6 2-5.8 5.7-5.8 9.8v52.2c0 4.1 2.2 7.8 5.8 9.8s7.9 1.9 11.3-.3l41.7-26.1c3.3-2 5.2-5.6 5.2-9.5s-2-7.4-5.2-9.5zm-5.3 9.4c0 1.1-.6 2.2-1.5 2.7l-36.6 22.9c-1 .6-2.3.6-3.3 0s-1.7-1.7-1.7-2.9V72.9c0-1.2.6-2.3 1.7-2.9s2.3-.5 3.3 0c0 0 35.1 21.8 36.6 22.9s1.5 3 1.5 3z" style="fill-rule:evenodd;clip-rule:evenodd"/>
  <path d="M96 8.3C47.6 8.3 8.3 47.6 8.3 96s39.3 87.7 87.7 87.7 87.7-39.3 87.7-87.7S144.4 8.3 96 8.3zm0 162.5c-41.3 0-74.8-33.5-74.8-74.8S54.7 21.1 96 21.1s74.8 33.5 74.8 74.8-33.5 74.9-74.8 74.9z"/>
</svg>
