<svg viewBox="0 0 192 192">
  <path d="M38.7 73.9c-3.6 0-6.6-3-6.6-6.6V38.7c0-3.6 3-6.6 6.6-6.6h28.7c3.6 0 6.6 3 6.6 6.6v28.7c0 3.6-3 6.6-6.6 6.6H38.7v-.1zm6.6-13.1h15.5V45.3H45.3v15.5zM38.7 160c-3.6 0-6.6-3-6.6-6.6v-28.7c0-3.6 3-6.6 6.6-6.6h28.7c3.6 0 6.6 3 6.6 6.6v28.7c0 3.6-3 6.6-6.6 6.6H38.7zm6.6-13.2h15.5v-15.5H45.3v15.5zm79.3 13.2c-3.6 0-6.6-3-6.6-6.6s3-6.6 6.6-6.6h22.1V139c0-3.6 3-6.6 6.6-6.6 3.6 0 6.6 3 6.6 6.6v14.4c0 3.6-3 6.6-6.6 6.6h-28.7zm0-86.1c-3.6 0-6.6-3-6.6-6.6V38.7c0-3.6 3-6.6 6.6-6.6h28.7c3.6 0 6.6 3 6.6 6.6v28.7c0 3.6-3 6.6-6.6 6.6h-28.7v-.1zm6.5-13.1h15.5V45.3h-15.5v15.5zM95.9 160c-3.6 0-6.6-3-6.6-6.6v-28.7c0-3.6 3-6.6 6.6-6.6s6.6 3 6.6 6.6v28.7c0 3.6-2.9 6.6-6.6 6.6zm-14.3-57.3c-3.6 0-6.6-3-6.6-6.6 0-3.6 3-6.6 6.6-6.6h42.9c3.6 0 6.6 3 6.6 6.6 0 3.6-3 6.6-6.6 6.6H81.6z"/>
  <path d="M96 102.7c-3.7 0-6.6-3-6.6-6.6V81.7c0-3.7 3-6.6 6.6-6.6 3.7 0 6.6 3 6.6 6.6v14.4c0 3.6-2.9 6.6-6.6 6.6zm28.7 28.6c-3.7 0-6.6-3-6.6-6.6V96.1c0-3.7 3-6.6 6.6-6.6 3.7 0 6.6 3 6.6 6.6v28.8c0 3.5-3 6.4-6.6 6.4zM96 59.5c-3.7 0-6.6-3-6.6-6.6V38.6c0-3.7 3-6.6 6.6-6.6 3.7 0 6.6 3 6.6 6.6V53c0 3.7-2.9 6.5-6.6 6.5zm57.4 57.6c-3.7 0-6.6-3-6.6-6.6V96.1c0-3.7 3-6.6 6.6-6.6s6.6 3 6.6 6.6v14.4c0 3.6-3 6.6-6.6 6.6zM38.6 102.7c-3.7 0-6.6-3-6.6-6.6s3-6.6 6.6-6.6H53c3.7 0 6.6 3 6.6 6.6s-3 6.6-6.6 6.6H38.6z"/>
</svg>
