<svg xml:space="preserve" style="enable-background:new 0 0 192 192" viewBox="0 0 192 192">
  <path d="M158.2 33.8c-34.4-34.4-90-34.4-124.4 0-34.4 34.3-34.4 90 0 124.4s90.1 34.4 124.5 0 34.3-89.9-.1-124.4c0 .1 0 0 0 0zm-8.9 115.6c-29.5 29.5-77.2 29.5-106.7 0s-29.5-77.2 0-106.7 77.2-29.5 106.7 0c29.4 29.5 29.4 77.2 0 106.7z"/>
  <path d="M122.1 76.8C119.8 64.2 108.8 55 96 55c-14.6 0-26.2 11.4-26.5 26-.1 2.9 1.6 5.4 4 6.2 1.6.6 3.7.3 5.3-.7 1.7-1.1 2.7-2.8 2.9-4.9.8-7.5 5.3-13.1 11.6-14.4 7.8-1.4 15.3 3.7 16.7 11.4.9 5.8-1.4 10.4-7.4 14.5-6.9 4.6-10.8 8.9-12.5 13.5-1 3.3.7 6.7 4 7.7.6.1 1.2.2 1.7.2 3.1 0 4.7-2.1 5.8-3.7l.6-.9c1.1-1.7 1.9-2.9 7.3-6.5 10.1-6.5 14.6-16 12.6-26.6zM96 121.4c-4.3 0-7.8 3.5-7.8 7.8s3.5 7.8 7.8 7.8 7.8-3.5 7.8-7.8-3.5-7.8-7.8-7.8z"/>
</svg>
