<svg xml:space="preserve" style="enable-background:new 0 0 192 192" viewBox="0 0 192 192">
  <path d="M91.8 149c-4.2 0-7.6-3.4-7.6-7.6 0-4.2 3.4-7.6 7.6-7.6h75.8c4.2 0 7.6 3.4 7.6 7.6 0 4.2-3.4 7.6-7.6 7.6H91.8zm30.3-45.5c-4.2 0-7.6-3.4-7.6-7.6s3.4-7.6 7.6-7.6h45.5c4.2 0 7.6 3.4 7.6 7.6s-3.4 7.6-7.6 7.6h-45.5zM152.5 58c-4.2 0-7.6-3.4-7.6-7.6s3.4-7.6 7.6-7.6h15.2c4.2 0 7.6 3.4 7.6 7.6s-3.4 7.6-7.6 7.6h-15.2z" style="fill-rule:evenodd;clip-rule:evenodd"/>
  <path d="M56.1 44.9c.4.4.8.9 1.1 1.3l25.3 25.3c2.9 3 2.9 7.6 0 10.6-3 2.9-7.6 2.9-10.6 0L58.3 68.5v71.4c-.1 4.1-3.4 7.2-7.5 7.3h-.4c-4-.1-7.4-3.2-7.5-7.3V68.5L29.6 82.1c-3 2.9-7.6 2.9-10.6 0-2.9-3-2.9-7.6 0-10.6l25.3-25.3c.3-.5.6-.9 1.1-1.3 1.5-1.5 3.5-2.2 5.4-2.2 1.9 0 3.8.7 5.3 2.2z"/>
</svg>
