<svg viewBox="0 0 192 192">
  <path d="M163.566 39.306 98.28 4.515a6.768 6.768 0 0 0-6.446.039L28.356 39.343a6.778 6.778 0 0 0-3.514 5.945v49.248c.04 38.754 22.999 73.816 58.506 89.345l8.811 3.841a6.772 6.772 0 0 0 5.394 0l9.921-4.284c36.161-15.196 59.683-50.594 59.685-89.818V45.286a6.775 6.775 0 0 0-3.592-5.98Zm-9.613 54.308c-.003 33.995-20.401 64.671-51.748 77.824l-.049.021-7.284 3.136-6.139-2.676c-30.762-13.449-50.657-43.821-50.694-77.395V49.015l57.096-31.289 58.819 31.336v44.553Z"/>
  <path d="M131.075 77.835a6.778 6.778 0 0 0-9.535-.981l-34.853 28.354-12.871-15.072a6.776 6.776 0 0 0-9.554-.752 6.776 6.776 0 0 0-.752 9.554l17.169 20.104a6.774 6.774 0 0 0 9.429.856l39.989-32.53a6.773 6.773 0 0 0 .981-9.529l-.003-.004Z"/>
</svg>
