<svg viewBox="0 0 192 192">
  <path d="M110.3 184H81.4c-6.3.1-11.7-4.5-12.7-10.8l-1.6-9.3c-.5-3-2.2-5.7-4.6-7.5-2.4-1.8-5.4-2.5-8.4-2-.7.1-1.4.3-2.1.6l-9.1 3.4c-6 2.3-12.7-.2-15.8-5.8l-14.4-25.5c-3.1-5.4-1.8-12.3 3.1-16.3l7.3-6.1c4.9-4 5.6-11.2 1.6-16.1l-.2-.2c-.3-.5-.7-.9-1.2-1.2H23L15.7 81c-4.8-4-6.1-10.9-3-16.3l14.7-25.3c3.2-5.4 9.7-7.8 15.6-5.7l9 3.3c5.9 2.2 12.4-.8 14.6-6.7l.3-.6c.2-.6.3-1.2.4-1.8l1.6-9.3C70 12.4 75.5 7.8 81.8 8h28.7c6.4 0 11.8 4.6 12.7 10.9l1.6 9.4c.9 6.1 6.6 10.4 12.8 9.4h.2c.7-.1 1.4-.3 2.1-.6l9.1-3.4c6-2.3 12.7.2 15.8 5.8l14.6 25.2.2.3c2.7 5.5 1.3 12.1-3.4 16l-7.3 6.1c-4.9 4-5.6 11.2-1.6 16.1l.2.2c.3.5.7.9 1.2 1.2l.2.2 7.3 6.2c4.8 4 6.1 10.9 3 16.3l-14.7 25.3c-3.2 5.4-9.7 7.8-15.6 5.7l-9-3.3c-2.8-1.1-6-1-8.7.3-2.7 1.2-4.9 3.5-5.9 6.4l-.3.6c-.2.6-.3 1.2-.4 1.8l-1.6 9.3c-1.1 6.2-6.5 10.7-12.7 10.6zM56 142.5c4.8 0 9.4 1.5 13.3 4.3 5 3.6 8.3 9 9.4 15.1l1.7 9.5c.1.5.6.8 1 .8h28.9c.4 0 .8-.2 1-.6l1.7-9.7c.3-1.6.7-3.1 1.3-4.6 2.1-5.7 6.5-10.3 12-12.8 5.6-2.6 12-2.8 17.7-.6l9 3.3c.5.2 1.1 0 1.4-.5l14.7-25.3c.2-.4.1-.9-.3-1.2l-7.3-6.1c-1.2-.9-2.4-2.1-3.3-3.3-8.1-9.9-6.6-24.5 3.2-32.6l7.3-6.2h.1c.4-.4.5-.9.4-1.4l-14.5-25.1c-.2-.5-.8-.7-1.3-.5l-9.1 3.3c-7.2 2.8-15.4 1.8-21.6-2.7-5-3.6-8.3-9-9.4-15.1l-1.7-9.5v-.2c-.1-.5-.5-.8-1-.8H81.3c-.3.1-.5.3-.6.6L79 30.1c-.3 1.6-.7 3.1-1.3 4.6C73 46.6 59.8 52.6 47.9 48.2l-9-3.3c-.5-.2-1.1 0-1.4.5L22.9 70.7c-.2.4-.1.9.3 1.2l7.3 6.1c1.3.9 2.4 2.1 3.3 3.3 8 9.9 6.6 24.5-3.2 32.6l-7.3 6.2c-.4.3-.5.8-.3 1.2L37.4 147c.3.4.8.6 1.2.5l9.1-3.4c1.4-.5 2.8-.9 4.2-1.2 1.3-.2 2.7-.4 4.1-.4zM96.1 129C77.8 129 63 114.2 63 95.9s14.8-33.2 33.1-33.2 33.1 14.8 33.1 33.2c0 18.3-14.8 33.1-33.1 33.1m0-54.4c-11.8 0-21.3 9.5-21.3 21.3s9.5 21.3 21.3 21.3 21.3-9.5 21.3-21.3c-.1-11.8-9.6-21.3-21.3-21.3"/>
</svg>
