<svg xml:space="preserve" style="enable-background:new 0 0 192 192" viewBox="0 0 192 192">
  <path d="m163.3 39.3-4-2.1L111 11.4 98 4.5c-2-1.1-4.4-1.1-6.5 0l-13.2 7.3-45.8 25.1-4.4 2.4c-2.2 1.2-3.5 3.5-3.5 5.9v49.2c0 20.9 6.7 40.7 18.4 56.9 10 13.9 23.7 25.2 40.1 32.4l4.4 1.9 4.4 1.9c1.7.8 3.7.8 5.4 0l4-1.7 5.9-2.6c16.7-7 30.8-18.4 41-32.5a97.21 97.21 0 0 0 18.7-57.3V45.3c0-2.5-1.4-4.8-3.6-6zM111 133.2c6.2 2.2 11.9 5.8 16.6 10.5 1.8 1.8 3.4 3.8 4.9 5.8-8.2 9.3-18.6 16.9-30.6 21.9l-4.3 1.9-2.9 1.3-3.1-1.4-3-1.3c-11.7-5.1-21.8-12.7-29.9-21.9 11.2-16.5 32.7-24 52.3-16.8zM67.8 89.7c0-15.4 12.5-27.9 27.9-27.9s27.9 12.5 27.9 27.9c0 15.4-12.5 27.9-27.9 27.9S67.8 105 67.8 89.7zm85.9 3.9c0 16.4-4.7 31.9-13.1 45.2-5.6-6.9-12.8-12.4-21-16 18.3-13.1 22.5-38.6 9.4-56.9-13.2-18.4-38.7-22.6-57-9.4-18.2 13-22.5 38.5-9.3 56.8 2.6 3.6 5.7 6.7 9.3 9.3-8.4 3.8-15.7 9.4-21.4 16.5-8.2-13.1-12.8-28.5-12.8-44.6V49l2.3-1.2L83 24.2l11.9-6.5 11.6 6.2 45 24 2.2 1.2v44.5z"/>
</svg>
