<svg xml:space="preserve" style="enable-background:new 0 0 192 192" viewBox="0 0 192 192">
  <path d="M96 73.6c-27.7 0-50.1 22.4-50.1 50 0 4 3.2 7.1 7.1 7.1h85.9c4 0 7.1-3.2 7.1-7.1.1-27.7-22.3-50-50-50zm-35 42.8c4-19.3 22.8-31.7 42.2-27.9 14.1 2.9 25 13.8 27.9 27.9H61zm35-57.1c4 0 7.1-3.2 7.1-7.1V37.8c0-4-3.2-7.1-7.1-7.1-4 0-7.1 3.2-7.1 7.1v14.3c0 4 3.1 7.2 7.1 7.2zM50.5 68 40.3 57.8c-2.8-2.8-7.2-2.9-10.2-.1-2.8 2.8-2.9 7.2-.1 10.2l.1.1 10.2 10.2c2.8 2.7 7.4 2.7 10.2-.2 2.7-2.8 2.7-7.2 0-10zm-26.1 48.4H10.1c-4 0-7.1 3.2-7.1 7.1 0 4 3.2 7.1 7.1 7.1h14.3c4 0 7.1-3.2 7.1-7.1.2-3.9-3.1-7.1-7.1-7.1zm157.5 0h-14.3c-4 0-7.1 3.2-7.1 7.1 0 4 3.2 7.1 7.1 7.1h14.3c4 0 7.1-3.2 7.1-7.1 0-3.9-3.2-7.1-7.1-7.1zm-20.2-58.5c-2.8-2.8-7.4-2.8-10.2 0l-10.2 10.2c-2.7 2.8-2.7 7.3.2 10.2 2.8 2.7 7.1 2.7 9.9 0l10.2-10.2c3-2.8 3-7.4.1-10.2z"/>
</svg>
