<svg xml:space="preserve" style="enable-background:new 0 0 192 192" viewBox="0 0 192 192">
  <path d="M175.3 89.3h-18c-1.5-14-7.6-27-17.7-37-10-10-22.9-16.2-36.9-17.7V16.7a6.7 6.7 0 0 0-13.4 0v17.8C75.4 36 62.5 42.1 52.4 52.2c-10.1 10.1-16.2 23-17.7 37h-18a6.7 6.7 0 0 0 0 13.4h18c1.5 13.9 7.7 26.7 17.7 36.7 10 10 22.9 16.2 36.9 17.7v18.2a6.7 6.7 0 0 0 13.4 0V157c13.9-1.5 26.8-7.6 36.9-17.7 10-10 16.1-22.8 17.7-36.7h18c3.7 0 6.7-3 6.7-6.7 0-3.6-3-6.6-6.7-6.6zm-72.6 54.3v-16a6.7 6.7 0 0 0-13.4 0v16c-21.2-3-38-19.7-41-40.8h16.1a6.7 6.7 0 0 0 0-13.4H48.2C51.2 68 68 51.1 89.3 48.1v16.3a6.7 6.7 0 0 0 13.4 0V48.1c21.3 3 38.1 19.9 41 41.2h-16.2a6.7 6.7 0 0 0 0 13.4h16.1c-2.9 21.2-19.7 37.9-40.9 40.9z"/>
  <path d="M96 87.6c-4.6 0-8.4 3.8-8.4 8.4 0 4.6 3.8 8.4 8.4 8.4 4.6 0 8.4-3.8 8.4-8.4 0-4.6-3.8-8.4-8.4-8.4z"/>
</svg>
