<svg xml:space="preserve" style="enable-background:new 0 0 192 192" viewBox="0 0 192 192">
  <path d="M188.5 118.7c-2-5.7-5.2-10.8-9.5-15.1-2.1-2-4.3-3.9-6.8-5.4 11.1-12.2 10.2-31-1.9-42.1-11.3-10.3-28.6-10.4-40-.2-8.5-18.9-30.8-27.4-49.7-18.8-8.4 3.8-15.1 10.5-18.8 18.8-12.2-11-31.1-10-42.1 2.2-10.3 11.5-10.2 28.8.1 40.1-7.5 4.8-13.3 12-16.3 20.4L1.2 125c-.5 1.4 0 3 1.2 3.8 0 0 20 14.3 39.4 14.3h.1c1.5 0 3-.1 4.4-.2l4.2 2.9c13.4 9.2 29.3 14.2 45.6 14.1h.1c16.2 0 32.1-4.9 45.5-14.1l4.2-2.9c1.5.1 3 .2 4.5.2h.1c20.4 0 39.2-14.3 39.2-14.3 1.2-.8 1.7-2.4 1.2-3.8l-2.4-6.3zm-38.2-58.3c9.8 0 17.7 7.9 17.7 17.6s-7.9 17.7-17.6 17.7c-9 0-16.6-6.8-17.6-15.8-.1-.6-.1-1.3-.1-1.9-.1-9.7 7.8-17.6 17.6-17.6-.1 0 0 0 0 0m-22 37.8c-2.3 1.5-4.4 3.2-6.4 5-1.1-.6-2.2-1.2-3.3-1.7 2.6-2 4.9-4.2 6.9-6.8.9 1.3 1.8 2.4 2.8 3.5M96 45.9c13.6 0 24.8 10.7 25.5 24.3v1.2c0 14.1-11.5 25.5-25.6 25.4-11.3 0-21.2-7.4-24.4-18.2-.7-2.4-1.1-4.8-1.1-7.3v-1.2c.8-13.5 12-24.2 25.6-24.2m-25.8 57.4c-2-1.9-4.1-3.6-6.4-5.1 1-1.1 1.9-2.2 2.7-3.4 2 2.6 4.4 4.9 7 6.8-1.1.5-2.3 1-3.3 1.7M41.8 60.4c9.7 0 17.7 7.9 17.7 17.6v.1c0 .6 0 1.2-.1 1.8-1 9.7-9.7 16.8-19.4 15.8S23.2 86 24.2 76.3c.9-9 8.5-15.9 17.6-15.9m0 70.7c-8.6 0-17.1-2.3-24.4-6.8-1.4-.9-2-2.7-1.3-4.2 6.2-13.1 21.5-19.6 35.4-14.6 3.1 1.1 6.1 2.8 8.6 4.9-6.2 5.6-10.9 12.6-13.9 20.4-1.4.2-2.9.3-4.4.3m54.3 16.8c-11.6 0-23-2.9-33.1-8.6-1.1-.6-2.2-1.3-3.3-1.9-1.4-.9-1.9-2.6-1.3-4.1 1.1-2.4 2.3-4.7 3.8-6.8 1.6-2.3 3.3-4.4 5.3-6.3 11.3-10.8 27.8-14.3 42.5-9 1.5.5 3 1.2 4.5 1.9 3.7 1.8 7.1 4.2 10 7.1l.6.6c3.6 3.6 6.5 7.9 8.5 12.6.6 1.5.1 3.2-1.3 4.1-1.1.7-2.2 1.3-3.3 1.9-10 5.6-21.4 8.5-32.9 8.5m54.2-16.8c-1.5 0-3-.1-4.4-.2-2.6-7-6.8-13.4-12-18.7-.6-.6-1.1-1.1-1.7-1.6 11.3-9.4 28-8.7 38.4 1.7 2.3 2.3 4.1 4.9 5.5 7.8.7 1.5.2 3.4-1.2 4.3-7.5 4.4-16 6.7-24.6 6.7"/>
</svg>
