<svg viewBox="0 0 192 192">
  <path d="M96.197 120.067c-3.4 0-6.2 2.8-6.2 6.2v14.6c0 3.4 2.8 6.4 6.2 6.4s6.4-2.8 6.4-6.2v-14.8c0-3.4-2.8-6.2-6.4-6.2Z"/>
  <path d="M148.797 75.067c-1.3-.4-2.6-.7-4-.7h-1.8v-22.4c0-25.5-19.8-47.1-45.3-48-24-.9-44.7 16.5-48.2 40.3-.4 3.3 1.8 6.2 5.1 6.6h.9c2.9 0 5.3-2 5.7-4.8 2.4-18 18.3-31 36.5-30.1 18.9.9 33.4 17.2 33.4 36.1v22.4h-83.7c-1.3 0-2.6.2-4 .7-6.8 1.8-11.9 7.9-11.9 15.2v74.1c0 7.3 5.1 13.4 11.7 15.2 1.3.2 2.6.4 4.2.4h97.4c1.3 0 2.6-.2 4-.7 6.8-1.8 11.7-7.9 11.7-15.2v-73.9c.2-7.3-4.8-13.4-11.7-15.2Zm0 89.1c0 2.2-1.8 4-4 4h-97.4c-2.2 0-4-1.8-4-4v-73.9c0-2.2 1.8-4 4-4h97.4c2.2 0 4 1.8 4 4v73.9Z"/>
</svg>
