<svg xml:space="preserve" style="enable-background:new 0 0 192 192" viewBox="0 0 192 192">
  <path d="M158.2 33.8c-34.4-34.4-90-34.4-124.4 0-34.4 34.3-34.4 90 0 124.4s90.1 34.4 124.5 0 34.4-89.9 0-124.3l-.1-.1zm-8.9 115.6c-29.5 29.5-77.2 29.5-106.7 0s-29.5-77.2 0-106.7 77.2-29.5 106.7 0c29.4 29.5 29.4 77.2 0 106.7z"/>
  <path d="M90.1 128.5V76L75.3 90.8c-2.3 2.3-6 2.3-8.3 0s-2.3-6 0-8.3l24.8-24.8c1.7-1.7 5.5-2.7 8.3 0l25 24.8c2.2 2.3 2.1 6-.2 8.3-2.2 2.1-5.8 2.2-8 0l-14.8-14.6v52.4c0 4.1-2.7 7.5-6 7.5s-6-3.4-6-7.5v-.1z"/>
</svg>
