<svg viewBox="0 0 192 192">
  <path d="m123.13 60.358-.102-.105-20.74-21.175v60.021a6.286 6.286 0 1 1-12.572 0V39.106L69.098 60.254a6.285 6.285 0 0 1-8.888.037l-.037-.037v.127a6.285 6.285 0 0 1-.037-8.888l.037-.037 31.428-32.185a6.6 6.6 0 0 1 9.052 0l31.428 32.182a6.314 6.314 0 0 1-8.95 8.906Z"/>
  <path d="M95.567 174.527C50.437 174.527 8 137.942 8 92.812a6.286 6.286 0 1 1 12.572 0c.005 38.182 36.812 69.132 74.994 69.133 38.183 0 75.856-30.951 75.861-69.133a6.286 6.286 0 1 1 12.572 0c0 45.13-43.303 81.715-88.433 81.715Z"/>
</svg>
