<svg xml:space="preserve" style="enable-background:new 0 0 192 192" viewBox="0 0 192 192">
  <path d="M154.2 147c-10.2 0-18.5 8.3-18.5 18.5S144 184 154.2 184s18.5-8.3 18.5-18.5-8.3-18.5-18.5-18.5zm7.9 18.5c0 4.4-3.6 7.9-7.9 7.9s-7.9-3.6-7.9-7.9 3.6-7.9 7.9-7.9 7.9 3.5 7.9 7.9z"/>
  <path d="M191.1 148.9c-6.6-9.2-18.3-20.2-37-20.2s-30.4 11-37 20.3c-.8 1.2-1.1 2.7-.8 4.1.3 1.4 1.2 2.6 2.4 3.4.9.5 1.8.8 2.8.8 1.7 0 3.3-.8 4.4-2.2 5-7.2 14-15.8 28.3-15.8 14.2 0 23.2 8.6 28.2 15.7 1.6 2.3 4.8 3 7.1 1.5 1.2-.8 2.1-2 2.4-3.4.4-1.5.1-3-.8-4.2z"/>
  <path d="M110.3 169.8c-4.7.9-9.5 1.4-14.3 1.4-15.1 0-29.9-4.6-42.4-13.1 8.4-23.4 34.3-35.6 57.7-27.1 1.1.4 2.2.9 3.3 1.3 2 .9 4.4.7 6.2-.6l.2-.2c3.9-2.9 3.4-8.9-1.1-10.9-.1 0-.2-.1-.2-.1 19.1-13.6 22.8-40.8 7.7-59.2-12.7-15.4-35.4-19.2-52.6-8.7C54.4 65.1 49.2 92 62.9 111.2c2.6 3.6 5.7 6.7 9.3 9.3a57.91 57.91 0 0 0-29 28.9c-29.5-29.1-29.8-76.6-.7-106.1C56.6 29 75.9 21 96 21c41.4 0 75.1 33.5 75.1 75 0 7.4-1.1 14.7-3.2 21.6-1.2 4.1 1.9 8.2 6.2 8.2h.1c2.8 0 5.3-1.8 6.1-4.5 8-26.5 3.4-56.4-15-79.9C135.1 3.3 79.8-3.3 41.6 26.8s-44.8 85.4-14.8 123.6c4.4 5.4 9.3 10.4 14.8 14.7.4.4.9.7 1.4 1 20.3 15.5 45.8 21 69.7 16.3 3-.6 5.2-3.2 5.2-6.3v-.1c0-4-3.7-7-7.6-6.2zM68.1 87.5c0-15.4 12.5-27.9 27.9-27.9s27.9 12.5 27.9 27.9-12.5 27.9-27.9 27.9-27.9-12.5-27.9-27.9z"/>
</svg>
