<svg xml:space="preserve" style="enable-background:new 0 0 192 192" viewBox="0 0 192 192">
  <path d="M41.6 165.1c.4.4.9.7 1.4 1 31.3 23.9 74.7 23.9 106 0 .5-.3 1-.6 1.4-1 38.2-30 44.8-85.4 14.8-123.6C135.1 3.3 79.8-3.3 41.6 26.8s-44.8 85.4-14.8 123.6c4.4 5.4 9.3 10.4 14.8 14.7.1 0 0 0 0 0zm54.4 6.1c-15.1 0-29.9-4.6-42.4-13.1 8.4-23.4 34.3-35.6 57.7-27.1 6.2 2.2 11.9 5.8 16.6 10.5 4.7 4.7 8.2 10.4 10.4 16.6-12.4 8.5-27.2 13.1-42.3 13.1M68.1 87.5c0-15.4 12.5-27.9 27.9-27.9s27.9 12.5 27.9 27.9-12.5 27.9-27.9 27.9c-15.4 0-27.9-12.5-27.9-27.9M96 21c41.4 0 75.1 33.5 75.1 75 0 20.1-8 39.3-22.3 53.5-5.8-12.9-16.1-23.2-29-28.9 18.3-13.1 22.5-38.6 9.4-56.9s-38.6-22.5-56.9-9.4-22.5 38.6-9.4 56.9c2.6 3.6 5.7 6.7 9.3 9.3a57.91 57.91 0 0 0-29 28.9c-29.5-29.1-29.8-76.6-.7-106.1C56.6 29 75.9 21 96 21z"/>
</svg>
