<svg xml:space="preserve" style="enable-background:new 0 0 192 192" viewBox="0 0 192 192">
  <path d="M74.8 52.6C54.4 65.1 49.2 92 62.9 111.2c2.6 3.6 5.7 6.7 9.3 9.3a57.91 57.91 0 0 0-29 28.9c-29.5-29.1-29.8-76.6-.7-106.1C56.6 29 75.9 21 96 21c41.4 0 75.1 33.5 75.1 75 0 2.6-.1 5.3-.4 7.9-.4 3.8 2.6 7.1 6.4 7.1 3.3 0 6.1-2.5 6.4-5.8 2.3-22-3.6-44.9-18.3-63.7C135.1 3.3 79.8-3.3 41.6 26.8 3.4 56.9-3.2 112.2 26.8 150.4c4.4 5.4 9.3 10.4 14.8 14.7.4.4.9.7 1.4 1 20.3 15.5 45.8 21 69.7 16.3 3-.6 5.2-3.2 5.2-6.3v-.1c0-4-3.6-7-7.6-6.2-4.7.9-9.5 1.4-14.3 1.4-15.1 0-29.9-4.6-42.4-13.1 8.4-23.4 34.3-35.6 57.7-27.1 1.1.4 2.2.9 3.3 1.3 2 .9 4.4.7 6.2-.6l.2-.2c4-2.9 3.3-9.1-1.3-11 19.1-13.6 22.8-40.8 7.7-59.2-12.7-15.4-35.4-19.2-52.6-8.7zM96 115.4c-15.4 0-27.9-12.5-27.9-27.9S80.6 59.6 96 59.6s27.9 12.5 27.9 27.9-12.5 27.9-27.9 27.9z"/>
  <path d="m188.9 127-25.5-13.6c-1.5-.8-3.2-.8-4.7 0L133.9 127c-1.6.9-2.6 2.5-2.6 4.3v19.2c0 16 9.5 30.5 24.2 37l3.4 1.5c.6.3 1.3.4 2 .4s1.3-.1 2-.4l3.9-1.7c15-6.3 24.7-20.9 24.7-37.2v-18.9c0-1.7-1-3.3-2.6-4.2zm-7.1 7.2v16c0 12.4-7.4 23.5-18.8 28.3l-1.9.8-1.5-.6c-11.2-4.9-18.4-15.9-18.4-28.1v-16.4l20-11 20.6 11z"/>
  <path d="M153.7 161.6c1 1.1 2.4 1.7 3.7 1.7 1.1 0 2.2-.4 3.1-1.1l15.6-12.7c2-1.7 2.4-4.6.9-6.7l-.2-.2c-1.7-2.1-4.8-2.4-6.9-.7l-11.9 9.7-3.6-4.2c-1.8-2.1-4.9-2.3-6.9-.5-1 .9-1.6 2-1.7 3.4s.3 2.6 1.2 3.6l6.7 7.7z"/>
</svg>
