<svg viewBox="0 0 192 192">
  <path d="M36.234 141.477c.126.165.258.327.386.491a75.76 75.76 0 0 0 1.756 2.19c.474.565.964 1.121 1.458 1.676.271.306.537.617.813.919a75.919 75.919 0 0 0 2.542 2.639 57.99 57.99 0 0 1 28.969-28.925 40.768 40.768 0 0 1-9.297-9.315c-13.138-18.307-8.948-43.798 9.359-56.936 18.307-13.138 43.798-8.948 56.936 9.359 13.138 18.307 8.948 43.798-9.359 56.936a57.332 57.332 0 0 1 28.969 28.925 75.046 75.046 0 0 0 22.317-53.454c-.029-41.448-33.653-75.024-75.101-74.995l-.009-.003a75.02 75.02 0 0 0-53.472 22.317C35.276 50.62 29.868 59.05 26.265 68.032l-.176.447a72.837 72.837 0 0 0-1.364 3.779c-.24.722-.468 1.446-.686 2.173a73.163 73.163 0 0 0-.481 1.695 74.14 74.14 0 0 0-.422 1.604c-.196.792-.38 1.589-.552 2.39-.07.325-.141.649-.207.975a75.1 75.1 0 0 0-.573 3.207l-.036.225a75.964 75.964 0 0 0-.86 11.409c0 17.115 5.713 32.889 15.326 45.541Z" opacity=".5"/>
  <path d="M165.165 41.531C135.12 3.332 79.798-3.278 41.599 26.767 3.4 56.812-3.21 112.135 26.835 150.334a88.017 88.017 0 0 0 14.816 14.805l-.003.006c.412.4.874.746 1.374 1.029 31.308 23.876 74.718 23.857 106.005-.047.502-.28.964-.626 1.374-1.029C188.6 135.053 195.21 79.73 165.165 41.531ZM21.767 84.527l.036-.225c.168-1.072.358-2.141.573-3.207.066-.325.137-.65.207-.975.172-.799.353-1.596.552-2.39.134-.536.276-1.07.422-1.604.155-.566.313-1.131.481-1.695.218-.727.445-1.452.686-2.173.118-.353.235-.706.358-1.058.319-.912.652-1.819 1.006-2.721.059-.149.116-.298.176-.447C29.868 59.05 35.276 50.62 42.5 43.301a75.015 75.015 0 0 1 53.472-22.317l.009.003c41.448-.029 75.072 33.547 75.101 74.995a75.05 75.05 0 0 1-22.317 53.454 57.332 57.332 0 0 0-28.969-28.925c18.307-13.138 22.497-38.629 9.359-56.936-13.138-18.307-38.629-22.497-56.936-9.359-18.307 13.138-22.497 38.629-9.359 56.936a40.828 40.828 0 0 0 9.297 9.315 57.983 57.983 0 0 0-28.969 28.925 76.857 76.857 0 0 1-2.542-2.639c-.278-.302-.541-.613-.813-.919a74.063 74.063 0 0 1-1.458-1.676 75.439 75.439 0 0 1-1.756-2.19c-.128-.164-.259-.326-.386-.491-12.67-16.58-17.501-37.243-14.467-56.95Zm46.317 2.981c0-15.407 12.49-27.896 27.896-27.896s27.896 12.489 27.896 27.896-12.489 27.896-27.896 27.896c-15.394-.029-27.867-12.502-27.896-27.896Zm27.896 83.688a74.577 74.577 0 0 1-42.36-13.131c8.444-23.417 34.273-35.555 57.69-27.111a45.085 45.085 0 0 1 16.556 10.503 44.442 44.442 0 0 1 10.43 16.608 74.432 74.432 0 0 1-42.316 13.131Z"/>
</svg>
