<svg xml:space="preserve" style="enable-background:new 0 0 192 192" viewBox="0 0 192 192">
  <path d="M28.3 147.2c-3.8 0-8.6-1.2-11.8-6.8-5-8.6.9-15.1 3.1-17.6 1.8-2 4.2-4.2 7.6-6.9 5-4.1 12.2-9.3 21.2-15.4 8.1-5.5 18-11.9 25.2-16.5.4-8.5 1.1-20.2 1.9-29.9.9-10.8 1.9-19.5 2.9-25.9.7-4.2 1.5-7.4 2.3-9.9 1.1-3.1 3.9-11.4 13.9-11.4s12.8 8.3 13.9 11.4c.8 2.5 1.6 5.7 2.3 9.9 1.1 6.3 2 15 2.9 25.9.8 9.7 1.5 21.3 1.9 29.9 7.3 4.6 17.1 11 25.2 16.5 9.1 6.2 16.2 11.4 21.2 15.4 3.3 2.7 5.8 5 7.6 6.9 2.2 2.5 8.1 9 3.1 17.6-5 8.6-13.7 6.8-16.9 6.2-2.6-.5-5.8-1.5-9.9-3-6.1-2.3-14.2-5.8-24.1-10.4-8.9-4.2-19.4-9.4-27.1-13.3-7.7 3.9-18.2 9.2-27.1 13.3-9.9 4.7-18.1 8.2-24.1 10.4-4 1.5-7.2 2.5-9.8 3-1.5.3-3.3.6-5.4.6zm66.1-41.6 3 1.5c7.6 3.9 19.7 10 29.6 14.6 9.6 4.5 17.4 7.9 23.2 10 3.3 1.2 6 2.1 7.9 2.4 1.9.4 2.7.4 3 .3.1-.1.1-.2.3-.4s.2-.3.2-.4c-.1-.3-.5-.9-1.8-2.4-1.3-1.4-3.3-3.3-6.1-5.5-4.8-3.9-11.6-8.8-20.4-14.8-9.1-6.2-20.4-13.5-27.6-18l-2.8-1.8-.1-3.3c-.4-8.5-1.1-21.9-2-32.7-.9-10.5-1.8-18.8-2.8-24.8-.6-3.5-1.2-6.2-1.8-8-.6-1.8-1-2.5-1.2-2.7h-.9c-.2.2-.6.9-1.2 2.7-.6 1.8-1.2 4.5-1.8 8-1 6-1.9 14.3-2.8 24.8-.9 10.8-1.6 24.2-2 32.7l-.3 3.4-2.8 1.8c-7.2 4.5-18.6 11.9-27.6 18-8.8 6-15.6 11-20.4 14.8-2.8 2.2-4.8 4.1-6.1 5.5-1.3 1.4-1.7 2.1-1.8 2.4 0 .1.1.2.2.4s.2.3.3.4c.3 0 1.1.1 3-.3s4.6-1.2 7.9-2.4c5.7-2.1 13.5-5.5 23.2-10 9.9-4.7 22-10.7 29.6-14.6l2.9-1.6z"/>
  <path d="m85.4 186.9 2.8-53.6c2.4-1.2 4-2.4 6.2-3.5 2.2 1.1 4.8 2.4 7.2 3.5l2.8 53.6h-19z" style="fill-rule:evenodd;clip-rule:evenodd"/>
</svg>
